<?xml version="1.0" standalone="no"?>
 <!DOCTYPE svg PUBLIC "-//W3C//DTD SVG 1.1//EN" 
 "http://www.w3.org/Graphics/SVG/1.1/DTD/svg11.dtd"> 
<svg xmlns="http://www.w3.org/2000/svg" version="1.1" 
    width="12.5349cm" height="6.42874cm" viewBox="0 0 49350 25310 ">
<title>SVG Picture created as pican-usb-Dwgs.User.svg date 2018/03/17 09:32:25 </title>
  <desc>Picture generated by PCBNEW </desc>
<g style="fill:#000000; fill-opacity:1;stroke:#000000; stroke-opacity:1;
stroke-linecap:round; stroke-linejoin:round; "
 transform="translate(0 0) scale(1 1)">
</g>
<g style="fill:#C2C2C2; fill-opacity:0.0; 
stroke:#C2C2C2; stroke-width:-0.000393701; stroke-opacity:1; 
stroke-linecap:round; stroke-linejoin:round;">
</g>
<g style="fill:#C2C2C2; fill-opacity:0.0; 
stroke:#C2C2C2; stroke-width:118.11; stroke-opacity:1; 
stroke-linecap:round; stroke-linejoin:round;">
<path d="M2432 15374
L2826 15374
" />
<path d="M2207 15514
L2629 15655
L2629 15289
" />
<path d="M2488 14980
L2460 15036
L2432 15064
L2376 15092
L2348 15092
L2291 15064
L2263 15036
L2235 14980
L2235 14867
L2263 14811
L2291 14783
L2348 14755
L2376 14755
L2432 14783
L2460 14811
L2488 14867
L2488 14980
L2516 15036
L2544 15064
L2601 15092
L2713 15092
L2769 15064
L2798 15036
L2826 14980
L2826 14867
L2798 14811
L2769 14783
L2713 14755
L2601 14755
L2544 14783
L2516 14811
L2488 14867
" />
<path d="M2769 14502
L2798 14474
L2826 14502
L2798 14530
L2769 14502
L2826 14502
" />
<path d="M2235 14277
L2235 13911
L2460 14108
L2460 14024
L2488 13967
L2516 13939
L2573 13911
L2713 13911
L2769 13939
L2798 13967
L2826 14024
L2826 14192
L2798 14249
L2769 14277
" />
<path d="M2235 13546
L2235 13489
L2263 13433
L2291 13405
L2348 13377
L2460 13349
L2601 13349
L2713 13377
L2769 13405
L2798 13433
L2826 13489
L2826 13546
L2798 13602
L2769 13630
L2713 13658
L2601 13686
L2460 13686
L2348 13658
L2291 13630
L2263 13602
L2235 13546
" />
<path d="M2235 12983
L2235 12927
L2263 12871
L2291 12843
L2348 12814
L2460 12786
L2601 12786
L2713 12814
L2769 12843
L2798 12871
L2826 12927
L2826 12983
L2798 13039
L2769 13068
L2713 13096
L2601 13124
L2460 13124
L2348 13096
L2291 13068
L2263 13039
L2235 12983
" />
<path d="M2826 12083
L2432 12083
" />
<path d="M2488 12083
L2460 12055
L2432 11999
L2432 11915
L2460 11858
L2516 11830
L2826 11830
" />
<path d="M2516 11830
L2460 11802
L2432 11746
L2432 11661
L2460 11605
L2516 11577
L2826 11577
" />
<path d="M2826 11296
L2432 11296
" />
<path d="M2488 11296
L2460 11268
L2432 11212
L2432 11127
L2460 11071
L2516 11043
L2826 11043
" />
<path d="M2516 11043
L2460 11015
L2432 10958
L2432 10874
L2460 10818
L2516 10790
L2826 10790
" />
<path d="M3090 22716
L3090 3700
" />
<path d="M7283 22716
L2027 22716
" />
<path d="M7283 3700
L2027 3700
" />
<path d="M3090 3700
L3321 4144
" />
<path d="M3090 3700
L2859 4144
" />
<path d="M3090 22716
L3321 22273
" />
<path d="M3090 22716
L2859 22273
" />
<path d="M45404 15374
L45798 15374
" />
<path d="M45179 15514
L45601 15655
L45601 15289
" />
<path d="M45208 14811
L45208 14924
L45236 14980
L45264 15008
L45348 15064
L45461 15092
L45686 15092
L45742 15064
L45770 15036
L45798 14980
L45798 14867
L45770 14811
L45742 14783
L45686 14755
L45545 14755
L45489 14783
L45461 14811
L45433 14867
L45433 14980
L45461 15036
L45489 15064
L45545 15092
" />
<path d="M45742 14502
L45770 14474
L45798 14502
L45770 14530
L45742 14502
L45798 14502
" />
<path d="M45798 13911
L45798 14249
" />
<path d="M45798 14080
L45208 14080
L45292 14136
L45348 14192
L45376 14249
" />
<path d="M45208 13546
L45208 13489
L45236 13433
L45264 13405
L45320 13377
L45433 13349
L45573 13349
L45686 13377
L45742 13405
L45770 13433
L45798 13489
L45798 13546
L45770 13602
L45742 13630
L45686 13658
L45573 13686
L45433 13686
L45320 13658
L45264 13630
L45236 13602
L45208 13546
" />
<path d="M45208 12983
L45208 12927
L45236 12871
L45264 12843
L45320 12814
L45433 12786
L45573 12786
L45686 12814
L45742 12843
L45770 12871
L45798 12927
L45798 12983
L45770 13039
L45742 13068
L45686 13096
L45573 13124
L45433 13124
L45320 13096
L45264 13068
L45236 13039
L45208 12983
" />
<path d="M45798 12083
L45404 12083
" />
<path d="M45461 12083
L45433 12055
L45404 11999
L45404 11915
L45433 11858
L45489 11830
L45798 11830
" />
<path d="M45489 11830
L45433 11802
L45404 11746
L45404 11661
L45433 11605
L45489 11577
L45798 11577
" />
<path d="M45798 11296
L45404 11296
" />
<path d="M45461 11296
L45433 11268
L45404 11212
L45404 11127
L45433 11071
L45489 11043
L45798 11043
" />
<path d="M45489 11043
L45433 11015
L45404 10958
L45404 10874
L45433 10818
L45489 10790
L45798 10790
" />
<path d="M44999 22283
L44999 4133
" />
<path d="M41259 22283
L46062 22283
" />
<path d="M41259 4133
L46062 4133
" />
<path d="M44999 4133
L45230 4577
" />
<path d="M44999 4133
L44769 4577
" />
<path d="M44999 22283
L45230 21839
" />
<path d="M44999 22283
L44769 21839
" />
<path d="M33773 24994
L33745 25022
L33661 25050
L33605 25050
L33520 25022
L33464 24966
L33436 24910
L33408 24797
L33408 24713
L33436 24600
L33464 24544
L33520 24488
L33605 24460
L33661 24460
L33745 24488
L33773 24516
" />
<path d="M33998 24881
L34280 24881
" />
<path d="M33942 25050
L34139 24460
L34336 25050
" />
<path d="M34505 25022
L34589 25050
L34730 25050
L34786 25022
L34814 24994
L34842 24938
L34842 24881
L34814 24825
L34786 24797
L34730 24769
L34617 24741
L34561 24713
L34533 24685
L34505 24628
L34505 24572
L34533 24516
L34561 24488
L34617 24460
L34758 24460
L34842 24488
" />
<path d="M35095 24741
L35292 24741
" />
<path d="M35376 25050
L35095 25050
L35095 24460
L35376 24460
" />
<path d="M35629 24994
L35658 25022
L35629 25050
L35601 25022
L35629 24994
L35629 25050
" />
<path d="M35629 24685
L35658 24713
L35629 24741
L35601 24713
L35629 24685
L35629 24741
" />
<path d="M36276 24460
L36614 24460
" />
<path d="M36445 25050
L36445 24460
" />
<path d="M36811 24741
L37007 24741
" />
<path d="M37092 25050
L36811 25050
L36811 24460
L37092 24460
" />
<path d="M37345 25050
L37345 24460
" />
<path d="M37682 25050
L37429 24713
" />
<path d="M37682 24460
L37345 24797
" />
<path d="M37907 24881
L38188 24881
" />
<path d="M37851 25050
L38048 24460
L38245 25050
" />
<path d="M38723 25050
L38442 25050
L38442 24460
" />
<path d="M39229 25050
L38892 25050
" />
<path d="M39060 25050
L39060 24460
L39004 24544
L38948 24600
L38892 24628
" />
<path d="M39454 24516
L39482 24488
L39538 24460
L39679 24460
L39735 24488
L39763 24516
L39791 24572
L39791 24628
L39763 24713
L39426 25050
L39791 25050
" />
<path d="M40044 24994
L40073 25022
L40044 25050
L40016 25022
L40044 24994
L40044 25050
" />
<path d="M40298 24516
L40326 24488
L40382 24460
L40523 24460
L40579 24488
L40607 24516
L40635 24572
L40635 24628
L40607 24713
L40269 25050
L40635 25050
" />
<path d="M40916 25050
L41029 25050
L41085 25022
L41113 24994
L41169 24910
L41197 24797
L41197 24572
L41169 24516
L41141 24488
L41085 24460
L40973 24460
L40916 24488
L40888 24516
L40860 24572
L40860 24713
L40888 24769
L40916 24797
L40973 24825
L41085 24825
L41141 24797
L41169 24769
L41197 24713
" />
<path d="M21248 461
L21192 433
L21164 404
L21136 348
L21136 320
L21164 264
L21192 236
L21248 208
L21361 208
L21417 236
L21445 264
L21473 320
L21473 348
L21445 404
L21417 433
L21361 461
L21248 461
L21192 489
L21164 517
L21136 573
L21136 686
L21164 742
L21192 770
L21248 798
L21361 798
L21417 770
L21445 742
L21473 686
L21473 573
L21445 517
L21417 489
L21361 461
" />
<path d="M21754 798
L21867 798
L21923 770
L21951 742
L22007 658
L22035 545
L22035 320
L22007 264
L21979 236
L21923 208
L21811 208
L21754 236
L21726 264
L21698 320
L21698 461
L21726 517
L21754 545
L21811 573
L21923 573
L21979 545
L22007 517
L22035 461
" />
<path d="M22289 742
L22317 770
L22289 798
L22260 770
L22289 742
L22289 798
" />
<path d="M22654 461
L22598 433
L22570 404
L22542 348
L22542 320
L22570 264
L22598 236
L22654 208
L22767 208
L22823 236
L22851 264
L22879 320
L22879 348
L22851 404
L22823 433
L22767 461
L22654 461
L22598 489
L22570 517
L22542 573
L22542 686
L22570 742
L22598 770
L22654 798
L22767 798
L22823 770
L22851 742
L22879 686
L22879 573
L22851 517
L22823 489
L22767 461
" />
<path d="M23245 208
L23301 208
L23357 236
L23385 264
L23413 320
L23442 433
L23442 573
L23413 686
L23385 742
L23357 770
L23301 798
L23245 798
L23188 770
L23160 742
L23132 686
L23104 573
L23104 433
L23132 320
L23160 264
L23188 236
L23245 208
" />
<path d="M23807 208
L23863 208
L23920 236
L23948 264
L23976 320
L24004 433
L24004 573
L23976 686
L23948 742
L23920 770
L23863 798
L23807 798
L23751 770
L23723 742
L23695 686
L23667 573
L23667 433
L23695 320
L23723 264
L23751 236
L23807 208
" />
<path d="M24707 798
L24707 404
" />
<path d="M24707 461
L24735 433
L24791 404
L24876 404
L24932 433
L24960 489
L24960 798
" />
<path d="M24960 489
L24988 433
L25044 404
L25129 404
L25185 433
L25213 489
L25213 798
" />
<path d="M25494 798
L25494 404
" />
<path d="M25494 461
L25523 433
L25579 404
L25663 404
L25719 433
L25748 489
L25748 798
" />
<path d="M25748 489
L25776 433
L25832 404
L25916 404
L25973 433
L26001 489
L26001 798
" />
<path d="M5905 1062
L41259 1062
" />
<path d="M5905 2322
L5905 0
" />
<path d="M41259 2322
L41259 0
" />
<path d="M41259 1062
L40816 1293
" />
<path d="M41259 1062
L40816 832
" />
<path d="M5905 1062
L6349 1293
" />
<path d="M5905 1062
L6349 832
" />
<path d="M46467 15345
L46467 15627
L46749 15655
L46721 15627
L46692 15570
L46692 15430
L46721 15374
L46749 15345
L46805 15317
L46946 15317
L47002 15345
L47030 15374
L47058 15430
L47058 15570
L47030 15627
L47002 15655
" />
<path d="M46467 14783
L46467 15064
L46749 15092
L46721 15064
L46692 15008
L46692 14867
L46721 14811
L46749 14783
L46805 14755
L46946 14755
L47002 14783
L47030 14811
L47058 14867
L47058 15008
L47030 15064
L47002 15092
" />
<path d="M47002 14502
L47030 14474
L47058 14502
L47030 14530
L47002 14502
L47058 14502
" />
<path d="M46467 14277
L46467 13911
L46692 14108
L46692 14024
L46721 13967
L46749 13939
L46805 13911
L46946 13911
L47002 13939
L47030 13967
L47058 14024
L47058 14192
L47030 14249
L47002 14277
" />
<path d="M46467 13546
L46467 13489
L46496 13433
L46524 13405
L46580 13377
L46692 13349
L46833 13349
L46946 13377
L47002 13405
L47030 13433
L47058 13489
L47058 13546
L47030 13602
L47002 13630
L46946 13658
L46833 13686
L46692 13686
L46580 13658
L46524 13630
L46496 13602
L46467 13546
" />
<path d="M46467 12983
L46467 12927
L46496 12871
L46524 12843
L46580 12814
L46692 12786
L46833 12786
L46946 12814
L47002 12843
L47030 12871
L47058 12927
L47058 12983
L47030 13039
L47002 13068
L46946 13096
L46833 13124
L46692 13124
L46580 13096
L46524 13068
L46496 13039
L46467 12983
" />
<path d="M47058 12083
L46664 12083
" />
<path d="M46721 12083
L46692 12055
L46664 11999
L46664 11915
L46692 11858
L46749 11830
L47058 11830
" />
<path d="M46749 11830
L46692 11802
L46664 11746
L46664 11661
L46692 11605
L46749 11577
L47058 11577
" />
<path d="M47058 11296
L46664 11296
" />
<path d="M46721 11296
L46692 11268
L46664 11212
L46664 11127
L46692 11071
L46749 11043
L47058 11043
" />
<path d="M46749 11043
L46692 11015
L46664 10958
L46664 10874
L46692 10818
L46749 10790
L47058 10790
" />
<path d="M46259 24094
L46259 2322
" />
<path d="M41259 24094
L47322 24094
" />
<path d="M41259 2322
L47322 2322
" />
<path d="M46259 2322
L46490 2766
" />
<path d="M46259 2322
L46028 2766
" />
<path d="M46259 24094
L46490 23650
" />
<path d="M46259 24094
L46028 23650
" />
</g> 
</svg>
