<?xml version="1.0" standalone="no"?>
 <!DOCTYPE svg PUBLIC "-//W3C//DTD SVG 1.1//EN" 
 "http://www.w3.org/Graphics/SVG/1.1/DTD/svg11.dtd"> 
<svg xmlns="http://www.w3.org/2000/svg" version="1.1" 
    width="12.5349cm" height="6.42874cm" viewBox="0 0 49350 25310 ">
<title>SVG Picture created as pican-usb-F.Fab.svg date 2018/03/17 09:32:25 </title>
  <desc>Picture generated by PCBNEW </desc>
<g style="fill:#000000; fill-opacity:1;stroke:#000000; stroke-opacity:1;
stroke-linecap:round; stroke-linejoin:round; "
 transform="translate(0 0) scale(1 1)">
</g>
<g style="fill:#C2C200; fill-opacity:0.0; 
stroke:#C2C200; stroke-width:-0.000393701; stroke-opacity:1; 
stroke-linecap:round; stroke-linejoin:round;">
</g>
<g style="fill:#C2C200; fill-opacity:0.0; 
stroke:#C2C200; stroke-width:49.2126; stroke-opacity:1; 
stroke-linecap:round; stroke-linejoin:round;">
<path d="M8607 9033
L8862 9033
L8892 9018
L8907 9003
L8922 8973
L8922 8913
L8907 8883
L8892 8868
L8862 8853
L8607 8853
" />
<path d="M8907 8718
L8922 8673
L8922 8598
L8907 8568
L8892 8553
L8862 8538
L8832 8538
L8802 8553
L8787 8568
L8772 8598
L8757 8658
L8742 8688
L8727 8703
L8697 8718
L8667 8718
L8637 8703
L8622 8688
L8607 8658
L8607 8583
L8622 8538
" />
<path d="M8757 8298
L8772 8253
L8787 8238
L8817 8223
L8862 8223
L8892 8238
L8907 8253
L8922 8283
L8922 8403
L8607 8403
L8607 8298
L8622 8268
L8637 8253
L8667 8238
L8697 8238
L8727 8253
L8742 8268
L8757 8298
L8757 8403
" />
<path d="M8952 8163
L8952 7923
" />
<path d="M8757 7743
L8772 7698
L8787 7683
L8817 7668
L8862 7668
L8892 7683
L8907 7698
L8922 7728
L8922 7848
L8607 7848
L8607 7743
L8622 7713
L8637 7698
L8667 7683
L8697 7683
L8727 7698
L8742 7713
L8757 7743
L8757 7848
" />
<path d="M6284 8490
L6509 8490
L6554 8505
L6584 8535
L6599 8580
L6599 8610
" />
<path d="M6599 8175
L6599 8355
" />
<path d="M6599 8265
L6284 8265
L6329 8295
L6359 8325
L6374 8355
" />
<path d="M15080 15280
L15080 14965
L15200 14965
L15230 14980
L15245 14995
L15260 15025
L15260 15070
L15245 15100
L15230 15115
L15200 15130
L15080 15130
" />
<path d="M15395 15280
L15395 14965
" />
<path d="M15725 15250
L15710 15265
L15665 15280
L15635 15280
L15590 15265
L15560 15235
L15545 15205
L15530 15145
L15530 15100
L15545 15040
L15560 15010
L15590 14980
L15635 14965
L15665 14965
L15710 14980
L15725 14995
" />
<path d="M16025 15280
L15845 15280
" />
<path d="M15935 15280
L15935 14965
L15905 15010
L15875 15040
L15845 15055
" />
<path d="M16205 15100
L16175 15085
L16160 15070
L16145 15040
L16145 15025
L16160 14995
L16175 14980
L16205 14965
L16265 14965
L16295 14980
L16310 14995
L16325 15025
L16325 15040
L16310 15070
L16295 15085
L16265 15100
L16205 15100
L16175 15115
L16160 15130
L16145 15160
L16145 15220
L16160 15250
L16175 15265
L16205 15280
L16265 15280
L16295 15265
L16310 15250
L16325 15220
L16325 15160
L16310 15130
L16295 15115
L16265 15100
" />
<path d="M16565 15115
L16460 15115
" />
<path d="M16460 15280
L16460 14965
L16610 14965
" />
<path d="M16715 14995
L16730 14980
L16760 14965
L16835 14965
L16865 14980
L16880 14995
L16895 15025
L16895 15055
L16880 15100
L16700 15280
L16895 15280
" />
<path d="M17165 14965
L17105 14965
L17075 14980
L17060 14995
L17030 15040
L17015 15100
L17015 15220
L17030 15250
L17045 15265
L17075 15280
L17135 15280
L17165 15265
L17180 15250
L17195 15220
L17195 15145
L17180 15115
L17165 15100
L17135 15085
L17075 15085
L17045 15100
L17030 15115
L17015 15145
" />
<path d="M17330 15280
L17330 14965
" />
<path d="M17510 15280
L17375 15100
" />
<path d="M17510 14965
L17330 15145
" />
<path d="M17690 15100
L17660 15085
L17645 15070
L17630 15040
L17630 15025
L17645 14995
L17660 14980
L17690 14965
L17750 14965
L17780 14980
L17795 14995
L17810 15025
L17810 15040
L17795 15070
L17780 15085
L17750 15100
L17690 15100
L17660 15115
L17645 15130
L17630 15160
L17630 15220
L17645 15250
L17660 15265
L17690 15280
L17750 15280
L17780 15265
L17795 15250
L17810 15220
L17810 15160
L17795 15130
L17780 15115
L17750 15100
" />
<path d="M17915 14965
L18110 14965
L18005 15085
L18050 15085
L18080 15100
L18095 15115
L18110 15145
L18110 15220
L18095 15250
L18080 15265
L18050 15280
L17960 15280
L17930 15265
L17915 15250
" />
<path d="M18245 15160
L18485 15160
" />
<path d="M18635 15280
L18635 14965
" />
<path d="M19010 14950
L18740 15355
" />
<path d="M19100 15265
L19145 15280
L19220 15280
L19250 15265
L19265 15250
L19280 15220
L19280 15190
L19265 15160
L19250 15145
L19220 15130
L19160 15115
L19130 15100
L19115 15085
L19100 15055
L19100 15025
L19115 14995
L19130 14980
L19160 14965
L19235 14965
L19280 14980
" />
<path d="M19400 15265
L19445 15280
L19520 15280
L19550 15265
L19565 15250
L19580 15220
L19580 15190
L19565 15160
L19550 15145
L19520 15130
L19460 15115
L19430 15100
L19415 15085
L19400 15055
L19400 15025
L19415 14995
L19430 14980
L19460 14965
L19535 14965
L19580 14980
" />
<path d="M16984 17229
L16984 17484
L16999 17514
L17014 17529
L17044 17544
L17104 17544
L17134 17529
L17149 17514
L17164 17484
L17164 17229
" />
<path d="M17299 17259
L17314 17244
L17344 17229
L17419 17229
L17449 17244
L17464 17259
L17479 17289
L17479 17319
L17464 17364
L17284 17544
L17479 17544
" />
<path d="M16896 22755
L16866 22740
L16821 22740
L16776 22755
L16746 22785
L16731 22815
L16716 22875
L16716 22920
L16731 22980
L16746 23010
L16776 23040
L16821 23055
L16851 23055
L16896 23040
L16911 23025
L16911 22920
L16851 22920
" />
<path d="M17106 22740
L17166 22740
L17196 22755
L17226 22785
L17241 22845
L17241 22950
L17226 23010
L17196 23040
L17166 23055
L17106 23055
L17076 23040
L17046 23010
L17031 22950
L17031 22845
L17046 22785
L17076 22755
L17106 22740
" />
<path d="M17526 23055
L17376 23055
L17376 22740
" />
<path d="M17631 23055
L17631 22740
L17706 22740
L17751 22755
L17781 22785
L17796 22815
L17811 22875
L17811 22920
L17796 22980
L17781 23010
L17751 23040
L17706 23055
L17631 23055
" />
<path d="M17946 23055
L17946 22740
L18066 22740
L18096 22755
L18111 22770
L18126 22800
L18126 22845
L18111 22875
L18096 22890
L18066 22905
L17946 22905
" />
<path d="M18261 23055
L18261 22740
" />
<path d="M18411 23055
L18411 22740
L18591 23055
L18591 22740
" />
<path d="M18666 23085
L18906 23085
" />
<path d="M19146 23055
L18966 23055
" />
<path d="M19056 23055
L19056 22740
L19026 22785
L18996 22815
L18966 22830
" />
<path d="M19251 23055
L19416 22845
" />
<path d="M19251 22845
L19416 23055
" />
<path d="M19685 22740
L19535 22740
L19520 22890
L19535 22875
L19565 22860
L19640 22860
L19670 22875
L19685 22890
L19700 22920
L19700 22995
L19685 23025
L19670 23040
L19640 23055
L19565 23055
L19535 23040
L19520 23025
" />
<path d="M19186 21166
L19186 21391
L19171 21436
L19141 21466
L19096 21481
L19066 21481
" />
<path d="M19321 21196
L19336 21181
L19366 21166
L19441 21166
L19471 21181
L19486 21196
L19501 21226
L19501 21256
L19486 21301
L19306 21481
L19501 21481
" />
<path d="M17462 20201
L17282 20201
" />
<path d="M17372 20201
L17372 19886
L17342 19931
L17312 19961
L17282 19976
" />
<path d="M17657 19886
L17687 19886
L17717 19901
L17732 19916
L17747 19946
L17762 20006
L17762 20081
L17747 20141
L17732 20171
L17717 20186
L17687 20201
L17657 20201
L17627 20186
L17612 20171
L17597 20141
L17582 20081
L17582 20006
L17597 19946
L17612 19916
L17627 19901
L17657 19886
" />
<path d="M17957 19886
L17987 19886
L18017 19901
L18032 19916
L18047 19946
L18062 20006
L18062 20081
L18047 20141
L18032 20171
L18017 20186
L17987 20201
L17957 20201
L17927 20186
L17912 20171
L17897 20141
L17882 20081
L17882 20006
L17897 19946
L17912 19916
L17927 19901
L17957 19886
" />
<path d="M18197 19991
L18197 20201
" />
<path d="M18197 20021
L18212 20006
L18242 19991
L18287 19991
L18317 20006
L18332 20036
L18332 20201
" />
<path d="M17612 21155
L17597 21170
L17552 21185
L17522 21185
L17477 21170
L17447 21140
L17432 21110
L17417 21050
L17417 21005
L17432 20945
L17447 20915
L17477 20885
L17522 20870
L17552 20870
L17597 20885
L17612 20900
" />
<path d="M17912 21185
L17732 21185
" />
<path d="M17822 21185
L17822 20870
L17792 20915
L17762 20945
L17732 20960
" />
<path d="M18182 20975
L18182 21185
" />
<path d="M18107 20855
L18032 21080
L18227 21080
" />
<path d="M26656 18780
L26656 18465
" />
<path d="M26791 18765
L26836 18780
L26911 18780
L26941 18765
L26956 18750
L26971 18720
L26971 18690
L26956 18660
L26941 18645
L26911 18630
L26851 18615
L26821 18600
L26806 18585
L26791 18555
L26791 18525
L26806 18495
L26821 18480
L26851 18465
L26926 18465
L26971 18480
" />
<path d="M27166 18465
L27226 18465
L27256 18480
L27286 18510
L27301 18570
L27301 18675
L27286 18735
L27256 18765
L27226 18780
L27166 18780
L27136 18765
L27106 18735
L27091 18675
L27091 18570
L27106 18510
L27136 18480
L27166 18465
" />
<path d="M27601 18780
L27421 18780
" />
<path d="M27511 18780
L27511 18465
L27481 18510
L27451 18540
L27421 18555
" />
<path d="M27796 18465
L27826 18465
L27856 18480
L27871 18495
L27886 18525
L27901 18585
L27901 18660
L27886 18720
L27871 18750
L27856 18765
L27826 18780
L27796 18780
L27766 18765
L27751 18750
L27736 18720
L27721 18660
L27721 18585
L27736 18525
L27751 18495
L27766 18480
L27796 18465
" />
<path d="M28186 18465
L28036 18465
L28021 18615
L28036 18600
L28066 18585
L28141 18585
L28171 18600
L28186 18615
L28201 18645
L28201 18720
L28186 18750
L28171 18765
L28141 18780
L28066 18780
L28036 18765
L28021 18750
" />
<path d="M28396 18465
L28426 18465
L28456 18480
L28471 18495
L28486 18525
L28501 18585
L28501 18660
L28486 18720
L28471 18750
L28456 18765
L28426 18780
L28396 18780
L28366 18765
L28351 18750
L28336 18720
L28321 18660
L28321 18585
L28336 18525
L28351 18495
L28366 18480
L28396 18465
" />
<path d="M28636 18780
L28636 18465
L28711 18465
L28756 18480
L28786 18510
L28801 18540
L28816 18600
L28816 18645
L28801 18705
L28786 18735
L28756 18765
L28711 18780
L28636 18780
" />
<path d="M28951 18465
L28951 18720
L28966 18750
L28981 18765
L29011 18780
L29071 18780
L29101 18765
L29116 18750
L29131 18720
L29131 18465
" />
<path d="M29386 18615
L29431 18630
L29446 18645
L29461 18675
L29461 18720
L29446 18750
L29431 18765
L29401 18780
L29281 18780
L29281 18465
L29386 18465
L29416 18480
L29431 18495
L29446 18525
L29446 18555
L29431 18585
L29416 18600
L29386 18615
L29281 18615
" />
<path d="M27811 14768
L27811 15023
L27826 15053
L27841 15068
L27871 15083
L27931 15083
L27961 15068
L27976 15053
L27991 15023
L27991 14768
" />
<path d="M28291 14768
L28141 14768
L28126 14918
L28141 14903
L28171 14888
L28246 14888
L28276 14903
L28291 14918
L28306 14948
L28306 15023
L28291 15053
L28276 15068
L28246 15083
L28171 15083
L28141 15068
L28126 15053
" />
<path d="M26761 6997
L26806 7012
L26881 7012
L26911 6997
L26926 6982
L26941 6952
L26941 6922
L26926 6892
L26911 6877
L26881 6862
L26821 6847
L26791 6832
L26776 6817
L26761 6787
L26761 6757
L26776 6727
L26791 6712
L26821 6697
L26896 6697
L26941 6712
" />
<path d="M27181 6847
L27226 6862
L27241 6877
L27256 6907
L27256 6952
L27241 6982
L27226 6997
L27196 7012
L27076 7012
L27076 6697
L27181 6697
L27211 6712
L27226 6727
L27241 6757
L27241 6787
L27226 6817
L27211 6832
L27181 6847
L27076 6847
" />
<path d="M27346 6697
L27526 6697
" />
<path d="M27436 7012
L27436 6697
" />
<path d="M27691 6697
L27721 6697
L27751 6712
L27766 6727
L27781 6757
L27796 6817
L27796 6892
L27781 6952
L27766 6982
L27751 6997
L27721 7012
L27691 7012
L27661 6997
L27646 6982
L27631 6952
L27616 6892
L27616 6817
L27631 6757
L27646 6727
L27661 6712
L27691 6697
" />
<path d="M28096 7012
L27916 7012
" />
<path d="M28006 7012
L28006 6697
L27976 6742
L27946 6772
L27916 6787
" />
<path d="M28381 7012
L28231 7012
L28231 6697
" />
<path d="M28486 6892
L28726 6892
" />
<path d="M28936 6697
L28966 6697
L28996 6712
L29011 6727
L29026 6757
L29041 6817
L29041 6892
L29026 6952
L29011 6982
L28996 6997
L28966 7012
L28936 7012
L28906 6997
L28891 6982
L28876 6952
L28861 6892
L28861 6817
L28876 6757
L28891 6727
L28906 6712
L28936 6697
" />
<path d="M29326 6697
L29176 6697
L29161 6847
L29176 6832
L29206 6817
L29281 6817
L29311 6832
L29326 6847
L29341 6877
L29341 6952
L29326 6982
L29311 6997
L29281 7012
L29206 7012
L29176 6997
L29161 6982
" />
<path d="M27909 9551
L27909 9806
L27924 9836
L27939 9851
L27969 9866
L28029 9866
L28059 9851
L28074 9836
L28089 9806
L28089 9551
" />
<path d="M28374 9656
L28374 9866
" />
<path d="M28299 9536
L28224 9761
L28419 9761
" />
<path d="M35410 17623
L35425 17578
L35440 17563
L35470 17548
L35515 17548
L35545 17563
L35560 17578
L35575 17608
L35575 17728
L35260 17728
L35260 17623
L35275 17593
L35290 17578
L35320 17563
L35350 17563
L35380 17578
L35395 17593
L35410 17623
L35410 17728
" />
<path d="M35395 17368
L35380 17398
L35365 17413
L35335 17428
L35320 17428
L35290 17413
L35275 17398
L35260 17368
L35260 17308
L35275 17278
L35290 17263
L35320 17248
L35335 17248
L35365 17263
L35380 17278
L35395 17308
L35395 17368
L35410 17398
L35425 17413
L35455 17428
L35515 17428
L35545 17413
L35560 17398
L35575 17368
L35575 17308
L35560 17278
L35545 17263
L35515 17248
L35455 17248
L35425 17263
L35410 17278
L35395 17308
" />
<path d="M35290 17128
L35275 17113
L35260 17083
L35260 17008
L35275 16978
L35290 16963
L35320 16948
L35350 16948
L35395 16963
L35575 17143
L35575 16948
" />
<path d="M35260 16843
L35260 16633
L35575 16768
" />
<path d="M35575 16498
L35575 16438
L35560 16408
L35545 16393
L35500 16363
L35440 16348
L35320 16348
L35290 16363
L35275 16378
L35260 16408
L35260 16468
L35275 16498
L35290 16513
L35320 16528
L35395 16528
L35425 16513
L35440 16498
L35455 16468
L35455 16408
L35440 16378
L35425 16363
L35395 16348
" />
<path d="M35260 16153
L35260 16123
L35275 16093
L35290 16078
L35320 16063
L35380 16048
L35455 16048
L35515 16063
L35545 16078
L35560 16093
L35575 16123
L35575 16153
L35560 16183
L35545 16198
L35515 16213
L35455 16228
L35380 16228
L35320 16213
L35290 16198
L35275 16183
L35260 16153
" />
<path d="M35560 15928
L35575 15883
L35575 15808
L35560 15778
L35545 15763
L35515 15748
L35485 15748
L35455 15763
L35440 15778
L35425 15808
L35410 15868
L35395 15898
L35380 15913
L35350 15928
L35320 15928
L35290 15913
L35275 15898
L35260 15868
L35260 15793
L35275 15748
" />
<path d="M35260 15553
L35260 15523
L35275 15494
L35290 15479
L35320 15464
L35380 15449
L35455 15449
L35515 15464
L35545 15479
L35560 15494
L35575 15523
L35575 15553
L35560 15583
L35545 15598
L35515 15613
L35455 15628
L35380 15628
L35320 15613
L35290 15598
L35275 15583
L35260 15553
" />
<path d="M35260 15164
L35260 15314
L35410 15329
L35395 15314
L35380 15284
L35380 15209
L35395 15179
L35410 15164
L35440 15149
L35515 15149
L35545 15164
L35560 15179
L35575 15209
L35575 15284
L35560 15314
L35545 15329
" />
<path d="M35575 14849
L35575 15029
" />
<path d="M35575 14939
L35260 14939
L35305 14969
L35335 14999
L35350 15029
" />
<path d="M35260 14744
L35260 14549
L35380 14654
L35380 14609
L35395 14579
L35410 14564
L35440 14549
L35515 14549
L35545 14564
L35560 14579
L35575 14609
L35575 14699
L35560 14729
L35545 14744
" />
<path d="M35575 14414
L35260 14414
L35575 14234
L35260 14234
" />
<path d="M35290 14099
L35275 14084
L35260 14054
L35260 13979
L35275 13949
L35290 13934
L35320 13919
L35350 13919
L35395 13934
L35575 14114
L35575 13919
" />
<path d="M35260 13724
L35260 13694
L35275 13664
L35290 13649
L35320 13634
L35380 13619
L35455 13619
L35515 13634
L35545 13649
L35560 13664
L35575 13694
L35575 13724
L35560 13754
L35545 13769
L35515 13784
L35455 13799
L35380 13799
L35320 13784
L35290 13769
L35275 13754
L35260 13724
" />
<path d="M35575 13319
L35575 13499
" />
<path d="M35575 13409
L35260 13409
L35305 13439
L35335 13469
L35350 13499
" />
<path d="M33934 16452
L33934 16557
" />
<path d="M34099 16557
L33784 16557
L33784 16407
" />
<path d="M34099 16137
L34099 16287
L33784 16287
" />
<path d="M34099 15868
L34099 16047
" />
<path d="M34099 15958
L33784 15958
L33829 15988
L33859 16017
L33874 16047
" />
<path d="M6495 21185
L6345 21185
L6345 20870
" />
<path d="M6600 21065
L6840 21065
" />
<path d="M7005 21185
L7065 21185
L7095 21170
L7110 21155
L7140 21110
L7155 21050
L7155 20930
L7140 20900
L7125 20885
L7095 20870
L7035 20870
L7005 20885
L6990 20900
L6975 20930
L6975 21005
L6990 21035
L7005 21050
L7035 21065
L7095 21065
L7125 21050
L7140 21035
L7155 21005
" />
<path d="M7260 20870
L7455 20870
L7350 20990
L7395 20990
L7425 21005
L7440 21020
L7455 21050
L7455 21125
L7440 21155
L7425 21170
L7395 21185
L7305 21185
L7275 21170
L7260 21155
" />
<path d="M7724 20975
L7724 21185
" />
<path d="M7649 20855
L7574 21080
L7769 21080
" />
<path d="M7889 21020
L7994 21020
" />
<path d="M8039 21185
L7889 21185
L7889 20870
L8039 20870
" />
<path d="M8279 21020
L8324 21035
L8339 21050
L8354 21080
L8354 21125
L8339 21155
L8324 21170
L8294 21185
L8174 21185
L8174 20870
L8279 20870
L8309 20885
L8324 20900
L8339 20930
L8339 20960
L8324 20990
L8309 21005
L8279 21020
L8174 21020
" />
<path d="M8714 20855
L8444 21260
" />
<path d="M8804 20900
L8819 20885
L8849 20870
L8924 20870
L8954 20885
L8969 20900
L8984 20930
L8984 20960
L8969 21005
L8789 21185
L8984 21185
" />
<path d="M9284 20885
L9254 20870
L9209 20870
L9164 20885
L9134 20915
L9119 20945
L9104 21005
L9104 21050
L9119 21110
L9134 21140
L9164 21170
L9209 21185
L9239 21185
L9284 21170
L9299 21155
L9299 21050
L9239 21050
" />
<path d="M9434 21185
L9434 20870
L9509 20870
L9554 20885
L9584 20915
L9599 20945
L9614 21005
L9614 21050
L9599 21110
L9584 21140
L9554 21170
L9509 21185
L9434 21185
" />
<path d="M9985 20094
L9670 20094
L9670 20019
L9685 19974
L9715 19944
L9745 19929
L9805 19914
L9850 19914
L9910 19929
L9940 19944
L9970 19974
L9985 20019
L9985 20094
" />
<path d="M9985 19614
L9985 19794
" />
<path d="M9985 19704
L9670 19704
L9715 19734
L9745 19764
L9760 19794
" />
<path d="M36268 20378
L36208 20378
L36178 20393
L36163 20408
L36133 20453
L36118 20513
L36118 20633
L36133 20663
L36148 20678
L36178 20693
L36238 20693
L36268 20678
L36283 20663
L36298 20633
L36298 20558
L36283 20528
L36268 20513
L36238 20498
L36178 20498
L36148 20513
L36133 20528
L36118 20558
" />
<path d="M36478 20513
L36448 20498
L36433 20483
L36418 20453
L36418 20438
L36433 20408
L36448 20393
L36478 20378
L36538 20378
L36568 20393
L36583 20408
L36598 20438
L36598 20453
L36583 20483
L36568 20498
L36538 20513
L36478 20513
L36448 20528
L36433 20543
L36418 20573
L36418 20633
L36433 20663
L36448 20678
L36478 20693
L36538 20693
L36568 20678
L36583 20663
L36598 20633
L36598 20573
L36583 20543
L36568 20528
L36538 20513
" />
<path d="M36913 20693
L36808 20543
" />
<path d="M36733 20693
L36733 20378
L36853 20378
L36883 20393
L36898 20408
L36913 20438
L36913 20483
L36898 20513
L36883 20528
L36853 20543
L36733 20543
" />
<path d="M35380 20103
L35275 19953
" />
<path d="M35200 20103
L35200 19788
L35320 19788
L35350 19803
L35365 19818
L35380 19848
L35380 19893
L35365 19923
L35350 19938
L35320 19953
L35200 19953
" />
<path d="M35530 20103
L35590 20103
L35620 20088
L35635 20073
L35665 20028
L35680 19968
L35680 19848
L35665 19818
L35650 19803
L35620 19788
L35560 19788
L35530 19803
L35515 19818
L35500 19848
L35500 19923
L35515 19953
L35530 19968
L35560 19983
L35620 19983
L35650 19968
L35665 19953
L35680 19923
" />
<path d="M36268 19197
L36208 19197
L36178 19212
L36163 19227
L36133 19272
L36118 19332
L36118 19452
L36133 19482
L36148 19497
L36178 19512
L36238 19512
L36268 19497
L36283 19482
L36298 19452
L36298 19377
L36283 19347
L36268 19332
L36238 19317
L36178 19317
L36148 19332
L36133 19347
L36118 19377
" />
<path d="M36478 19332
L36448 19317
L36433 19302
L36418 19272
L36418 19257
L36433 19227
L36448 19212
L36478 19197
L36538 19197
L36568 19212
L36583 19227
L36598 19257
L36598 19272
L36583 19302
L36568 19317
L36538 19332
L36478 19332
L36448 19347
L36433 19362
L36418 19392
L36418 19452
L36433 19482
L36448 19497
L36478 19512
L36538 19512
L36568 19497
L36583 19482
L36598 19452
L36598 19392
L36583 19362
L36568 19347
L36538 19332
" />
<path d="M36913 19512
L36808 19362
" />
<path d="M36733 19512
L36733 19197
L36853 19197
L36883 19212
L36898 19227
L36913 19257
L36913 19302
L36898 19332
L36883 19347
L36853 19362
L36733 19362
" />
<path d="M35380 18922
L35275 18772
" />
<path d="M35200 18922
L35200 18607
L35320 18607
L35350 18622
L35365 18637
L35380 18667
L35380 18712
L35365 18742
L35350 18757
L35320 18772
L35200 18772
" />
<path d="M35560 18742
L35530 18727
L35515 18712
L35500 18682
L35500 18667
L35515 18637
L35530 18622
L35560 18607
L35620 18607
L35650 18622
L35665 18637
L35680 18667
L35680 18682
L35665 18712
L35650 18727
L35620 18742
L35560 18742
L35530 18757
L35515 18772
L35500 18802
L35500 18862
L35515 18892
L35530 18907
L35560 18922
L35620 18922
L35650 18907
L35665 18892
L35680 18862
L35680 18802
L35665 18772
L35650 18757
L35620 18742
" />
<path d="M37723 18312
L37768 18327
L37843 18327
L37873 18312
L37888 18297
L37903 18267
L37903 18237
L37888 18207
L37873 18192
L37843 18177
L37783 18162
L37753 18147
L37738 18132
L37723 18102
L37723 18072
L37738 18042
L37753 18027
L37783 18012
L37858 18012
L37903 18027
" />
<path d="M38008 18012
L38083 18327
L38143 18102
L38203 18327
L38278 18012
" />
<path d="M38323 18357
L38563 18357
" />
<path d="M38638 18327
L38638 18012
L38713 18012
L38758 18027
L38788 18057
L38803 18087
L38818 18147
L38818 18192
L38803 18252
L38788 18282
L38758 18312
L38713 18327
L38638 18327
" />
<path d="M38953 18327
L38953 18012
" />
<path d="M39103 18327
L39103 18012
L39223 18012
L39253 18027
L39268 18042
L39283 18072
L39283 18117
L39268 18147
L39253 18162
L39223 18177
L39103 18177
" />
<path d="M39343 18357
L39583 18357
" />
<path d="M39628 18327
L39793 18117
" />
<path d="M39628 18117
L39793 18327
" />
<path d="M39973 18012
L40003 18012
L40033 18027
L40048 18042
L40063 18072
L40078 18132
L40078 18207
L40063 18267
L40048 18297
L40033 18312
L40003 18327
L39973 18327
L39943 18312
L39928 18297
L39913 18267
L39898 18207
L39898 18132
L39913 18072
L39928 18042
L39943 18027
L39973 18012
" />
<path d="M40198 18042
L40213 18027
L40243 18012
L40318 18012
L40348 18027
L40363 18042
L40378 18072
L40378 18102
L40363 18147
L40183 18327
L40378 18327
" />
<path d="M38631 20060
L38676 20075
L38751 20075
L38781 20060
L38796 20045
L38811 20015
L38811 19985
L38796 19955
L38781 19940
L38751 19925
L38691 19910
L38661 19895
L38646 19880
L38631 19850
L38631 19820
L38646 19790
L38661 19775
L38691 19760
L38766 19760
L38811 19775
" />
<path d="M38916 19760
L38991 20075
L39051 19850
L39111 20075
L39186 19760
" />
<path d="M39471 20075
L39291 20075
" />
<path d="M39381 20075
L39381 19760
L39351 19805
L39321 19835
L39291 19850
" />
<path d="M40103 12349
L39788 12349
L39788 12274
L39803 12229
L39833 12199
L39863 12184
L39923 12169
L39968 12169
L40028 12184
L40058 12199
L40088 12229
L40103 12274
L40103 12349
" />
<path d="M39938 11929
L39953 11884
L39968 11869
L39998 11854
L40043 11854
L40073 11869
L40088 11884
L40103 11914
L40103 12034
L39788 12034
L39788 11929
L39803 11899
L39818 11884
L39848 11869
L39878 11869
L39908 11884
L39923 11899
L39938 11929
L39938 12034
" />
<path d="M40103 11704
L40103 11644
L40088 11614
L40073 11599
L40028 11569
L39968 11554
L39848 11554
L39818 11569
L39803 11584
L39788 11614
L39788 11674
L39803 11704
L39818 11719
L39848 11734
L39923 11734
L39953 11719
L39968 11704
L39983 11674
L39983 11614
L39968 11584
L39953 11569
L39923 11554
" />
<path d="M40133 11494
L40133 11254
" />
<path d="M40103 11179
L39788 11179
L40013 11074
L39788 10969
L40103 10969
" />
<path d="M40103 10684
L39938 10684
L39908 10699
L39893 10729
L39893 10789
L39908 10819
" />
<path d="M40088 10684
L40103 10714
L40103 10789
L40088 10819
L40058 10834
L40028 10834
L39998 10819
L39983 10789
L39983 10714
L39968 10684
" />
<path d="M40103 10489
L40088 10519
L40058 10534
L39788 10534
" />
<path d="M40088 10249
L40103 10279
L40103 10339
L40088 10369
L40058 10384
L39938 10384
L39908 10369
L39893 10339
L39893 10279
L39908 10249
L39938 10234
L39968 10234
L39998 10384
" />
<path d="M39296 11404
L39520 11404
L39565 11419
L39595 11449
L39610 11494
L39610 11524
" />
<path d="M39296 11104
L39296 11254
L39446 11269
L39431 11254
L39416 11224
L39416 11149
L39431 11119
L39446 11104
L39476 11089
L39550 11089
L39580 11104
L39595 11119
L39610 11149
L39610 11224
L39595 11254
L39580 11269
" />
<path d="M19925 17737
L19925 17917
" />
<path d="M19925 17827
L19610 17827
L19655 17857
L19685 17887
L19700 17917
" />
<path d="M19610 17467
L19610 17527
L19625 17557
L19640 17572
L19685 17602
L19745 17617
L19865 17617
L19895 17602
L19910 17587
L19925 17557
L19925 17497
L19910 17467
L19895 17452
L19865 17437
L19790 17437
L19760 17452
L19745 17467
L19730 17497
L19730 17557
L19745 17587
L19760 17602
L19790 17617
" />
<path d="M19925 17302
L19610 17302
L19835 17197
L19610 17092
L19925 17092
" />
<path d="M19925 16942
L19610 16942
" />
<path d="M19760 16942
L19760 16762
" />
<path d="M19925 16762
L19610 16762
" />
<path d="M19715 16642
L19715 16477
L19925 16642
L19925 16477
" />
<path d="M20563 17354
L20713 17354
" />
<path d="M20398 17459
L20563 17354
L20398 17249
" />
<path d="M20713 16979
L20713 17159
" />
<path d="M20713 17069
L20398 17069
L20443 17099
L20473 17129
L20488 17159
" />
<path d="M16316 7044
L16211 7044
" />
<path d="M16211 7209
L16211 6894
L16361 6894
" />
<path d="M16436 6894
L16616 6894
" />
<path d="M16526 7209
L16526 6894
" />
<path d="M16706 6924
L16721 6909
L16751 6894
L16826 6894
L16856 6909
L16871 6924
L16886 6954
L16886 6984
L16871 7029
L16691 7209
L16886 7209
" />
<path d="M17155 6999
L17155 7209
" />
<path d="M17080 6879
L17005 7104
L17200 7104
" />
<path d="M17470 6894
L17320 6894
L17305 7044
L17320 7029
L17350 7014
L17425 7014
L17455 7029
L17470 7044
L17485 7074
L17485 7149
L17470 7179
L17455 7194
L17425 7209
L17350 7209
L17320 7194
L17305 7179
" />
<path d="M17800 7209
L17695 7059
" />
<path d="M17620 7209
L17620 6894
L17740 6894
L17770 6909
L17785 6924
L17800 6954
L17800 6999
L17785 7029
L17770 7044
L17740 7059
L17620 7059
" />
<path d="M18085 7209
L17935 7209
L17935 6894
" />
<path d="M16984 9158
L16984 9413
L16999 9443
L17014 9458
L17044 9473
L17104 9473
L17134 9458
L17149 9443
L17164 9413
L17164 9158
" />
<path d="M17284 9158
L17479 9158
L17374 9278
L17419 9278
L17449 9293
L17464 9308
L17479 9338
L17479 9413
L17464 9443
L17449 9458
L17419 9473
L17329 9473
L17299 9458
L17284 9443
" />
<path d="M34161 9276
L33982 9276
" />
<path d="M34071 9276
L34071 8961
L34041 9006
L34011 9036
L33982 9051
" />
<path d="M34296 9276
L34296 8961
L34401 9186
L34506 8961
L34506 9276
" />
<path d="M34836 7898
L34731 7748
" />
<path d="M34656 7898
L34656 7583
L34776 7583
L34806 7598
L34821 7613
L34836 7643
L34836 7688
L34821 7718
L34806 7733
L34776 7748
L34656 7748
" />
<path d="M35136 7898
L34956 7898
" />
<path d="M35046 7898
L35046 7583
L35016 7628
L34986 7658
L34956 7673
" />
<path d="M35331 7583
L35361 7583
L35391 7598
L35406 7613
L35421 7643
L35436 7703
L35436 7778
L35421 7838
L35406 7868
L35391 7883
L35361 7898
L35331 7898
L35301 7883
L35286 7868
L35271 7838
L35256 7778
L35256 7703
L35271 7643
L35286 7613
L35301 7598
L35331 7583
" />
<path d="M7307 18259
L7307 18064
L7427 18169
L7427 18124
L7442 18094
L7457 18079
L7487 18064
L7562 18064
L7592 18079
L7607 18094
L7622 18124
L7622 18214
L7607 18244
L7592 18259
" />
<path d="M7307 17959
L7307 17764
L7427 17869
L7427 17824
L7442 17794
L7457 17779
L7487 17764
L7562 17764
L7592 17779
L7607 17794
L7622 17824
L7622 17914
L7607 17944
L7592 17959
" />
<path d="M7307 17569
L7307 17539
L7322 17509
L7337 17494
L7367 17479
L7427 17464
L7502 17464
L7562 17479
L7592 17494
L7607 17509
L7622 17539
L7622 17569
L7607 17599
L7592 17614
L7562 17629
L7502 17644
L7427 17644
L7367 17629
L7337 17614
L7322 17599
L7307 17569
" />
<path d="M7622 17149
L7472 17254
" />
<path d="M7622 17329
L7307 17329
L7307 17209
L7322 17179
L7337 17164
L7367 17149
L7412 17149
L7442 17164
L7457 17179
L7472 17209
L7472 17329
" />
<path d="M8114 18536
L7964 18641
" />
<path d="M8114 18716
L7799 18716
L7799 18596
L7814 18566
L7829 18551
L7859 18536
L7904 18536
L7934 18551
L7949 18566
L7964 18596
L7964 18716
" />
<path d="M7799 18431
L7799 18221
L8114 18356
" />
<path d="M9374 18259
L9374 18064
L9494 18169
L9494 18124
L9509 18094
L9524 18079
L9554 18064
L9629 18064
L9659 18079
L9674 18094
L9689 18124
L9689 18214
L9674 18244
L9659 18259
" />
<path d="M9374 17959
L9374 17764
L9494 17869
L9494 17824
L9509 17794
L9524 17779
L9554 17764
L9629 17764
L9659 17779
L9674 17794
L9689 17824
L9689 17914
L9674 17944
L9659 17959
" />
<path d="M9374 17569
L9374 17539
L9389 17509
L9404 17494
L9434 17479
L9494 17464
L9569 17464
L9629 17479
L9659 17494
L9674 17509
L9689 17539
L9689 17569
L9674 17599
L9659 17614
L9629 17629
L9569 17644
L9494 17644
L9434 17629
L9404 17614
L9389 17599
L9374 17569
" />
<path d="M9689 17149
L9539 17254
" />
<path d="M9689 17329
L9374 17329
L9374 17209
L9389 17179
L9404 17164
L9434 17149
L9479 17149
L9509 17164
L9524 17179
L9539 17209
L9539 17329
" />
<path d="M9099 18536
L8949 18641
" />
<path d="M9099 18716
L8784 18716
L8784 18596
L8799 18566
L8814 18551
L8844 18536
L8889 18536
L8919 18551
L8934 18566
L8949 18596
L8949 18716
" />
<path d="M8784 18266
L8784 18326
L8799 18356
L8814 18371
L8859 18401
L8919 18416
L9039 18416
L9069 18401
L9084 18386
L9099 18356
L9099 18296
L9084 18266
L9069 18251
L9039 18236
L8964 18236
L8934 18251
L8919 18266
L8904 18296
L8904 18356
L8919 18386
L8934 18401
L8964 18416
" />
<path d="M20284 8488
L20104 8488
" />
<path d="M20194 8488
L20194 8173
L20164 8218
L20134 8248
L20104 8263
" />
<path d="M20479 8173
L20509 8173
L20539 8188
L20554 8203
L20569 8233
L20584 8293
L20584 8368
L20569 8428
L20554 8458
L20539 8473
L20509 8488
L20479 8488
L20449 8473
L20434 8458
L20419 8428
L20404 8368
L20404 8293
L20419 8233
L20434 8203
L20449 8188
L20479 8173
" />
<path d="M20719 8488
L20719 8173
" />
<path d="M20749 8368
L20839 8488
" />
<path d="M20839 8278
L20719 8398
" />
<path d="M20419 7504
L20314 7354
" />
<path d="M20239 7504
L20239 7189
L20359 7189
L20389 7204
L20404 7219
L20419 7249
L20419 7294
L20404 7324
L20389 7339
L20359 7354
L20239 7354
" />
<path d="M20704 7189
L20554 7189
L20539 7339
L20554 7324
L20584 7309
L20659 7309
L20689 7324
L20704 7339
L20719 7369
L20719 7444
L20704 7474
L20689 7489
L20659 7504
L20584 7504
L20554 7489
L20539 7474
" />
<path d="M21286 19709
L21106 19709
" />
<path d="M21196 19709
L21196 19394
L21166 19439
L21136 19469
L21106 19484
" />
<path d="M21481 19394
L21511 19394
L21541 19409
L21556 19424
L21571 19454
L21586 19514
L21586 19589
L21571 19649
L21556 19679
L21541 19694
L21511 19709
L21481 19709
L21451 19694
L21436 19679
L21421 19649
L21406 19589
L21406 19514
L21421 19454
L21436 19424
L21451 19409
L21481 19394
" />
<path d="M21781 19394
L21811 19394
L21841 19409
L21856 19424
L21871 19454
L21886 19514
L21886 19589
L21871 19649
L21856 19679
L21841 19694
L21811 19709
L21781 19709
L21751 19694
L21736 19679
L21721 19649
L21706 19589
L21706 19514
L21721 19454
L21736 19424
L21751 19409
L21781 19394
" />
<path d="M22200 19709
L22095 19559
" />
<path d="M22020 19709
L22020 19394
L22140 19394
L22170 19409
L22185 19424
L22200 19454
L22200 19499
L22185 19529
L22170 19544
L22140 19559
L22020 19559
" />
<path d="M20518 19217
L20413 19067
" />
<path d="M20338 19217
L20338 18902
L20458 18902
L20488 18917
L20503 18932
L20518 18962
L20518 19007
L20503 19037
L20488 19052
L20458 19067
L20338 19067
" />
<path d="M20788 19007
L20788 19217
" />
<path d="M20713 18887
L20638 19112
L20833 19112
" />
<path d="M21107 21919
L21107 22099
" />
<path d="M21107 22009
L20792 22009
L20837 22039
L20867 22069
L20882 22099
" />
<path d="M20792 21724
L20792 21694
L20807 21664
L20822 21649
L20852 21634
L20912 21619
L20987 21619
L21047 21634
L21077 21649
L21092 21664
L21107 21694
L21107 21724
L21092 21754
L21077 21769
L21047 21784
L20987 21799
L20912 21799
L20852 21784
L20822 21769
L20807 21754
L20792 21724
" />
<path d="M21107 21484
L20792 21484
" />
<path d="M20987 21454
L21107 21364
" />
<path d="M20897 21364
L21017 21484
" />
<path d="M20614 20898
L20464 21003
" />
<path d="M20614 21078
L20299 21078
L20299 20958
L20314 20928
L20329 20913
L20359 20898
L20404 20898
L20434 20913
L20449 20928
L20464 20958
L20464 21078
" />
<path d="M20299 20793
L20299 20598
L20419 20703
L20419 20658
L20434 20628
L20449 20613
L20479 20598
L20554 20598
L20584 20613
L20599 20628
L20614 20658
L20614 20748
L20599 20778
L20584 20793
" />
<path d="M11493 11795
L11508 11750
L11523 11735
L11553 11720
L11598 11720
L11628 11735
L11643 11750
L11658 11780
L11658 11900
L11343 11900
L11343 11795
L11358 11765
L11373 11750
L11403 11735
L11433 11735
L11463 11750
L11478 11765
L11493 11795
L11493 11900
" />
<path d="M11658 11435
L11658 11585
L11343 11585
" />
<path d="M11658 11330
L11343 11330
L11568 11225
L11343 11120
L11658 11120
" />
<path d="M11373 10985
L11358 10970
L11343 10940
L11343 10865
L11358 10835
L11373 10820
L11403 10805
L11433 10805
L11478 10820
L11658 11000
L11658 10805
" />
<path d="M11658 10505
L11658 10685
" />
<path d="M11658 10595
L11343 10595
L11388 10625
L11418 10655
L11433 10685
" />
<path d="M11658 10370
L11343 10370
L11343 10250
L11358 10220
L11373 10205
L11403 10190
L11448 10190
L11478 10205
L11493 10220
L11508 10250
L11508 10370
" />
<path d="M11358 9890
L11343 9920
L11343 9965
L11358 10010
L11388 10040
L11418 10055
L11478 10070
L11523 10070
L11583 10055
L11613 10040
L11643 10010
L11658 9965
L11658 9935
L11643 9890
L11628 9875
L11523 9875
L11523 9935
" />
<path d="M11343 9770
L11343 9575
L11463 9680
L11463 9635
L11478 9605
L11493 9590
L11523 9575
L11598 9575
L11628 9590
L11643 9605
L11658 9635
L11658 9725
L11643 9755
L11628 9770
" />
<path d="M11343 9380
L11343 9350
L11358 9320
L11373 9305
L11403 9290
L11463 9275
L11538 9275
L11598 9290
L11628 9305
L11643 9320
L11658 9350
L11658 9380
L11643 9410
L11628 9425
L11598 9440
L11538 9455
L11463 9455
L11403 9440
L11373 9425
L11358 9410
L11343 9380
" />
<path d="M11343 9080
L11343 9050
L11358 9020
L11373 9005
L11403 8990
L11463 8975
L11538 8975
L11598 8990
L11628 9005
L11643 9020
L11658 9050
L11658 9080
L11643 9110
L11628 9125
L11598 9140
L11538 9155
L11463 9155
L11403 9140
L11373 9125
L11358 9110
L11343 9080
" />
<path d="M11643 8855
L11658 8810
L11658 8735
L11643 8705
L11628 8690
L11598 8675
L11568 8675
L11538 8690
L11523 8705
L11508 8735
L11493 8795
L11478 8825
L11463 8840
L11433 8855
L11403 8855
L11373 8840
L11358 8825
L11343 8795
L11343 8720
L11358 8675
" />
<path d="M11658 8540
L11343 8540
L11658 8360
L11343 8360
" />
<path d="M11658 8045
L11658 8225
" />
<path d="M11658 8135
L11343 8135
L11388 8165
L11418 8195
L11433 8225
" />
<path d="M11658 7910
L11343 7910
L11343 7835
L11358 7790
L11388 7760
L11418 7745
L11478 7730
L11523 7730
L11583 7745
L11613 7760
L11643 7790
L11658 7835
L11658 7910
" />
<path d="M13038 8882
L12933 8732
" />
<path d="M12858 8882
L12858 8567
L12978 8567
L13008 8582
L13023 8597
L13038 8627
L13038 8672
L13023 8702
L13008 8717
L12978 8732
L12858 8732
" />
<path d="M13158 8597
L13173 8582
L13203 8567
L13278 8567
L13308 8582
L13323 8597
L13338 8627
L13338 8657
L13323 8702
L13143 8882
L13338 8882
" />
<path d="M8177 13410
L7997 13410
" />
<path d="M8087 13410
L8087 13095
L8057 13140
L8027 13170
L7997 13185
" />
<path d="M8312 13410
L8312 13095
L8417 13320
L8522 13095
L8522 13410
" />
<path d="M9002 13902
L8897 13752
" />
<path d="M8822 13902
L8822 13587
L8942 13587
L8972 13602
L8987 13617
L9002 13647
L9002 13692
L8987 13722
L8972 13737
L8942 13752
L8822 13752
" />
<path d="M9302 13902
L9122 13902
" />
<path d="M9212 13902
L9212 13587
L9182 13632
L9152 13662
L9122 13677
" />
<path d="M31647 9656
L31647 9866
" />
<path d="M31572 9536
L31497 9761
L31692 9761
" />
<path d="M31782 9551
L31992 9551
L31857 9866
" />
<path d="M32247 9656
L32247 9866
" />
<path d="M32112 9656
L32112 9821
L32127 9851
L32157 9866
L32202 9866
L32232 9851
L32247 9836
" />
<path d="M32622 9536
L32352 9941
" />
<path d="M32892 9866
L32712 9866
" />
<path d="M32802 9866
L32802 9551
L32772 9596
L32742 9626
L32712 9641
" />
<path d="M33087 9551
L33117 9551
L33147 9566
L33162 9581
L33177 9611
L33192 9671
L33192 9746
L33177 9806
L33162 9836
L33147 9851
L33117 9866
L33087 9866
L33057 9851
L33042 9836
L33027 9806
L33012 9746
L33012 9671
L33027 9611
L33042 9581
L33057 9566
L33087 9551
" />
<path d="M33282 9551
L33387 9866
L33492 9551
" />
<path d="M31096 9049
L31081 9064
L31036 9079
L31006 9079
L30961 9064
L30931 9034
L30916 9004
L30901 8944
L30901 8899
L30916 8839
L30931 8809
L30961 8779
L31006 8764
L31036 8764
L31081 8779
L31096 8794
" />
<path d="M31396 9079
L31216 9079
" />
<path d="M31306 9079
L31306 8764
L31276 8809
L31246 8839
L31216 8854
" />
<path d="M31501 8764
L31711 8764
L31576 9079
" />
<path d="M21903 13298
L21903 13508
" />
<path d="M21828 13178
L21753 13403
L21948 13403
" />
<path d="M22038 13193
L22248 13193
L22113 13508
" />
<path d="M22503 13298
L22503 13508
" />
<path d="M22368 13298
L22368 13463
L22383 13493
L22413 13508
L22458 13508
L22488 13493
L22503 13478
" />
<path d="M22878 13178
L22608 13583
" />
<path d="M23148 13508
L22968 13508
" />
<path d="M23058 13508
L23058 13193
L23028 13238
L22998 13268
L22968 13283
" />
<path d="M23343 13193
L23373 13193
L23403 13208
L23418 13223
L23433 13253
L23448 13313
L23448 13388
L23433 13448
L23418 13478
L23403 13493
L23373 13508
L23343 13508
L23313 13493
L23298 13478
L23283 13448
L23268 13388
L23268 13313
L23283 13253
L23298 13223
L23313 13208
L23343 13193
" />
<path d="M23538 13193
L23643 13508
L23748 13193
" />
<path d="M24305 12691
L24290 12706
L24245 12721
L24215 12721
L24170 12706
L24140 12676
L24125 12646
L24110 12586
L24110 12541
L24125 12481
L24140 12451
L24170 12421
L24215 12406
L24245 12406
L24290 12421
L24305 12436
" />
<path d="M24605 12721
L24425 12721
" />
<path d="M24515 12721
L24515 12406
L24485 12451
L24455 12481
L24425 12496
" />
<path d="M24725 12436
L24740 12421
L24770 12406
L24845 12406
L24875 12421
L24890 12436
L24905 12466
L24905 12496
L24890 12541
L24710 12721
L24905 12721
" />
<path d="M14059 6520
L13879 6520
" />
<path d="M13969 6520
L13969 6205
L13939 6250
L13909 6280
L13879 6295
" />
<path d="M14254 6205
L14284 6205
L14314 6220
L14329 6235
L14344 6265
L14359 6325
L14359 6400
L14344 6460
L14329 6490
L14314 6505
L14284 6520
L14254 6520
L14224 6505
L14209 6490
L14194 6460
L14179 6400
L14179 6325
L14194 6265
L14209 6235
L14224 6220
L14254 6205
" />
<path d="M14629 6310
L14629 6520
" />
<path d="M14494 6310
L14494 6475
L14509 6505
L14539 6520
L14584 6520
L14614 6505
L14629 6490
" />
<path d="M15004 6190
L14734 6595
" />
<path d="M15274 6520
L15094 6520
" />
<path d="M15184 6520
L15184 6205
L15154 6250
L15124 6280
L15094 6295
" />
<path d="M15469 6205
L15499 6205
L15529 6220
L15544 6235
L15559 6265
L15574 6325
L15574 6400
L15559 6460
L15544 6490
L15529 6505
L15499 6520
L15469 6520
L15439 6505
L15424 6490
L15409 6460
L15394 6400
L15394 6325
L15409 6265
L15424 6235
L15439 6220
L15469 6205
" />
<path d="M15664 6205
L15769 6520
L15874 6205
" />
<path d="M12888 5899
L12873 5914
L12828 5929
L12798 5929
L12753 5914
L12723 5884
L12708 5854
L12693 5794
L12693 5749
L12708 5689
L12723 5659
L12753 5629
L12798 5614
L12828 5614
L12873 5629
L12888 5644
" />
<path d="M13188 5929
L13008 5929
" />
<path d="M13098 5929
L13098 5614
L13068 5659
L13038 5689
L13008 5704
" />
<path d="M13383 5614
L13413 5614
L13443 5629
L13458 5644
L13473 5674
L13488 5734
L13488 5809
L13473 5869
L13458 5899
L13443 5914
L13413 5929
L13383 5929
L13353 5914
L13338 5899
L13323 5869
L13308 5809
L13308 5734
L13323 5674
L13338 5644
L13353 5629
L13383 5614
" />
<path d="M20119 11047
L19940 11047
" />
<path d="M20029 11047
L20029 10733
L19999 10778
L19970 10808
L19940 10823
" />
<path d="M20314 10733
L20344 10733
L20374 10748
L20389 10763
L20404 10793
L20419 10853
L20419 10928
L20404 10988
L20389 11017
L20374 11032
L20344 11047
L20314 11047
L20284 11032
L20269 11017
L20254 10988
L20239 10928
L20239 10853
L20254 10793
L20269 10763
L20284 10748
L20314 10733
" />
<path d="M20614 10733
L20644 10733
L20674 10748
L20689 10763
L20704 10793
L20719 10853
L20719 10928
L20704 10988
L20689 11017
L20674 11032
L20644 11047
L20614 11047
L20584 11032
L20569 11017
L20554 10988
L20539 10928
L20539 10853
L20554 10793
L20569 10763
L20584 10748
L20614 10733
" />
<path d="M20854 10838
L20854 11047
" />
<path d="M20854 10868
L20869 10853
L20899 10838
L20944 10838
L20974 10853
L20989 10883
L20989 11047
" />
<path d="M20419 10033
L20404 10048
L20359 10063
L20329 10063
L20284 10048
L20254 10018
L20239 9988
L20224 9928
L20224 9883
L20239 9823
L20254 9793
L20284 9763
L20329 9748
L20359 9748
L20404 9763
L20419 9778
" />
<path d="M20569 10063
L20629 10063
L20659 10048
L20674 10033
L20704 9988
L20719 9928
L20719 9808
L20704 9778
L20689 9763
L20659 9748
L20599 9748
L20569 9763
L20554 9778
L20539 9808
L20539 9883
L20554 9913
L20569 9928
L20599 9943
L20659 9943
L20689 9928
L20704 9913
L20719 9883
" />
<path d="M21074 18440
L21089 18425
L21119 18410
L21194 18410
L21224 18425
L21239 18440
L21254 18470
L21254 18500
L21239 18545
L21059 18725
L21254 18725
" />
<path d="M21374 18440
L21389 18425
L21419 18410
L21494 18410
L21524 18425
L21539 18440
L21554 18470
L21554 18500
L21539 18545
L21359 18725
L21554 18725
" />
<path d="M21689 18515
L21689 18830
" />
<path d="M21689 18530
L21719 18515
L21779 18515
L21809 18530
L21824 18545
L21839 18575
L21839 18665
L21824 18695
L21809 18710
L21779 18725
L21719 18725
L21689 18710
" />
<path d="M20518 18203
L20503 18218
L20458 18233
L20428 18233
L20383 18218
L20353 18188
L20338 18158
L20323 18098
L20323 18053
L20338 17993
L20353 17963
L20383 17933
L20428 17918
L20458 17918
L20503 17933
L20518 17948
" />
<path d="M20698 18053
L20668 18038
L20653 18023
L20638 17993
L20638 17978
L20653 17948
L20668 17933
L20698 17918
L20758 17918
L20788 17933
L20803 17948
L20818 17978
L20818 17993
L20803 18023
L20788 18038
L20758 18053
L20698 18053
L20668 18068
L20653 18083
L20638 18113
L20638 18173
L20653 18203
L20668 18218
L20698 18233
L20758 18233
L20788 18218
L20803 18203
L20818 18173
L20818 18113
L20803 18083
L20788 18068
L20758 18053
" />
<path d="M13820 11343
L13640 11343
" />
<path d="M13730 11343
L13730 11028
L13700 11073
L13670 11103
L13640 11118
" />
<path d="M14015 11028
L14045 11028
L14075 11043
L14090 11058
L14105 11088
L14120 11148
L14120 11223
L14105 11283
L14090 11313
L14075 11328
L14045 11343
L14015 11343
L13985 11328
L13970 11313
L13955 11283
L13940 11223
L13940 11148
L13955 11088
L13970 11058
L13985 11043
L14015 11028
" />
<path d="M14315 11028
L14345 11028
L14375 11043
L14390 11058
L14405 11088
L14420 11148
L14420 11223
L14405 11283
L14390 11313
L14375 11328
L14345 11343
L14315 11343
L14285 11328
L14270 11313
L14255 11283
L14240 11223
L14240 11148
L14255 11088
L14270 11058
L14285 11043
L14315 11028
" />
<path d="M14555 11133
L14555 11343
" />
<path d="M14555 11163
L14570 11148
L14600 11133
L14645 11133
L14675 11148
L14690 11178
L14690 11343
" />
<path d="M13038 10821
L13023 10836
L12978 10851
L12948 10851
L12903 10836
L12873 10806
L12858 10776
L12843 10716
L12843 10671
L12858 10611
L12873 10581
L12903 10551
L12948 10536
L12978 10536
L13023 10551
L13038 10566
" />
<path d="M13143 10536
L13353 10536
L13218 10851
" />
<path d="M21074 15684
L21089 15669
L21119 15654
L21194 15654
L21224 15669
L21239 15684
L21254 15714
L21254 15744
L21239 15789
L21059 15969
L21254 15969
" />
<path d="M21374 15684
L21389 15669
L21419 15654
L21494 15654
L21524 15669
L21539 15684
L21554 15714
L21554 15744
L21539 15789
L21359 15969
L21554 15969
" />
<path d="M21689 15759
L21689 16074
" />
<path d="M21689 15774
L21719 15759
L21779 15759
L21809 15774
L21824 15789
L21839 15819
L21839 15909
L21824 15939
L21809 15954
L21779 15969
L21719 15969
L21689 15954
" />
<path d="M20518 15447
L20503 15462
L20458 15477
L20428 15477
L20383 15462
L20353 15432
L20338 15402
L20323 15342
L20323 15297
L20338 15237
L20353 15207
L20383 15177
L20428 15162
L20458 15162
L20503 15177
L20518 15192
" />
<path d="M20788 15162
L20728 15162
L20698 15177
L20683 15192
L20653 15237
L20638 15297
L20638 15417
L20653 15447
L20668 15462
L20698 15477
L20758 15477
L20788 15462
L20803 15447
L20818 15417
L20818 15342
L20803 15312
L20788 15297
L20758 15282
L20698 15282
L20668 15297
L20653 15312
L20638 15342
" />
<path d="M22091 22183
L22091 22363
" />
<path d="M22091 22273
L21776 22273
L21821 22303
L21851 22333
L21866 22363
" />
<path d="M21776 21988
L21776 21958
L21791 21928
L21806 21913
L21836 21898
L21896 21883
L21971 21883
L22031 21898
L22061 21913
L22076 21928
L22091 21958
L22091 21988
L22076 22018
L22061 22033
L22031 22048
L21971 22063
L21896 22063
L21836 22048
L21806 22033
L21791 22018
L21776 21988
" />
<path d="M21776 21688
L21776 21658
L21791 21628
L21806 21613
L21836 21598
L21896 21583
L21971 21583
L22031 21598
L22061 21613
L22076 21628
L22091 21658
L22091 21688
L22076 21718
L22061 21733
L22031 21748
L21971 21763
L21896 21763
L21836 21748
L21806 21733
L21791 21718
L21776 21688
" />
<path d="M21881 21448
L22091 21448
" />
<path d="M21911 21448
L21896 21433
L21881 21403
L21881 21358
L21896 21328
L21926 21313
L22091 21313
" />
<path d="M21569 20898
L21584 20913
L21599 20958
L21599 20988
L21584 21033
L21554 21063
L21524 21078
L21464 21093
L21419 21093
L21359 21078
L21329 21063
L21299 21033
L21284 20988
L21284 20958
L21299 20913
L21314 20898
" />
<path d="M21284 20613
L21284 20763
L21434 20778
L21419 20763
L21404 20733
L21404 20658
L21419 20628
L21434 20613
L21464 20598
L21539 20598
L21569 20613
L21584 20628
L21599 20658
L21599 20733
L21584 20763
L21569 20778
" />
<path d="M10614 16067
L10434 16067
" />
<path d="M10524 16067
L10524 15752
L10494 15797
L10464 15827
L10434 15842
" />
<path d="M10809 15752
L10839 15752
L10869 15767
L10884 15782
L10899 15812
L10914 15872
L10914 15947
L10899 16007
L10884 16037
L10869 16052
L10839 16067
L10809 16067
L10779 16052
L10764 16037
L10749 16007
L10734 15947
L10734 15872
L10749 15812
L10764 15782
L10779 15767
L10809 15752
" />
<path d="M11184 15857
L11184 16067
" />
<path d="M11049 15857
L11049 16022
L11064 16052
L11094 16067
L11139 16067
L11169 16052
L11184 16037
" />
<path d="M11559 15737
L11289 16142
" />
<path d="M11829 16067
L11649 16067
" />
<path d="M11739 16067
L11739 15752
L11709 15797
L11679 15827
L11649 15842
" />
<path d="M12024 15752
L12054 15752
L12084 15767
L12099 15782
L12114 15812
L12129 15872
L12129 15947
L12114 16007
L12099 16037
L12084 16052
L12054 16067
L12024 16067
L11994 16052
L11979 16037
L11964 16007
L11949 15947
L11949 15872
L11964 15812
L11979 15782
L11994 15767
L12024 15752
" />
<path d="M12219 15752
L12324 16067
L12429 15752
" />
<path d="M13136 15447
L13121 15462
L13076 15477
L13046 15477
L13001 15462
L12971 15432
L12956 15402
L12941 15342
L12941 15297
L12956 15237
L12971 15207
L13001 15177
L13046 15162
L13076 15162
L13121 15177
L13136 15192
" />
<path d="M13406 15267
L13406 15477
" />
<path d="M13331 15147
L13256 15372
L13451 15372
" />
<path d="M13773 10359
L13593 10359
" />
<path d="M13683 10359
L13683 10044
L13653 10089
L13623 10119
L13593 10134
" />
<path d="M13968 10044
L13998 10044
L14028 10059
L14043 10074
L14058 10104
L14073 10164
L14073 10239
L14058 10299
L14043 10329
L14028 10344
L13998 10359
L13968 10359
L13938 10344
L13923 10329
L13908 10299
L13893 10239
L13893 10164
L13908 10104
L13923 10074
L13938 10059
L13968 10044
" />
<path d="M14208 10149
L14208 10359
" />
<path d="M14208 10179
L14223 10164
L14253 10149
L14298 10149
L14328 10164
L14343 10194
L14343 10359
" />
<path d="M13038 9836
L13023 9851
L12978 9866
L12948 9866
L12903 9851
L12873 9821
L12858 9791
L12843 9731
L12843 9686
L12858 9626
L12873 9596
L12903 9566
L12948 9551
L12978 9551
L13023 9566
L13038 9581
" />
<path d="M13143 9551
L13338 9551
L13233 9671
L13278 9671
L13308 9686
L13323 9701
L13338 9731
L13338 9806
L13323 9836
L13308 9851
L13278 9866
L13188 9866
L13158 9851
L13143 9836
" />
<path d="M11753 17150
L11573 17150
" />
<path d="M11663 17150
L11663 16835
L11633 16880
L11603 16910
L11573 16925
" />
<path d="M11948 16835
L11978 16835
L12008 16850
L12023 16865
L12038 16895
L12053 16955
L12053 17030
L12038 17090
L12023 17120
L12008 17135
L11978 17150
L11948 17150
L11918 17135
L11903 17120
L11888 17090
L11873 17030
L11873 16955
L11888 16895
L11903 16865
L11918 16850
L11948 16835
" />
<path d="M12248 16835
L12278 16835
L12308 16850
L12323 16865
L12338 16895
L12353 16955
L12353 17030
L12338 17090
L12323 17120
L12308 17135
L12278 17150
L12248 17150
L12218 17135
L12203 17120
L12188 17090
L12173 17030
L12173 16955
L12188 16895
L12203 16865
L12218 16850
L12248 16835
" />
<path d="M12488 16940
L12488 17150
" />
<path d="M12488 16970
L12503 16955
L12533 16940
L12578 16940
L12608 16955
L12623 16985
L12623 17150
" />
<path d="M13136 16628
L13121 16643
L13076 16658
L13046 16658
L13001 16643
L12971 16613
L12956 16583
L12941 16523
L12941 16478
L12956 16418
L12971 16388
L13001 16358
L13046 16343
L13076 16343
L13121 16358
L13136 16373
" />
<path d="M13256 16373
L13271 16358
L13301 16343
L13376 16343
L13406 16358
L13421 16373
L13436 16403
L13436 16433
L13421 16478
L13241 16658
L13436 16658
" />
<path d="M8215 12425
L8035 12425
" />
<path d="M8125 12425
L8125 12110
L8095 12155
L8065 12185
L8035 12200
" />
<path d="M8350 12215
L8350 12425
" />
<path d="M8350 12245
L8365 12230
L8395 12215
L8440 12215
L8470 12230
L8485 12260
L8485 12425
" />
<path d="M9101 11903
L9086 11918
L9041 11933
L9011 11933
L8966 11918
L8936 11888
L8921 11858
L8906 11798
L8906 11753
L8921 11693
L8936 11663
L8966 11633
L9011 11618
L9041 11618
L9086 11633
L9101 11648
" />
<path d="M9401 11933
L9221 11933
" />
<path d="M9311 11933
L9311 11618
L9281 11663
L9251 11693
L9221 11708
" />
<path d="M26911 14000
L26731 14000
" />
<path d="M26821 14000
L26821 13685
L26791 13730
L26761 13760
L26731 13775
" />
<path d="M27106 13685
L27136 13685
L27166 13700
L27181 13715
L27196 13745
L27211 13805
L27211 13880
L27196 13940
L27181 13970
L27166 13985
L27136 14000
L27106 14000
L27076 13985
L27061 13970
L27046 13940
L27031 13880
L27031 13805
L27046 13745
L27061 13715
L27076 13700
L27106 13685
" />
<path d="M27406 13685
L27436 13685
L27466 13700
L27481 13715
L27496 13745
L27511 13805
L27511 13880
L27496 13940
L27481 13970
L27466 13985
L27436 14000
L27406 14000
L27376 13985
L27361 13970
L27346 13940
L27331 13880
L27331 13805
L27346 13745
L27361 13715
L27376 13700
L27406 13685
" />
<path d="M27646 13790
L27646 14000
" />
<path d="M27646 13820
L27661 13805
L27691 13790
L27736 13790
L27766 13805
L27781 13835
L27781 14000
" />
<path d="M26962 12986
L26947 13001
L26902 13016
L26872 13016
L26827 13001
L26797 12971
L26782 12941
L26767 12881
L26767 12836
L26782 12776
L26797 12746
L26827 12716
L26872 12701
L26902 12701
L26947 12716
L26962 12731
" />
<path d="M27262 13016
L27082 13016
" />
<path d="M27172 13016
L27172 12701
L27142 12746
L27112 12776
L27082 12791
" />
<path d="M27562 13016
L27382 13016
" />
<path d="M27472 13016
L27472 12701
L27442 12746
L27412 12776
L27382 12791
" />
<path d="M23072 14886
L22892 14886
" />
<path d="M22982 14886
L22982 14571
L22952 14616
L22922 14646
L22892 14661
" />
<path d="M23267 14571
L23297 14571
L23327 14586
L23342 14601
L23357 14631
L23372 14691
L23372 14766
L23357 14826
L23342 14856
L23327 14871
L23297 14886
L23267 14886
L23237 14871
L23222 14856
L23207 14826
L23192 14766
L23192 14691
L23207 14631
L23222 14601
L23237 14586
L23267 14571
" />
<path d="M23567 14571
L23597 14571
L23627 14586
L23642 14601
L23657 14631
L23672 14691
L23672 14766
L23657 14826
L23642 14856
L23627 14871
L23597 14886
L23567 14886
L23537 14871
L23522 14856
L23507 14826
L23492 14766
L23492 14691
L23507 14631
L23522 14601
L23537 14586
L23567 14571
" />
<path d="M23807 14676
L23807 14886
" />
<path d="M23807 14706
L23822 14691
L23852 14676
L23897 14676
L23927 14691
L23942 14721
L23942 14886
" />
<path d="M24305 14364
L24290 14379
L24245 14394
L24215 14394
L24170 14379
L24140 14349
L24125 14319
L24110 14259
L24110 14214
L24125 14154
L24140 14124
L24170 14094
L24215 14079
L24245 14079
L24290 14094
L24305 14109
" />
<path d="M24605 14394
L24425 14394
" />
<path d="M24515 14394
L24515 14079
L24485 14124
L24455 14154
L24425 14169
" />
<path d="M24710 14079
L24905 14079
L24800 14199
L24845 14199
L24875 14214
L24890 14229
L24905 14259
L24905 14334
L24890 14364
L24875 14379
L24845 14394
L24755 14394
L24725 14379
L24710 14364
" />
<path d="M31242 14788
L31062 14788
" />
<path d="M31152 14788
L31152 14473
L31122 14518
L31092 14548
L31062 14563
" />
<path d="M31437 14473
L31467 14473
L31497 14488
L31511 14503
L31526 14533
L31541 14593
L31541 14668
L31526 14728
L31511 14758
L31497 14773
L31467 14788
L31437 14788
L31407 14773
L31392 14758
L31377 14728
L31362 14668
L31362 14593
L31377 14533
L31392 14503
L31407 14488
L31437 14473
" />
<path d="M31736 14473
L31766 14473
L31796 14488
L31811 14503
L31826 14533
L31841 14593
L31841 14668
L31826 14728
L31811 14758
L31796 14773
L31766 14788
L31736 14788
L31706 14773
L31691 14758
L31676 14728
L31661 14668
L31661 14593
L31676 14533
L31691 14503
L31706 14488
L31736 14473
" />
<path d="M31976 14578
L31976 14788
" />
<path d="M31976 14608
L31991 14593
L32021 14578
L32066 14578
L32096 14593
L32111 14623
L32111 14788
" />
<path d="M31392 13773
L31377 13788
L31332 13803
L31302 13803
L31257 13788
L31227 13758
L31212 13728
L31197 13668
L31197 13623
L31212 13563
L31227 13533
L31257 13503
L31302 13488
L31332 13488
L31377 13503
L31392 13518
" />
<path d="M31691 13803
L31511 13803
" />
<path d="M31601 13803
L31601 13488
L31571 13533
L31541 13563
L31511 13578
" />
<path d="M31976 13488
L31826 13488
L31811 13638
L31826 13623
L31856 13608
L31931 13608
L31961 13623
L31976 13638
L31991 13668
L31991 13743
L31976 13773
L31961 13788
L31931 13803
L31856 13803
L31826 13788
L31811 13773
" />
<path d="M32127 8292
L31947 8292
" />
<path d="M32037 8292
L32037 7977
L32007 8022
L31977 8052
L31947 8067
" />
<path d="M32322 7977
L32352 7977
L32382 7992
L32397 8007
L32412 8037
L32427 8097
L32427 8172
L32412 8232
L32397 8262
L32382 8277
L32352 8292
L32322 8292
L32292 8277
L32277 8262
L32262 8232
L32247 8172
L32247 8097
L32262 8037
L32277 8007
L32292 7992
L32322 7977
" />
<path d="M32622 7977
L32652 7977
L32682 7992
L32697 8007
L32712 8037
L32727 8097
L32727 8172
L32712 8232
L32697 8262
L32682 8277
L32652 8292
L32622 8292
L32592 8277
L32577 8262
L32562 8232
L32547 8172
L32547 8097
L32562 8037
L32577 8007
L32592 7992
L32622 7977
" />
<path d="M32862 8082
L32862 8292
" />
<path d="M32862 8112
L32877 8097
L32907 8082
L32952 8082
L32982 8097
L32997 8127
L32997 8292
" />
<path d="M32277 7277
L32262 7292
L32217 7307
L32187 7307
L32142 7292
L32112 7262
L32097 7232
L32082 7172
L32082 7127
L32097 7067
L32112 7037
L32142 7007
L32187 6992
L32217 6992
L32262 7007
L32277 7022
" />
<path d="M32577 7307
L32397 7307
" />
<path d="M32487 7307
L32487 6992
L32457 7037
L32427 7067
L32397 7082
" />
<path d="M32847 6992
L32787 6992
L32757 7007
L32742 7022
L32712 7067
L32697 7127
L32697 7247
L32712 7277
L32727 7292
L32757 7307
L32817 7307
L32847 7292
L32862 7277
L32877 7247
L32877 7172
L32862 7142
L32847 7127
L32817 7112
L32757 7112
L32727 7127
L32712 7142
L32697 7172
" />
<path d="M33510 21185
L33330 21185
" />
<path d="M33420 21185
L33420 20870
L33390 20915
L33360 20945
L33330 20960
" />
<path d="M33645 20975
L33645 21185
" />
<path d="M33645 21005
L33660 20990
L33690 20975
L33735 20975
L33765 20990
L33780 21020
L33780 21185
" />
<path d="M33360 20171
L33345 20186
L33300 20201
L33270 20201
L33225 20186
L33195 20156
L33180 20126
L33165 20066
L33165 20021
L33180 19961
L33195 19931
L33225 19901
L33270 19886
L33300 19886
L33345 19901
L33360 19916
" />
<path d="M33660 20201
L33480 20201
" />
<path d="M33570 20201
L33570 19886
L33540 19931
L33510 19961
L33480 19976
" />
<path d="M33840 20021
L33810 20006
L33795 19991
L33780 19961
L33780 19946
L33795 19916
L33810 19901
L33840 19886
L33900 19886
L33930 19901
L33945 19916
L33960 19946
L33960 19961
L33945 19991
L33930 20006
L33900 20021
L33840 20021
L33810 20036
L33795 20051
L33780 20081
L33780 20141
L33795 20171
L33810 20186
L33840 20201
L33900 20201
L33930 20186
L33945 20171
L33960 20141
L33960 20081
L33945 20051
L33930 20036
L33900 20021
" />
<path d="M34199 8390
L34019 8390
" />
<path d="M34109 8390
L34109 8075
L34079 8120
L34049 8150
L34019 8165
" />
<path d="M34334 8180
L34334 8390
" />
<path d="M34334 8210
L34349 8195
L34379 8180
L34424 8180
L34454 8195
L34469 8225
L34469 8390
" />
<path d="M34836 9836
L34821 9851
L34776 9866
L34746 9866
L34701 9851
L34671 9821
L34656 9791
L34641 9731
L34641 9686
L34656 9626
L34671 9596
L34701 9566
L34746 9551
L34776 9551
L34821 9566
L34836 9581
" />
<path d="M35136 9866
L34956 9866
" />
<path d="M35046 9866
L35046 9551
L35016 9596
L34986 9626
L34956 9641
" />
<path d="M35286 9866
L35346 9866
L35376 9851
L35391 9836
L35421 9791
L35436 9731
L35436 9611
L35421 9581
L35406 9566
L35376 9551
L35316 9551
L35286 9566
L35271 9581
L35256 9611
L35256 9686
L35271 9716
L35286 9731
L35316 9746
L35376 9746
L35406 9731
L35421 9716
L35436 9686
" />
<path d="M30587 16806
L30587 16701
" />
<path d="M30752 16656
L30752 16806
L30437 16806
L30437 16656
" />
<path d="M30737 16536
L30752 16491
L30752 16416
L30737 16386
L30722 16371
L30692 16356
L30662 16356
L30632 16371
L30617 16386
L30602 16416
L30587 16476
L30572 16506
L30557 16521
L30527 16536
L30497 16536
L30467 16521
L30452 16506
L30437 16476
L30437 16401
L30452 16356
" />
<path d="M30752 16221
L30437 16221
L30437 16146
L30452 16101
L30482 16071
L30512 16056
L30572 16041
L30617 16041
L30677 16056
L30707 16071
L30737 16101
L30752 16146
L30752 16221
" />
<path d="M30467 15921
L30452 15906
L30437 15876
L30437 15801
L30452 15771
L30467 15756
L30497 15741
L30527 15741
L30572 15756
L30752 15936
L30752 15741
" />
<path d="M30542 15471
L30752 15471
" />
<path d="M30422 15546
L30647 15621
L30647 15426
" />
<path d="M30437 15351
L30752 15246
L30437 15141
" />
<path d="M30737 15051
L30752 15006
L30752 14931
L30737 14901
L30722 14886
L30692 14871
L30662 14871
L30632 14886
L30617 14901
L30602 14931
L30587 14991
L30572 15021
L30557 15036
L30527 15051
L30497 15051
L30467 15036
L30452 15021
L30437 14991
L30437 14916
L30452 14871
" />
<path d="M30467 14751
L30452 14736
L30437 14706
L30437 14631
L30452 14601
L30467 14586
L30497 14571
L30527 14571
L30572 14586
L30752 14766
L30752 14571
" />
<path d="M30437 14436
L30692 14436
L30722 14421
L30737 14406
L30752 14376
L30752 14316
L30737 14286
L30722 14271
L30692 14256
L30437 14256
" />
<path d="M31736 15665
L31422 15665
L31422 15590
L31437 15545
L31467 15515
L31497 15500
L31556 15485
L31601 15485
L31661 15500
L31691 15515
L31721 15545
L31736 15590
L31736 15665
" />
<path d="M31452 15365
L31437 15350
L31422 15320
L31422 15245
L31437 15215
L31452 15200
L31482 15185
L31511 15185
L31556 15200
L31736 15380
L31736 15185
" />
<path d="M32162 18381
L32162 18276
" />
<path d="M32327 18231
L32327 18381
L32012 18381
L32012 18231
" />
<path d="M32312 18111
L32327 18066
L32327 17991
L32312 17961
L32297 17946
L32267 17931
L32237 17931
L32207 17946
L32192 17961
L32177 17991
L32162 18051
L32147 18081
L32132 18096
L32102 18111
L32072 18111
L32042 18096
L32027 18081
L32012 18051
L32012 17976
L32027 17931
" />
<path d="M32327 17796
L32012 17796
L32012 17721
L32027 17676
L32057 17646
L32087 17631
L32147 17616
L32192 17616
L32252 17631
L32282 17646
L32312 17676
L32327 17721
L32327 17796
" />
<path d="M32042 17496
L32027 17481
L32012 17451
L32012 17376
L32027 17346
L32042 17331
L32072 17316
L32102 17316
L32147 17331
L32327 17511
L32327 17316
" />
<path d="M32117 17046
L32327 17046
" />
<path d="M31997 17121
L32222 17196
L32222 17001
" />
<path d="M32012 16926
L32327 16821
L32012 16716
" />
<path d="M32312 16626
L32327 16581
L32327 16506
L32312 16476
L32297 16461
L32267 16446
L32237 16446
L32207 16461
L32192 16476
L32177 16506
L32162 16566
L32147 16596
L32132 16611
L32102 16626
L32072 16626
L32042 16611
L32027 16596
L32012 16566
L32012 16491
L32027 16446
" />
<path d="M32042 16326
L32027 16311
L32012 16281
L32012 16206
L32027 16176
L32042 16161
L32072 16146
L32102 16146
L32147 16161
L32327 16341
L32327 16146
" />
<path d="M32012 16011
L32267 16011
L32297 15996
L32312 15981
L32327 15951
L32327 15891
L32312 15861
L32297 15846
L32267 15831
L32012 15831
" />
<path d="M31736 17338
L31422 17338
L31422 17263
L31437 17218
L31467 17188
L31497 17173
L31556 17158
L31601 17158
L31661 17173
L31691 17188
L31721 17218
L31736 17263
L31736 17338
" />
<path d="M31422 17053
L31422 16858
L31541 16963
L31541 16918
L31556 16888
L31571 16873
L31601 16858
L31676 16858
L31706 16873
L31721 16888
L31736 16918
L31736 17008
L31721 17038
L31706 17053
" />
<path d="M11751 6796
L11751 7050
L11766 7080
L11781 7095
L11811 7110
L11871 7110
L11901 7095
L11916 7080
L11931 7050
L11931 6796
" />
<path d="M12065 7095
L12110 7110
L12185 7110
L12215 7095
L12230 7080
L12245 7050
L12245 7020
L12230 6991
L12215 6976
L12185 6961
L12125 6946
L12095 6931
L12080 6916
L12065 6886
L12065 6856
L12080 6826
L12095 6811
L12125 6796
L12200 6796
L12245 6811
" />
<path d="M12485 6946
L12530 6961
L12545 6976
L12560 7005
L12560 7050
L12545 7080
L12530 7095
L12500 7110
L12380 7110
L12380 6796
L12485 6796
L12515 6811
L12530 6826
L12545 6856
L12545 6886
L12530 6916
L12515 6931
L12485 6946
L12380 6946
" />
<path d="M12845 7110
L12695 7110
L12695 6796
" />
<path d="M13130 7080
L13115 7095
L13070 7110
L13040 7110
L12995 7095
L12965 7065
L12950 7035
L12935 6976
L12935 6931
L12950 6871
L12965 6841
L12995 6811
L13040 6796
L13070 6796
L13115 6811
L13130 6826
" />
<path d="M13400 6796
L13340 6796
L13310 6811
L13295 6826
L13265 6871
L13250 6931
L13250 7050
L13265 7080
L13280 7095
L13310 7110
L13370 7110
L13400 7095
L13415 7080
L13430 7050
L13430 6976
L13415 6946
L13400 6931
L13370 6916
L13310 6916
L13280 6931
L13265 6946
L13250 6976
" />
<path d="M13565 6991
L13805 6991
" />
<path d="M13940 6826
L13955 6811
L13985 6796
L14060 6796
L14090 6811
L14105 6826
L14120 6856
L14120 6886
L14105 6931
L13925 7110
L14120 7110
" />
<path d="M14240 7095
L14285 7110
L14360 7110
L14390 7095
L14405 7080
L14420 7050
L14420 7020
L14405 6991
L14390 6976
L14360 6961
L14300 6946
L14270 6931
L14255 6916
L14240 6886
L14240 6856
L14255 6826
L14270 6811
L14300 6796
L14375 6796
L14420 6811
" />
<path d="M14735 7080
L14720 7095
L14675 7110
L14645 7110
L14600 7095
L14570 7065
L14555 7035
L14540 6976
L14540 6931
L14555 6871
L14570 6841
L14600 6811
L14645 6796
L14675 6796
L14720 6811
L14735 6826
" />
<path d="M15005 6796
L14945 6796
L14915 6811
L14900 6826
L14870 6871
L14855 6931
L14855 7050
L14870 7080
L14885 7095
L14915 7110
L14975 7110
L15005 7095
L15020 7080
L15035 7050
L15035 6976
L15020 6946
L15005 6931
L14975 6916
L14915 6916
L14885 6931
L14870 6946
L14855 6976
" />
<path d="M12918 8094
L13173 8094
L13203 8079
L13218 8064
L13233 8034
L13233 7974
L13218 7944
L13203 7929
L13173 7914
L12918 7914
" />
<path d="M13233 7599
L13233 7779
" />
<path d="M13233 7689
L12918 7689
L12963 7719
L12993 7749
L13008 7779
" />
</g>
<g style="fill:#C2C200; fill-opacity:0.0; 
stroke:#C2C200; stroke-width:59.0551; stroke-opacity:1; 
stroke-linecap:round; stroke-linejoin:round;">
<path d="M11118 10728
L4720 10728
" />
<path d="M4720 10728
L4720 6003
" />
<path d="M11118 10728
L11118 6003
" />
<path d="M11118 6003
L4720 6003
" />
<path d="M17874 19409
L16181 19409
" />
<path d="M16181 19409
L16181 15393
" />
<path d="M16181 15393
L18267 15393
" />
<path d="M18267 15393
L18267 19015
" />
<path d="M18267 19015
L17874 19409
" />
</g>
<g style="fill:#C2C200; fill-opacity:0.0; 
stroke:#C2C200; stroke-width:39.3701; stroke-opacity:1; 
stroke-linecap:round; stroke-linejoin:round;">
<path d="M19724 21875
L19724 22625
" />
<path d="M19724 22625
L14724 22625
" />
<path d="M14724 22625
L14724 21625
" />
<path d="M14724 21625
L19474 21625
" />
<path d="M19474 21625
L19724 21875
" />
<path d="M18208 20307
L18208 20795
" />
<path d="M17421 20307
L18208 20307
" />
<path d="M17421 20795
L17421 20307
" />
<path d="M18208 20795
L17421 20795
" />
<path d="M27194 14220
L29301 14220
" />
<path d="M29301 14220
L29301 18220
" />
<path d="M29301 18220
L26801 18220
" />
<path d="M26801 18220
L26801 14614
" />
<path d="M26801 14614
L27194 14220
" />
</g>
<g style="fill:#C2C200; fill-opacity:0.0; 
stroke:#C2C200; stroke-width:59.0551; stroke-opacity:1; 
stroke-linecap:round; stroke-linejoin:round;">
<path d="M25692 11023
L25692 8346
" />
<path d="M30417 11023
L25692 11023
" />
<path d="M30417 8346
L30417 11023
" />
<path d="M25692 8346
L30417 8346
" />
<circle cx="25968.5" cy="10748" r="141.951" /> 
</g>
<g style="fill:#C2C200; fill-opacity:0.0; 
stroke:#C2C200; stroke-width:196.85; stroke-opacity:1; 
stroke-linecap:round; stroke-linejoin:round;">
<path d="M26559 11889
L26559 11161
" />
</g>
<g style="fill:#C2C200; fill-opacity:0.0; 
stroke:#C2C200; stroke-width:59.0551; stroke-opacity:1; 
stroke-linecap:round; stroke-linejoin:round;">
<path d="M25559 11161
L30559 11161
" />
<path d="M25559 11161
L25559 8208
" />
<path d="M30559 11161
L30559 8208
" />
<path d="M25559 8208
L30559 8208
" />
</g>
<g style="fill:#C2C200; fill-opacity:0.0; 
stroke:#C2C200; stroke-width:196.85; stroke-opacity:1; 
stroke-linecap:round; stroke-linejoin:round;">
<path d="M27559 11889
L27559 11161
" />
<path d="M28559 11889
L28559 11161
" />
<path d="M29559 11889
L29559 11161
" />
<path d="M29559 8208
L29559 7480
" />
<path d="M28559 8208
L28559 7480
" />
<path d="M27559 8208
L27559 7480
" />
<path d="M26559 8208
L26559 7480
" />
</g>
<g style="fill:#C2C200; fill-opacity:0.0; 
stroke:#C2C200; stroke-width:39.3701; stroke-opacity:1; 
stroke-linecap:round; stroke-linejoin:round;">
<circle cx="34744.1" cy="17204.7" r="162.327" /> 
<path d="M32972 17618
L32775 17224
" />
<path d="M32775 17224
L32775 15216
" />
<path d="M32972 14822
L34940 14822
" />
<path d="M35137 15216
L35137 17224
" />
<path d="M34940 17618
L32972 17618
" />
<path d="M35137 15216
L34940 14822
" />
<path d="M34940 17618
L35137 17224
" />
<path d="M32775 15216
L32972 14822
" />
</g>
<g style="fill:#C2C200; fill-opacity:0.0; 
stroke:#C2C200; stroke-width:59.0551; stroke-opacity:1; 
stroke-linecap:round; stroke-linejoin:round;">
<path d="M8937 20350
L6811 20350
" />
<path d="M8937 19350
L6811 19350
" />
</g>
<g style="fill:#C2C200; fill-opacity:0.0; 
stroke:#C2C200; stroke-width:39.3701; stroke-opacity:1; 
stroke-linecap:round; stroke-linejoin:round;">
<path d="M5295.28 19259.8 A590.551 590.551 0.0 0 0 5295.28 20440.9 " />
<path d="M6791 19259
L5295 19259
" />
<path d="M6791 20440
L5295 20440
" />
<path d="M6791 19259
L6791 20440
" />
<path d="M6791 20598
L6397 20598
" />
<path d="M6397 20598
L6397 20440
" />
<path d="M6397 20440
L6791 20440
" />
<path d="M6791 20440
L6791 20598
" />
<path d="M6791 19350
L6791 19350
" />
<path d="M6791 20350
L6791 20350
" />
<path d="M9488 19000
L5937 19000
" />
<path d="M5937 19000
L5937 20700
" />
<path d="M5937 20700
L9488 20700
" />
<path d="M9488 20700
L9488 19000
" />
<path d="M36062 20236
L36062 20866
" />
<path d="M34803 20236
L36062 20236
" />
<path d="M34803 20866
L34803 20236
" />
<path d="M36062 20866
L34803 20866
" />
<path d="M36062 19055
L36062 19685
" />
<path d="M34803 19055
L36062 19055
" />
<path d="M34803 19685
L34803 19055
" />
<path d="M36062 19685
L34803 19685
" />
<path d="M40783 21240
L36925 21240
" />
<path d="M36925 21240
L36925 18625
" />
<path d="M36925 18625
L41177 18625
" />
<path d="M41177 18625
L41177 20846
" />
<path d="M41177 20846
L40783 21240
" />
<path d="M41177 20728
L41177 20137
" />
<path d="M41177 20137
L41885 20137
" />
<path d="M41885 20137
L41885 20728
" />
<path d="M41885 20728
L41177 20728
" />
<path d="M41177 19728
L41177 19137
" />
<path d="M41177 19137
L41885 19137
" />
<path d="M41885 19137
L41885 19728
" />
<path d="M41885 19728
L41177 19728
" />
<path d="M37448.8 15614.2 A629.921 629.921 0.0 0 0 37448.8 16874 " />
<path d="M37448.8 5771.65 A629.921 629.921 0.0 0 0 37448.8 7031.5 " />
<path d="M36181 17395
L41039 17395
" />
<path d="M41039 17395
L41039 5250
" />
<path d="M41039 5250
L36181 5250
" />
<path d="M36181 5250
L36181 17395
" />
<path d="M41039 17395
L41196 17395
" />
<path d="M41196 17395
L41196 5250
" />
<path d="M41196 5250
L41039 5250
" />
<path d="M41039 5250
L41039 17395
" />
<path d="M41196 14531
L43559 14531
" />
<path d="M43559 14531
L43559 8114
" />
<path d="M43559 8114
L41196 8114
" />
<path d="M41196 8114
L41196 14531
" />
<path d="M41196 17228
L43165 17228
" />
<path d="M43165 17228
L43165 15259
" />
<path d="M43165 15259
L41196 15259
" />
<path d="M41196 15259
L41196 17228
" />
<path d="M41196 7385
L43165 7385
" />
<path d="M43165 7385
L43165 5417
" />
<path d="M43165 5417
L41196 5417
" />
<path d="M41196 5417
L41196 7385
" />
<path d="M41039 16874
L37448 16874
" />
<path d="M41039 15614
L37448 15614
" />
<path d="M41039 7031
L37448 7031
" />
<path d="M41039 5771
L37448 5771
" />
<path d="M21062 16574
L20078 16574
" />
<path d="M20078 16574
L20078 17834
" />
<path d="M20078 17834
L21062 17834
" />
<path d="M21062 17834
L21062 16574
" />
<path d="M20472 16574
L20078 16968
" />
</g>
<g style="fill:#C2C200; fill-opacity:0.0; 
stroke:#C2C200; stroke-width:59.0551; stroke-opacity:1; 
stroke-linecap:round; stroke-linejoin:round;">
<path d="M17874 11338
L16181 11338
" />
<path d="M16181 11338
L16181 7322
" />
<path d="M16181 7322
L18267 7322
" />
<path d="M18267 7322
L18267 10944
" />
<path d="M18267 10944
L17874 11338
" />
</g>
<g style="fill:#C2C200; fill-opacity:0.0; 
stroke:#C2C200; stroke-width:39.3701; stroke-opacity:1; 
stroke-linecap:round; stroke-linejoin:round;">
<path d="M34645 8492
L34645 8003
" />
<path d="M35433 8492
L34645 8492
" />
<path d="M35433 8003
L35433 8492
" />
<path d="M34645 8003
L35433 8003
" />
<path d="M7728 17303
L8216 17303
" />
<path d="M7728 18090
L7728 17303
" />
<path d="M8216 18090
L7728 18090
" />
<path d="M8216 17303
L8216 18090
" />
<path d="M8712 17303
L9200 17303
" />
<path d="M8712 18090
L8712 17303
" />
<path d="M9200 18090
L8712 18090
" />
<path d="M9200 17303
L9200 18090
" />
<path d="M20078 8098
L20078 7610
" />
<path d="M20866 8098
L20078 8098
" />
<path d="M20866 7610
L20866 8098
" />
<path d="M20078 7610
L20866 7610
" />
<path d="M20964 19322
L20964 19811
" />
<path d="M20177 19322
L20964 19322
" />
<path d="M20177 19811
L20177 19322
" />
<path d="M20964 19811
L20177 19811
" />
<path d="M21208 21240
L20720 21240
" />
<path d="M21208 20452
L21208 21240
" />
<path d="M20720 20452
L21208 20452
" />
<path d="M20720 21240
L20720 20452
" />
<path d="M13484 8988
L13484 9476
" />
<path d="M12696 8988
L13484 8988
" />
<path d="M12696 9476
L12696 8988
" />
<path d="M13484 9476
L12696 9476
" />
<path d="M9468 12984
L9468 13472
" />
<path d="M8681 12984
L9468 12984
" />
<path d="M8681 13472
L8681 12984
" />
<path d="M9468 13472
L8681 13472
" />
<path d="M31791 8385
L31791 9488
" />
<path d="M31791 9488
L33169 9488
" />
<path d="M33169 9488
L33169 8385
" />
<path d="M33169 8385
L31791 8385
" />
<path d="M31929 8385
L31929 9488
" />
<path d="M31998 8385
L31998 9488
" />
<path d="M25196 13917
L25196 12814
" />
<path d="M25196 12814
L23818 12814
" />
<path d="M23818 12814
L23818 13917
" />
<path d="M23818 13917
L25196 13917
" />
<path d="M25059 13917
L25059 12814
" />
<path d="M24990 13917
L24990 12814
" />
<path d="M13720 6692
L13720 6062
" />
<path d="M13720 6062
L12460 6062
" />
<path d="M12460 6062
L12460 6692
" />
<path d="M12460 6692
L13720 6692
" />
<path d="M13594 6692
L13594 6062
" />
<path d="M13531 6692
L13531 6062
" />
<path d="M20078 10657
L20078 10169
" />
<path d="M20866 10657
L20078 10657
" />
<path d="M20866 10169
L20866 10657
" />
<path d="M20078 10169
L20866 10169
" />
<path d="M20964 18338
L20964 18826
" />
<path d="M20177 18338
L20964 18338
" />
<path d="M20177 18826
L20177 18338
" />
<path d="M20964 18826
L20177 18826
" />
<path d="M13484 10956
L13484 11444
" />
<path d="M12696 10956
L13484 10956
" />
<path d="M12696 11444
L12696 10956
" />
<path d="M13484 11444
L12696 11444
" />
<path d="M20177 16070
L20177 15582
" />
<path d="M20964 16070
L20177 16070
" />
<path d="M20964 15582
L20964 16070
" />
<path d="M20177 15582
L20964 15582
" />
<path d="M21704 20452
L22192 20452
" />
<path d="M21704 21240
L21704 20452
" />
<path d="M22192 21240
L21704 21240
" />
<path d="M22192 20452
L22192 21240
" />
<path d="M13818 16240
L13818 15610
" />
<path d="M13818 15610
L12559 15610
" />
<path d="M12559 15610
L12559 16240
" />
<path d="M12559 16240
L13818 16240
" />
<path d="M13692 16240
L13692 15610
" />
<path d="M13629 16240
L13629 15610
" />
<path d="M12696 10460
L12696 9972
" />
<path d="M13484 10460
L12696 10460
" />
<path d="M13484 9972
L13484 10460
" />
<path d="M12696 9972
L13484 9972
" />
<path d="M13582 16763
L13582 17251
" />
<path d="M12795 16763
L13582 16763
" />
<path d="M12795 17251
L12795 16763
" />
<path d="M13582 17251
L12795 17251
" />
<path d="M8720 12566
L8720 12078
" />
<path d="M9507 12566
L8720 12566
" />
<path d="M9507 12078
L9507 12566
" />
<path d="M8720 12078
L9507 12078
" />
<path d="M27559 13122
L27559 13610
" />
<path d="M26771 13122
L27559 13122
" />
<path d="M26771 13610
L26771 13122
" />
<path d="M27559 13610
L26771 13610
" />
<path d="M24901 14500
L24901 14988
" />
<path d="M24114 14500
L24901 14500
" />
<path d="M24114 14988
L24114 14500
" />
<path d="M24901 14988
L24114 14988
" />
<path d="M31200 14397
L31200 13909
" />
<path d="M31988 14397
L31200 14397
" />
<path d="M31988 13909
L31988 14397
" />
<path d="M31200 13909
L31988 13909
" />
<path d="M32086 7901
L32086 7413
" />
<path d="M32874 7901
L32086 7901
" />
<path d="M32874 7413
L32874 7901
" />
<path d="M32086 7413
L32874 7413
" />
<path d="M33956 20307
L33956 20795
" />
<path d="M33169 20307
L33956 20307
" />
<path d="M33169 20795
L33169 20307
" />
<path d="M33956 20795
L33169 20795
" />
<path d="M35433 8889
L35433 9377
" />
<path d="M34645 8889
L35433 8889
" />
<path d="M34645 9377
L34645 8889
" />
<path d="M35433 9377
L34645 9377
" />
<path d="M31318 15059
L31318 16023
" />
<path d="M31535 14834
L31870 14834
" />
<path d="M31318 15059
L31535 14834
" />
<path d="M31870 14834
L31870 16031
" />
<path d="M31318 16031
L31870 16031
" />
<path d="M31318 16732
L31318 17696
" />
<path d="M31535 16507
L31870 16507
" />
<path d="M31318 16732
L31535 16507
" />
<path d="M31870 16507
L31870 17704
" />
<path d="M31318 17704
L31870 17704
" />
<path d="M12736 7500
L12992 7244
" />
<path d="M13444 7244
L12992 7244
" />
<path d="M12736 7500
L12736 8464
" />
<path d="M13444 8464
L12736 8464
" />
<path d="M13444 7244
L13444 8464
" />
</g> 
</svg>
