M48
;DRILL file {KiCad 4.0.7} date Fri Feb 16 20:15:57 2018
;FORMAT={-:-/ absolute / metric / decimal}
FMAT,2
METRIC,TZ
T1C0.400
T2C0.600
T3C0.800
T4C0.810
T5C0.900
T6C1.000
T7C2.300
T8C3.200
%
G90
G05
M71
T1
X5.25Y18.25
X7.75Y18.25
X14.491Y10.247
X15.5Y10.25
X20.5Y16.75
X20.5Y9.25
X21.5Y16.25
X21.5Y8.45
X34.Y28.
X34.155Y16.549
X34.25Y29.
X34.5Y30.
X34.677Y15.696
X34.75Y31.
X34.75Y12.5
X35.Y14.5
X35.Y13.5
X35.409Y25.291
X37.75Y31.
X38.75Y30.
X38.83Y28.961
X39.291Y25.291
X39.75Y29.5
X40.75Y16.5
X41.Y15.5
X41.25Y14.5
X48.5Y21.25
X48.5Y18.75
T2
X2.Y48.75
X2.Y41.25
X2.Y33.75
X2.Y26.25
X2.Y18.75
X2.Y11.
X7.5Y51.75
X7.5Y3.5
X11.Y30.
X13.75Y3.5
X14.5Y45.
X15.Y51.75
X15.25Y41.5
X15.5Y32.75
X16.75Y47.25
X17.25Y30.75
X17.25Y23.
X17.5Y15.25
X17.5Y8.5
X19.5Y7.25
X20.Y3.5
X21.25Y41.5
X21.75Y37.25
X22.5Y51.75
X23.Y39.
X23.Y28.75
X28.75Y41.75
X28.75Y39.
X28.75Y36.
X28.75Y33.25
X28.75Y21.25
X28.75Y18.5
X28.75Y15.5
X28.75Y12.75
X30.Y51.75
X34.5Y35.225
X36.5Y7.25
X37.5Y51.75
X37.5Y3.5
X38.Y33.25
X38.25Y23.
X39.25Y41.25
X40.Y18.5
X40.Y12.75
X42.75Y7.25
X45.Y51.75
X45.Y3.5
X45.75Y30.25
X46.25Y21.5
X48.75Y30.25
X50.25Y31.5
X51.25Y25.75
X51.75Y13.5
X52.5Y51.75
X52.5Y46.25
X52.5Y38.75
X52.5Y34.75
X52.5Y8.75
X52.5Y3.5
X60.Y51.75
X60.Y46.25
X60.Y38.75
X60.Y34.75
X60.Y28.5
X60.Y8.75
X60.Y3.5
X60.75Y13.5
X62.25Y31.5
X64.25Y15.25
X66.Y20.25
X66.25Y27.25
X67.5Y51.75
X67.5Y9.
X67.5Y3.5
X69.Y35.75
X70.25Y41.75
X71.25Y38.5
X73.Y42.
X73.Y36.25
X75.Y51.75
X75.Y3.5
X75.75Y26.25
X75.75Y18.75
X82.5Y51.75
X82.5Y3.5
X88.25Y48.75
X88.25Y41.25
X88.25Y33.75
X88.25Y26.25
X88.25Y18.75
T3
X80.38Y11.84
X80.38Y9.3
X88.Y11.84
X88.Y9.3
T4
X10.Y41.2
X10.Y38.7
X12.Y41.2
X12.Y38.7
T5
X5.16Y12.05
X5.16Y9.51
X7.7Y12.05
X7.7Y9.51
T6
X23.67Y5.
X26.21Y5.
X28.75Y5.
X31.29Y5.
X33.83Y5.
X78.7Y37.98
X78.7Y35.21
X78.7Y32.44
X78.7Y29.67
X78.7Y26.9
X81.54Y36.595
X81.54Y33.825
X81.54Y31.055
X81.54Y28.285
T7
X7.29Y45.95
X7.29Y33.95
T8
X80.12Y44.94
X80.12Y19.94
T0
M30
