G04 #@! TF.FileFunction,Copper,L2,Bot,Signal*
%FSLAX46Y46*%
G04 Gerber Fmt 4.6, Leading zero omitted, Abs format (unit mm)*
G04 Created by KiCad (PCBNEW 4.0.7) date Fri Feb 16 20:15:51 2018*
%MOMM*%
%LPD*%
G01*
G04 APERTURE LIST*
%ADD10C,0.100000*%
%ADD11C,0.300000*%
%ADD12C,1.200000*%
%ADD13C,1.520000*%
%ADD14C,2.700000*%
%ADD15R,1.700000X1.700000*%
%ADD16O,1.700000X1.700000*%
%ADD17C,1.800000*%
%ADD18R,1.800000X1.800000*%
%ADD19R,1.600000X1.600000*%
%ADD20O,1.600000X1.600000*%
%ADD21C,1.600000*%
%ADD22C,4.000000*%
%ADD23C,0.800000*%
%ADD24C,0.600000*%
%ADD25C,0.400000*%
%ADD26C,0.254000*%
G04 APERTURE END LIST*
D10*
D11*
X50607142Y48321429D02*
X50607142Y49821429D01*
X50107142Y48750000D01*
X49607142Y49821429D01*
X49607142Y48321429D01*
X48392856Y49107143D02*
X48178570Y49035714D01*
X48107142Y48964286D01*
X48035713Y48821429D01*
X48035713Y48607143D01*
X48107142Y48464286D01*
X48178570Y48392857D01*
X48321428Y48321429D01*
X48892856Y48321429D01*
X48892856Y49821429D01*
X48392856Y49821429D01*
X48249999Y49750000D01*
X48178570Y49678571D01*
X48107142Y49535714D01*
X48107142Y49392857D01*
X48178570Y49250000D01*
X48249999Y49178571D01*
X48392856Y49107143D01*
X48892856Y49107143D01*
X47464285Y49678571D02*
X47392856Y49750000D01*
X47249999Y49821429D01*
X46892856Y49821429D01*
X46749999Y49750000D01*
X46678570Y49678571D01*
X46607142Y49535714D01*
X46607142Y49392857D01*
X46678570Y49178571D01*
X47535713Y48321429D01*
X46607142Y48321429D01*
X45678571Y49821429D02*
X45535714Y49821429D01*
X45392857Y49750000D01*
X45321428Y49678571D01*
X45249999Y49535714D01*
X45178571Y49250000D01*
X45178571Y48892857D01*
X45249999Y48607143D01*
X45321428Y48464286D01*
X45392857Y48392857D01*
X45535714Y48321429D01*
X45678571Y48321429D01*
X45821428Y48392857D01*
X45892857Y48464286D01*
X45964285Y48607143D01*
X46035714Y48892857D01*
X46035714Y49250000D01*
X45964285Y49535714D01*
X45892857Y49678571D01*
X45821428Y49750000D01*
X45678571Y49821429D01*
X43750000Y48321429D02*
X44607143Y48321429D01*
X44178571Y48321429D02*
X44178571Y49821429D01*
X44321428Y49607143D01*
X44464286Y49464286D01*
X44607143Y49392857D01*
X42892857Y49178571D02*
X43035715Y49250000D01*
X43107143Y49321429D01*
X43178572Y49464286D01*
X43178572Y49535714D01*
X43107143Y49678571D01*
X43035715Y49750000D01*
X42892857Y49821429D01*
X42607143Y49821429D01*
X42464286Y49750000D01*
X42392857Y49678571D01*
X42321429Y49535714D01*
X42321429Y49464286D01*
X42392857Y49321429D01*
X42464286Y49250000D01*
X42607143Y49178571D01*
X42892857Y49178571D01*
X43035715Y49107143D01*
X43107143Y49035714D01*
X43178572Y48892857D01*
X43178572Y48607143D01*
X43107143Y48464286D01*
X43035715Y48392857D01*
X42892857Y48321429D01*
X42607143Y48321429D01*
X42464286Y48392857D01*
X42392857Y48464286D01*
X42321429Y48607143D01*
X42321429Y48892857D01*
X42392857Y49035714D01*
X42464286Y49107143D01*
X42607143Y49178571D01*
D12*
X17500000Y8500000D03*
X11000000Y30000000D03*
X16750000Y47250000D03*
X14500000Y45000000D03*
X17250000Y30750000D03*
X15500000Y32750000D03*
X17250000Y23000000D03*
X40000000Y12750000D03*
X38250000Y23000000D03*
X40000000Y18500000D03*
X45750000Y30250000D03*
X46250000Y21500000D03*
X51250000Y25750000D03*
X60000000Y38750000D03*
X52500000Y38750000D03*
X20000000Y3500000D03*
X13750000Y3500000D03*
X7500000Y3500000D03*
X2000000Y11000000D03*
X2000000Y18750000D03*
X2000000Y26250000D03*
X2000000Y33750000D03*
X2000000Y41250000D03*
X2000000Y48750000D03*
X7500000Y51750000D03*
X15000000Y51750000D03*
X22500000Y51750000D03*
X30000000Y51750000D03*
X37500000Y51750000D03*
X45000000Y51750000D03*
X52500000Y51750000D03*
X52500000Y46250000D03*
X50250000Y31500000D03*
X52500000Y34750000D03*
X37500000Y3500000D03*
X45000000Y3500000D03*
X52500000Y3500000D03*
X52500000Y8750000D03*
X51750000Y13500000D03*
X42750000Y7250000D03*
X17500000Y15250000D03*
X38000000Y33250000D03*
X28750000Y18500000D03*
X28750000Y15500000D03*
X28750000Y12750000D03*
X28750000Y21250000D03*
X28750000Y39000000D03*
X28750000Y36000000D03*
X28750000Y33250000D03*
X28750000Y41750000D03*
D13*
X12000000Y41200000D03*
X12000000Y38700000D03*
X10000000Y38700000D03*
X10000000Y41200000D03*
D14*
X7290000Y45950000D03*
X7290000Y33950000D03*
D12*
X60000000Y34750000D03*
D15*
X33830000Y5000000D03*
D16*
X31290000Y5000000D03*
X28750000Y5000000D03*
X26210000Y5000000D03*
X23670000Y5000000D03*
D12*
X69000000Y35750000D03*
X75750000Y18750000D03*
X75750000Y26250000D03*
X60000000Y8750000D03*
X60000000Y3500000D03*
X67500000Y3500000D03*
X75000000Y3500000D03*
X82500000Y3500000D03*
X88250000Y18750000D03*
X88250000Y26250000D03*
X88250000Y33750000D03*
X88250000Y41250000D03*
X88250000Y48750000D03*
X82500000Y51750000D03*
X75000000Y51750000D03*
X67500000Y51750000D03*
X60000000Y51750000D03*
D17*
X5160000Y9510000D03*
X5160000Y12050000D03*
D18*
X7700000Y12050000D03*
D17*
X7700000Y9510000D03*
D19*
X88000000Y9300000D03*
D20*
X80380000Y11840000D03*
X88000000Y11840000D03*
X80380000Y9300000D03*
D19*
X78700000Y26900000D03*
D21*
X78700000Y29670000D03*
X78700000Y32440000D03*
X78700000Y35210000D03*
X78700000Y37980000D03*
X81540000Y28285000D03*
X81540000Y31055000D03*
X81540000Y33825000D03*
X81540000Y36595000D03*
D22*
X80120000Y19940000D03*
X80120000Y44940000D03*
D12*
X60000000Y46250000D03*
X21750000Y37250000D03*
X15250018Y41500000D03*
X19500000Y7250000D03*
X23000000Y28750000D03*
X36500000Y7250000D03*
X48750000Y30250000D03*
X39250000Y41250000D03*
X34500000Y35225000D03*
X23000000Y39000000D03*
X21250000Y41500000D03*
X66250000Y27250000D03*
X66000000Y20250000D03*
X70250000Y41750000D03*
X73000000Y42000000D03*
X64250000Y15250000D03*
X62250000Y31500000D03*
X71250000Y38500000D03*
X73000000Y36250000D03*
X67500000Y9000000D03*
X60750000Y13500000D03*
X60000000Y28500000D03*
D23*
X40750000Y16500000D03*
X34154845Y16549308D03*
X5250000Y18250000D03*
X21500000Y16250000D03*
X15500000Y10250000D03*
X34750000Y12500000D03*
X14491043Y10247015D03*
X35000000Y13500000D03*
X41000008Y15500000D03*
X34676884Y15696372D03*
X41250004Y14500000D03*
X35000000Y14500000D03*
X34750000Y31000000D03*
X37749996Y31000000D03*
X39290686Y25290686D03*
X35409314Y25290686D03*
X39750000Y29500000D03*
X34000000Y28000000D03*
X38829651Y28961037D03*
X34250000Y29000000D03*
X38750000Y30000000D03*
X34500000Y30000000D03*
X48500000Y21250000D03*
X20500000Y9250000D03*
X48500000Y18750000D03*
X21500000Y8449990D03*
X7750000Y18250000D03*
X20500000Y16750000D03*
D24*
X39250000Y35250000D02*
X39250000Y41250000D01*
X31250000Y7250000D02*
X19500000Y7250000D01*
X23000000Y39000000D02*
X23000000Y28750000D01*
X36500000Y7250000D02*
X31250000Y7250000D01*
X31250000Y7250000D02*
X31290000Y7210000D01*
X31290000Y7210000D02*
X31290000Y5000000D01*
X43775000Y35225000D02*
X48750000Y30250000D01*
X39225000Y35225000D02*
X43775000Y35225000D01*
X34500000Y35225000D02*
X39225000Y35225000D01*
X39225000Y35225000D02*
X39250000Y35250000D01*
X21250000Y41500000D02*
X23750000Y44000000D01*
X23750000Y44000000D02*
X36500000Y44000000D01*
X36500000Y44000000D02*
X39250000Y41250000D01*
X21250000Y41500000D02*
X23000000Y39750000D01*
X23000000Y39750000D02*
X23000000Y39000000D01*
D25*
X34154845Y16549308D02*
X40700692Y16549308D01*
X40700692Y16549308D02*
X40750000Y16500000D01*
X6050001Y19050001D02*
X5250000Y18250000D01*
X9750000Y17750000D02*
X8449999Y19050001D01*
X8449999Y19050001D02*
X6050001Y19050001D01*
X20750000Y17750000D02*
X9750000Y17750000D01*
X21500000Y16250000D02*
X21500000Y17000000D01*
X21500000Y17000000D02*
X20750000Y17750000D01*
X32500000Y10250000D02*
X16065685Y10250000D01*
X34750000Y12500000D02*
X32500000Y10250000D01*
X16065685Y10250000D02*
X15500000Y10250000D01*
X34434315Y13500000D02*
X32184315Y11250000D01*
X14491043Y10812700D02*
X14491043Y10247015D01*
X32184315Y11250000D02*
X14928343Y11250000D01*
X14928343Y11250000D02*
X14491043Y10812700D01*
X35000000Y13500000D02*
X34434315Y13500000D01*
X41000008Y15500000D02*
X34873256Y15500000D01*
X34873256Y15500000D02*
X34676884Y15696372D01*
X35000000Y14500000D02*
X41250004Y14500000D01*
X37749996Y31000000D02*
X34750000Y31000000D01*
X35409314Y25290686D02*
X39290686Y25290686D01*
X34000000Y28000000D02*
X39250000Y28000000D01*
X39250000Y28000000D02*
X39750000Y28500000D01*
X39750000Y28500000D02*
X39750000Y29500000D01*
X38790688Y29000000D02*
X38829651Y28961037D01*
X34250000Y29000000D02*
X38790688Y29000000D01*
X34500000Y30000000D02*
X38750000Y30000000D01*
X20500000Y9250000D02*
X40500000Y9250000D01*
X40500000Y9250000D02*
X47500000Y16250000D01*
X47500000Y16250000D02*
X47500000Y20250000D01*
X47500000Y20250000D02*
X48500000Y21250000D01*
X21500000Y8449990D02*
X40699990Y8449990D01*
X40699990Y8449990D02*
X48500000Y16250000D01*
X48500000Y16250000D02*
X48500000Y18750000D01*
X9250000Y16750000D02*
X7750000Y18250000D01*
X20500000Y16750000D02*
X9250000Y16750000D01*
D26*
G36*
X84829996Y52784082D02*
X84565301Y52146627D01*
X84564699Y51456401D01*
X84828281Y50818485D01*
X85315918Y50329996D01*
X85953373Y50065301D01*
X86643599Y50064699D01*
X87281515Y50328281D01*
X87770004Y50815918D01*
X88034699Y51453373D01*
X88035301Y52143599D01*
X87771719Y52781515D01*
X87430830Y53123000D01*
X89115000Y53123000D01*
X89115000Y12746660D01*
X89042811Y12854698D01*
X88577264Y13165767D01*
X88028113Y13275000D01*
X87971887Y13275000D01*
X87422736Y13165767D01*
X86957189Y12854698D01*
X86646120Y12389151D01*
X86536887Y11840000D01*
X86646120Y11290849D01*
X86957189Y10825302D01*
X87101465Y10728899D01*
X86964683Y10703162D01*
X86748559Y10564090D01*
X86603569Y10351890D01*
X86552560Y10100000D01*
X86552560Y8500000D01*
X86596838Y8264683D01*
X86735910Y8048559D01*
X86948110Y7903569D01*
X87200000Y7852560D01*
X88800000Y7852560D01*
X89035317Y7896838D01*
X89115000Y7948113D01*
X89115000Y2127000D01*
X87380406Y2127000D01*
X87770004Y2515918D01*
X88034699Y3153373D01*
X88035301Y3843599D01*
X87771719Y4481515D01*
X87284082Y4970004D01*
X86646627Y5234699D01*
X85956401Y5235301D01*
X85318485Y4971719D01*
X84829996Y4484082D01*
X84565301Y3846627D01*
X84564699Y3156401D01*
X84828281Y2518485D01*
X85219083Y2127000D01*
X58877000Y2127000D01*
X58877000Y11840000D01*
X78916887Y11840000D01*
X79026120Y11290849D01*
X79337189Y10825302D01*
X79719275Y10570000D01*
X79337189Y10314698D01*
X79026120Y9849151D01*
X78916887Y9300000D01*
X79026120Y8750849D01*
X79337189Y8285302D01*
X79802736Y7974233D01*
X80351887Y7865000D01*
X80408113Y7865000D01*
X80957264Y7974233D01*
X81422811Y8285302D01*
X81733880Y8750849D01*
X81843113Y9300000D01*
X81733880Y9849151D01*
X81422811Y10314698D01*
X81040725Y10570000D01*
X81422811Y10825302D01*
X81733880Y11290849D01*
X81843113Y11840000D01*
X81733880Y12389151D01*
X81422811Y12854698D01*
X80957264Y13165767D01*
X80408113Y13275000D01*
X80351887Y13275000D01*
X79802736Y13165767D01*
X79337189Y12854698D01*
X79026120Y12389151D01*
X78916887Y11840000D01*
X58877000Y11840000D01*
X58877000Y19418166D01*
X77484543Y19418166D01*
X77884853Y18449342D01*
X78625443Y17707458D01*
X79593567Y17305458D01*
X80641834Y17304543D01*
X81610658Y17704853D01*
X82352542Y18445443D01*
X82754542Y19413567D01*
X82755457Y20461834D01*
X82355147Y21430658D01*
X81614557Y22172542D01*
X80646433Y22574542D01*
X79598166Y22575457D01*
X78629342Y22175147D01*
X77887458Y21434557D01*
X77485458Y20466433D01*
X77484543Y19418166D01*
X58877000Y19418166D01*
X58877000Y27700000D01*
X77252560Y27700000D01*
X77252560Y26100000D01*
X77296838Y25864683D01*
X77435910Y25648559D01*
X77648110Y25503569D01*
X77900000Y25452560D01*
X79500000Y25452560D01*
X79735317Y25496838D01*
X79951441Y25635910D01*
X80096431Y25848110D01*
X80147440Y26100000D01*
X80147440Y27700000D01*
X80103162Y27935317D01*
X79964090Y28151441D01*
X79751890Y28296431D01*
X79500000Y28347440D01*
X79256913Y28347440D01*
X79511800Y28452757D01*
X79915824Y28856077D01*
X80134750Y29383309D01*
X80135248Y29954187D01*
X79917243Y30481800D01*
X79513923Y30885824D01*
X79129937Y31045269D01*
X79414003Y31162933D01*
X79491846Y31403495D01*
X78700000Y32195341D01*
X77908154Y31403495D01*
X77985997Y31162933D01*
X78305097Y31059501D01*
X77888200Y30887243D01*
X77484176Y30483923D01*
X77265250Y29956691D01*
X77264752Y29385813D01*
X77482757Y28858200D01*
X77886077Y28454176D01*
X78143126Y28347440D01*
X77900000Y28347440D01*
X77664683Y28303162D01*
X77448559Y28164090D01*
X77303569Y27951890D01*
X77252560Y27700000D01*
X58877000Y27700000D01*
X58877000Y32610940D01*
X77246907Y32610940D01*
X77292101Y32041854D01*
X77422933Y31725997D01*
X77663495Y31648154D01*
X78455341Y32440000D01*
X78944659Y32440000D01*
X79736505Y31648154D01*
X79977067Y31725997D01*
X80153093Y32269060D01*
X80107899Y32838146D01*
X79977067Y33154003D01*
X79736505Y33231846D01*
X78944659Y32440000D01*
X78455341Y32440000D01*
X77663495Y33231846D01*
X77422933Y33154003D01*
X77246907Y32610940D01*
X58877000Y32610940D01*
X58877000Y37695813D01*
X77264752Y37695813D01*
X77482757Y37168200D01*
X77886077Y36764176D01*
X78293850Y36594854D01*
X77888200Y36427243D01*
X77484176Y36023923D01*
X77265250Y35496691D01*
X77264752Y34925813D01*
X77482757Y34398200D01*
X77886077Y33994176D01*
X78270063Y33834731D01*
X77985997Y33717067D01*
X77908154Y33476505D01*
X78700000Y32684659D01*
X79491846Y33476505D01*
X79414003Y33717067D01*
X79094903Y33820499D01*
X79511800Y33992757D01*
X79915824Y34396077D01*
X80134750Y34923309D01*
X80135248Y35494187D01*
X79917243Y36021800D01*
X79628734Y36310813D01*
X80104752Y36310813D01*
X80322757Y35783200D01*
X80726077Y35379176D01*
X81133850Y35209854D01*
X80728200Y35042243D01*
X80324176Y34638923D01*
X80105250Y34111691D01*
X80104752Y33540813D01*
X80322757Y33013200D01*
X80726077Y32609176D01*
X81133850Y32439854D01*
X80728200Y32272243D01*
X80324176Y31868923D01*
X80105250Y31341691D01*
X80104752Y30770813D01*
X80322757Y30243200D01*
X80726077Y29839176D01*
X81133850Y29669854D01*
X80728200Y29502243D01*
X80324176Y29098923D01*
X80105250Y28571691D01*
X80104752Y28000813D01*
X80322757Y27473200D01*
X80726077Y27069176D01*
X81253309Y26850250D01*
X81824187Y26849752D01*
X82351800Y27067757D01*
X82755824Y27471077D01*
X82974750Y27998309D01*
X82975248Y28569187D01*
X82757243Y29096800D01*
X82353923Y29500824D01*
X81946150Y29670146D01*
X82351800Y29837757D01*
X82755824Y30241077D01*
X82974750Y30768309D01*
X82975248Y31339187D01*
X82757243Y31866800D01*
X82353923Y32270824D01*
X81946150Y32440146D01*
X82351800Y32607757D01*
X82755824Y33011077D01*
X82974750Y33538309D01*
X82975248Y34109187D01*
X82757243Y34636800D01*
X82353923Y35040824D01*
X81946150Y35210146D01*
X82351800Y35377757D01*
X82755824Y35781077D01*
X82974750Y36308309D01*
X82975248Y36879187D01*
X82757243Y37406800D01*
X82353923Y37810824D01*
X81826691Y38029750D01*
X81255813Y38030248D01*
X80728200Y37812243D01*
X80324176Y37408923D01*
X80105250Y36881691D01*
X80104752Y36310813D01*
X79628734Y36310813D01*
X79513923Y36425824D01*
X79106150Y36595146D01*
X79511800Y36762757D01*
X79915824Y37166077D01*
X80134750Y37693309D01*
X80135248Y38264187D01*
X79917243Y38791800D01*
X79513923Y39195824D01*
X78986691Y39414750D01*
X78415813Y39415248D01*
X77888200Y39197243D01*
X77484176Y38793923D01*
X77265250Y38266691D01*
X77264752Y37695813D01*
X58877000Y37695813D01*
X58877000Y44418166D01*
X77484543Y44418166D01*
X77884853Y43449342D01*
X78625443Y42707458D01*
X79593567Y42305458D01*
X80641834Y42304543D01*
X81610658Y42704853D01*
X82352542Y43445443D01*
X82754542Y44413567D01*
X82755457Y45461834D01*
X82355147Y46430658D01*
X81614557Y47172542D01*
X80646433Y47574542D01*
X79598166Y47575457D01*
X78629342Y47175147D01*
X77887458Y46434557D01*
X77485458Y45466433D01*
X77484543Y44418166D01*
X58877000Y44418166D01*
X58877000Y53123000D01*
X85169506Y53123000D01*
X84829996Y52784082D01*
X84829996Y52784082D01*
G37*
X84829996Y52784082D02*
X84565301Y52146627D01*
X84564699Y51456401D01*
X84828281Y50818485D01*
X85315918Y50329996D01*
X85953373Y50065301D01*
X86643599Y50064699D01*
X87281515Y50328281D01*
X87770004Y50815918D01*
X88034699Y51453373D01*
X88035301Y52143599D01*
X87771719Y52781515D01*
X87430830Y53123000D01*
X89115000Y53123000D01*
X89115000Y12746660D01*
X89042811Y12854698D01*
X88577264Y13165767D01*
X88028113Y13275000D01*
X87971887Y13275000D01*
X87422736Y13165767D01*
X86957189Y12854698D01*
X86646120Y12389151D01*
X86536887Y11840000D01*
X86646120Y11290849D01*
X86957189Y10825302D01*
X87101465Y10728899D01*
X86964683Y10703162D01*
X86748559Y10564090D01*
X86603569Y10351890D01*
X86552560Y10100000D01*
X86552560Y8500000D01*
X86596838Y8264683D01*
X86735910Y8048559D01*
X86948110Y7903569D01*
X87200000Y7852560D01*
X88800000Y7852560D01*
X89035317Y7896838D01*
X89115000Y7948113D01*
X89115000Y2127000D01*
X87380406Y2127000D01*
X87770004Y2515918D01*
X88034699Y3153373D01*
X88035301Y3843599D01*
X87771719Y4481515D01*
X87284082Y4970004D01*
X86646627Y5234699D01*
X85956401Y5235301D01*
X85318485Y4971719D01*
X84829996Y4484082D01*
X84565301Y3846627D01*
X84564699Y3156401D01*
X84828281Y2518485D01*
X85219083Y2127000D01*
X58877000Y2127000D01*
X58877000Y11840000D01*
X78916887Y11840000D01*
X79026120Y11290849D01*
X79337189Y10825302D01*
X79719275Y10570000D01*
X79337189Y10314698D01*
X79026120Y9849151D01*
X78916887Y9300000D01*
X79026120Y8750849D01*
X79337189Y8285302D01*
X79802736Y7974233D01*
X80351887Y7865000D01*
X80408113Y7865000D01*
X80957264Y7974233D01*
X81422811Y8285302D01*
X81733880Y8750849D01*
X81843113Y9300000D01*
X81733880Y9849151D01*
X81422811Y10314698D01*
X81040725Y10570000D01*
X81422811Y10825302D01*
X81733880Y11290849D01*
X81843113Y11840000D01*
X81733880Y12389151D01*
X81422811Y12854698D01*
X80957264Y13165767D01*
X80408113Y13275000D01*
X80351887Y13275000D01*
X79802736Y13165767D01*
X79337189Y12854698D01*
X79026120Y12389151D01*
X78916887Y11840000D01*
X58877000Y11840000D01*
X58877000Y19418166D01*
X77484543Y19418166D01*
X77884853Y18449342D01*
X78625443Y17707458D01*
X79593567Y17305458D01*
X80641834Y17304543D01*
X81610658Y17704853D01*
X82352542Y18445443D01*
X82754542Y19413567D01*
X82755457Y20461834D01*
X82355147Y21430658D01*
X81614557Y22172542D01*
X80646433Y22574542D01*
X79598166Y22575457D01*
X78629342Y22175147D01*
X77887458Y21434557D01*
X77485458Y20466433D01*
X77484543Y19418166D01*
X58877000Y19418166D01*
X58877000Y27700000D01*
X77252560Y27700000D01*
X77252560Y26100000D01*
X77296838Y25864683D01*
X77435910Y25648559D01*
X77648110Y25503569D01*
X77900000Y25452560D01*
X79500000Y25452560D01*
X79735317Y25496838D01*
X79951441Y25635910D01*
X80096431Y25848110D01*
X80147440Y26100000D01*
X80147440Y27700000D01*
X80103162Y27935317D01*
X79964090Y28151441D01*
X79751890Y28296431D01*
X79500000Y28347440D01*
X79256913Y28347440D01*
X79511800Y28452757D01*
X79915824Y28856077D01*
X80134750Y29383309D01*
X80135248Y29954187D01*
X79917243Y30481800D01*
X79513923Y30885824D01*
X79129937Y31045269D01*
X79414003Y31162933D01*
X79491846Y31403495D01*
X78700000Y32195341D01*
X77908154Y31403495D01*
X77985997Y31162933D01*
X78305097Y31059501D01*
X77888200Y30887243D01*
X77484176Y30483923D01*
X77265250Y29956691D01*
X77264752Y29385813D01*
X77482757Y28858200D01*
X77886077Y28454176D01*
X78143126Y28347440D01*
X77900000Y28347440D01*
X77664683Y28303162D01*
X77448559Y28164090D01*
X77303569Y27951890D01*
X77252560Y27700000D01*
X58877000Y27700000D01*
X58877000Y32610940D01*
X77246907Y32610940D01*
X77292101Y32041854D01*
X77422933Y31725997D01*
X77663495Y31648154D01*
X78455341Y32440000D01*
X78944659Y32440000D01*
X79736505Y31648154D01*
X79977067Y31725997D01*
X80153093Y32269060D01*
X80107899Y32838146D01*
X79977067Y33154003D01*
X79736505Y33231846D01*
X78944659Y32440000D01*
X78455341Y32440000D01*
X77663495Y33231846D01*
X77422933Y33154003D01*
X77246907Y32610940D01*
X58877000Y32610940D01*
X58877000Y37695813D01*
X77264752Y37695813D01*
X77482757Y37168200D01*
X77886077Y36764176D01*
X78293850Y36594854D01*
X77888200Y36427243D01*
X77484176Y36023923D01*
X77265250Y35496691D01*
X77264752Y34925813D01*
X77482757Y34398200D01*
X77886077Y33994176D01*
X78270063Y33834731D01*
X77985997Y33717067D01*
X77908154Y33476505D01*
X78700000Y32684659D01*
X79491846Y33476505D01*
X79414003Y33717067D01*
X79094903Y33820499D01*
X79511800Y33992757D01*
X79915824Y34396077D01*
X80134750Y34923309D01*
X80135248Y35494187D01*
X79917243Y36021800D01*
X79628734Y36310813D01*
X80104752Y36310813D01*
X80322757Y35783200D01*
X80726077Y35379176D01*
X81133850Y35209854D01*
X80728200Y35042243D01*
X80324176Y34638923D01*
X80105250Y34111691D01*
X80104752Y33540813D01*
X80322757Y33013200D01*
X80726077Y32609176D01*
X81133850Y32439854D01*
X80728200Y32272243D01*
X80324176Y31868923D01*
X80105250Y31341691D01*
X80104752Y30770813D01*
X80322757Y30243200D01*
X80726077Y29839176D01*
X81133850Y29669854D01*
X80728200Y29502243D01*
X80324176Y29098923D01*
X80105250Y28571691D01*
X80104752Y28000813D01*
X80322757Y27473200D01*
X80726077Y27069176D01*
X81253309Y26850250D01*
X81824187Y26849752D01*
X82351800Y27067757D01*
X82755824Y27471077D01*
X82974750Y27998309D01*
X82975248Y28569187D01*
X82757243Y29096800D01*
X82353923Y29500824D01*
X81946150Y29670146D01*
X82351800Y29837757D01*
X82755824Y30241077D01*
X82974750Y30768309D01*
X82975248Y31339187D01*
X82757243Y31866800D01*
X82353923Y32270824D01*
X81946150Y32440146D01*
X82351800Y32607757D01*
X82755824Y33011077D01*
X82974750Y33538309D01*
X82975248Y34109187D01*
X82757243Y34636800D01*
X82353923Y35040824D01*
X81946150Y35210146D01*
X82351800Y35377757D01*
X82755824Y35781077D01*
X82974750Y36308309D01*
X82975248Y36879187D01*
X82757243Y37406800D01*
X82353923Y37810824D01*
X81826691Y38029750D01*
X81255813Y38030248D01*
X80728200Y37812243D01*
X80324176Y37408923D01*
X80105250Y36881691D01*
X80104752Y36310813D01*
X79628734Y36310813D01*
X79513923Y36425824D01*
X79106150Y36595146D01*
X79511800Y36762757D01*
X79915824Y37166077D01*
X80134750Y37693309D01*
X80135248Y38264187D01*
X79917243Y38791800D01*
X79513923Y39195824D01*
X78986691Y39414750D01*
X78415813Y39415248D01*
X77888200Y39197243D01*
X77484176Y38793923D01*
X77265250Y38266691D01*
X77264752Y37695813D01*
X58877000Y37695813D01*
X58877000Y44418166D01*
X77484543Y44418166D01*
X77884853Y43449342D01*
X78625443Y42707458D01*
X79593567Y42305458D01*
X80641834Y42304543D01*
X81610658Y42704853D01*
X82352542Y43445443D01*
X82754542Y44413567D01*
X82755457Y45461834D01*
X82355147Y46430658D01*
X81614557Y47172542D01*
X80646433Y47574542D01*
X79598166Y47575457D01*
X78629342Y47175147D01*
X77887458Y46434557D01*
X77485458Y45466433D01*
X77484543Y44418166D01*
X58877000Y44418166D01*
X58877000Y53123000D01*
X85169506Y53123000D01*
X84829996Y52784082D01*
G36*
X2029996Y52784082D02*
X1765301Y52146627D01*
X1764699Y51456401D01*
X2028281Y50818485D01*
X2515918Y50329996D01*
X3153373Y50065301D01*
X3843599Y50064699D01*
X4481515Y50328281D01*
X4970004Y50815918D01*
X4977927Y50835000D01*
X41400715Y50835000D01*
X41400715Y47015000D01*
X51599285Y47015000D01*
X51599285Y50835000D01*
X41400715Y50835000D01*
X4977927Y50835000D01*
X5234699Y51453373D01*
X5235301Y52143599D01*
X4971719Y52781515D01*
X4630830Y53123000D01*
X53623000Y53123000D01*
X53623000Y2127000D01*
X4580406Y2127000D01*
X4970004Y2515918D01*
X5234699Y3153373D01*
X5235301Y3843599D01*
X4971719Y4481515D01*
X4484082Y4970004D01*
X3846627Y5234699D01*
X3156401Y5235301D01*
X2518485Y4971719D01*
X2029996Y4484082D01*
X1765301Y3846627D01*
X1764699Y3156401D01*
X2028281Y2518485D01*
X2419083Y2127000D01*
X685000Y2127000D01*
X685000Y8400803D01*
X4295462Y8400803D01*
X4385671Y8149903D01*
X4965100Y7957111D01*
X5574201Y8000733D01*
X5934329Y8149903D01*
X6024538Y8400803D01*
X6835462Y8400803D01*
X6925671Y8149903D01*
X7505100Y7957111D01*
X8114201Y8000733D01*
X8474329Y8149903D01*
X8564538Y8400803D01*
X7700000Y9265341D01*
X6835462Y8400803D01*
X6024538Y8400803D01*
X5160000Y9265341D01*
X4295462Y8400803D01*
X685000Y8400803D01*
X685000Y9704900D01*
X3607111Y9704900D01*
X3650733Y9095799D01*
X3799903Y8735671D01*
X4050803Y8645462D01*
X4915341Y9510000D01*
X4050803Y10374538D01*
X3799903Y10284329D01*
X3607111Y9704900D01*
X685000Y9704900D01*
X685000Y11746009D01*
X3624735Y11746009D01*
X3857932Y11181629D01*
X4289357Y10749449D01*
X4335417Y10730323D01*
X4295462Y10619197D01*
X5160000Y9754659D01*
X6024538Y10619197D01*
X5984735Y10729902D01*
X6028371Y10747932D01*
X6196613Y10915880D01*
X6196838Y10914683D01*
X6335910Y10698559D01*
X6539574Y10559402D01*
X6472755Y10492583D01*
X6590801Y10374537D01*
X6430000Y10316723D01*
X6269197Y10374538D01*
X5404659Y9510000D01*
X6269197Y8645462D01*
X6430000Y8703277D01*
X6590803Y8645462D01*
X7455341Y9510000D01*
X7441199Y9524142D01*
X7685858Y9768801D01*
X7700000Y9754659D01*
X7714142Y9768801D01*
X7958801Y9524142D01*
X7944659Y9510000D01*
X8809197Y8645462D01*
X9060097Y8735671D01*
X9252889Y9315100D01*
X9209267Y9924201D01*
X9160455Y10042044D01*
X13455864Y10042044D01*
X13613101Y9661500D01*
X13903997Y9370096D01*
X14284266Y9212195D01*
X14696014Y9211836D01*
X14999392Y9337189D01*
X15293223Y9215180D01*
X15704971Y9214821D01*
X16085515Y9372058D01*
X16128532Y9415000D01*
X19465144Y9415000D01*
X19464821Y9045029D01*
X19622058Y8664485D01*
X19840179Y8445983D01*
X19746734Y8484785D01*
X19255421Y8485214D01*
X18801343Y8297592D01*
X18453629Y7950485D01*
X18265215Y7496734D01*
X18264786Y7005421D01*
X18452408Y6551343D01*
X18799515Y6203629D01*
X19253266Y6015215D01*
X19744579Y6014786D01*
X20198657Y6202408D01*
X20311446Y6315000D01*
X22972926Y6315000D01*
X22619946Y6079147D01*
X22298039Y5597378D01*
X22185000Y5029093D01*
X22185000Y4970907D01*
X22298039Y4402622D01*
X22619946Y3920853D01*
X23101715Y3598946D01*
X23670000Y3485907D01*
X24238285Y3598946D01*
X24720054Y3920853D01*
X24940000Y4250026D01*
X25159946Y3920853D01*
X25641715Y3598946D01*
X26210000Y3485907D01*
X26778285Y3598946D01*
X27260054Y3920853D01*
X27489865Y4264790D01*
X27582832Y4081859D01*
X28023035Y3705092D01*
X28348407Y3570333D01*
X28577000Y3685082D01*
X28577000Y4827000D01*
X28557000Y4827000D01*
X28557000Y5173000D01*
X28577000Y5173000D01*
X28577000Y5193000D01*
X28923000Y5193000D01*
X28923000Y5173000D01*
X28943000Y5173000D01*
X28943000Y4827000D01*
X28923000Y4827000D01*
X28923000Y3685082D01*
X29151593Y3570333D01*
X29476965Y3705092D01*
X29917168Y4081859D01*
X30010135Y4264790D01*
X30239946Y3920853D01*
X30721715Y3598946D01*
X31290000Y3485907D01*
X31858285Y3598946D01*
X32340054Y3920853D01*
X32367850Y3962452D01*
X32376838Y3914683D01*
X32515910Y3698559D01*
X32728110Y3553569D01*
X32980000Y3502560D01*
X34680000Y3502560D01*
X34915317Y3546838D01*
X35131441Y3685910D01*
X35276431Y3898110D01*
X35327440Y4150000D01*
X35327440Y5850000D01*
X35283162Y6085317D01*
X35144090Y6301441D01*
X35124246Y6315000D01*
X35688338Y6315000D01*
X35799515Y6203629D01*
X36253266Y6015215D01*
X36744579Y6014786D01*
X37198657Y6202408D01*
X37546371Y6549515D01*
X37734785Y7003266D01*
X37735214Y7494579D01*
X37685461Y7614990D01*
X40699990Y7614990D01*
X41019531Y7678551D01*
X41290424Y7859556D01*
X49090434Y15659566D01*
X49094065Y15665000D01*
X49271439Y15930459D01*
X49335000Y16250000D01*
X49335000Y18121108D01*
X49376919Y18162954D01*
X49534820Y18543223D01*
X49535179Y18954971D01*
X49377942Y19335515D01*
X49087046Y19626919D01*
X48706777Y19784820D01*
X48335000Y19785144D01*
X48335000Y19904132D01*
X48645741Y20214873D01*
X48704971Y20214821D01*
X49085515Y20372058D01*
X49376919Y20662954D01*
X49534820Y21043223D01*
X49535179Y21454971D01*
X49377942Y21835515D01*
X49087046Y22126919D01*
X48706777Y22284820D01*
X48295029Y22285179D01*
X47914485Y22127942D01*
X47623081Y21837046D01*
X47465180Y21456777D01*
X47465127Y21395995D01*
X46909566Y20840434D01*
X46728561Y20569541D01*
X46665000Y20250000D01*
X46665000Y16595868D01*
X40154132Y10085000D01*
X33515868Y10085000D01*
X34895741Y11464873D01*
X34954971Y11464821D01*
X35335515Y11622058D01*
X35626919Y11912954D01*
X35784820Y12293223D01*
X35785179Y12704971D01*
X35751128Y12787382D01*
X35876919Y12912954D01*
X36034820Y13293223D01*
X36035144Y13665000D01*
X40621112Y13665000D01*
X40662958Y13623081D01*
X41043227Y13465180D01*
X41454975Y13464821D01*
X41835519Y13622058D01*
X42126923Y13912954D01*
X42284824Y14293223D01*
X42285183Y14704971D01*
X42127946Y15085515D01*
X42001272Y15212410D01*
X42034828Y15293223D01*
X42035187Y15704971D01*
X41877950Y16085515D01*
X41751267Y16212419D01*
X41784820Y16293223D01*
X41785179Y16704971D01*
X41627942Y17085515D01*
X41337046Y17376919D01*
X40956777Y17534820D01*
X40545029Y17535179D01*
X40179892Y17384308D01*
X34783737Y17384308D01*
X34741891Y17426227D01*
X34361622Y17584128D01*
X33949874Y17584487D01*
X33569330Y17427250D01*
X33277926Y17136354D01*
X33120025Y16756085D01*
X33119666Y16344337D01*
X33276903Y15963793D01*
X33567799Y15672389D01*
X33641836Y15641646D01*
X33641705Y15491401D01*
X33798942Y15110857D01*
X34034843Y14874544D01*
X33965180Y14706777D01*
X33964821Y14295029D01*
X34004902Y14198025D01*
X33843881Y14090435D01*
X31838447Y12085000D01*
X14928343Y12085000D01*
X14608803Y12021440D01*
X14337909Y11840434D01*
X13900609Y11403134D01*
X13719604Y11132241D01*
X13671731Y10891567D01*
X13614124Y10834061D01*
X13456223Y10453792D01*
X13455864Y10042044D01*
X9160455Y10042044D01*
X9060097Y10284329D01*
X8809199Y10374537D01*
X8927245Y10492583D01*
X8858240Y10561588D01*
X9051441Y10685910D01*
X9196431Y10898110D01*
X9247440Y11150000D01*
X9247440Y12950000D01*
X9203162Y13185317D01*
X9064090Y13401441D01*
X8851890Y13546431D01*
X8600000Y13597440D01*
X6800000Y13597440D01*
X6564683Y13553162D01*
X6348559Y13414090D01*
X6203569Y13201890D01*
X6199433Y13181466D01*
X6030643Y13350551D01*
X5466670Y13584733D01*
X4856009Y13585265D01*
X4291629Y13352068D01*
X3859449Y12920643D01*
X3625267Y12356670D01*
X3624735Y11746009D01*
X685000Y11746009D01*
X685000Y18045029D01*
X4214821Y18045029D01*
X4372058Y17664485D01*
X4662954Y17373081D01*
X5043223Y17215180D01*
X5454971Y17214821D01*
X5835515Y17372058D01*
X6126919Y17662954D01*
X6284820Y18043223D01*
X6284873Y18104005D01*
X6395869Y18215001D01*
X6714969Y18215001D01*
X6714821Y18045029D01*
X6872058Y17664485D01*
X7162954Y17373081D01*
X7543223Y17215180D01*
X7604005Y17215127D01*
X8659566Y16159566D01*
X8930459Y15978561D01*
X9250000Y15915000D01*
X19871108Y15915000D01*
X19912954Y15873081D01*
X20293223Y15715180D01*
X20601222Y15714911D01*
X20622058Y15664485D01*
X20912954Y15373081D01*
X21293223Y15215180D01*
X21704971Y15214821D01*
X22085515Y15372058D01*
X22376919Y15662954D01*
X22534820Y16043223D01*
X22535179Y16454971D01*
X22377942Y16835515D01*
X22335000Y16878532D01*
X22335000Y17000000D01*
X22271439Y17319541D01*
X22090434Y17590434D01*
X21340434Y18340434D01*
X21166314Y18456777D01*
X21069541Y18521439D01*
X20750000Y18585000D01*
X10095868Y18585000D01*
X9040433Y19640435D01*
X9011801Y19659566D01*
X8769540Y19821440D01*
X8449999Y19885001D01*
X6050001Y19885001D01*
X5730460Y19821440D01*
X5488199Y19659566D01*
X5459567Y19640435D01*
X5104259Y19285127D01*
X5045029Y19285179D01*
X4664485Y19127942D01*
X4373081Y18837046D01*
X4215180Y18456777D01*
X4214821Y18045029D01*
X685000Y18045029D01*
X685000Y25085715D01*
X34374135Y25085715D01*
X34531372Y24705171D01*
X34822268Y24413767D01*
X35202537Y24255866D01*
X35614285Y24255507D01*
X35994829Y24412744D01*
X36037846Y24455686D01*
X38661794Y24455686D01*
X38703640Y24413767D01*
X39083909Y24255866D01*
X39495657Y24255507D01*
X39876201Y24412744D01*
X40167605Y24703640D01*
X40325506Y25083909D01*
X40325865Y25495657D01*
X40168628Y25876201D01*
X39877732Y26167605D01*
X39497463Y26325506D01*
X39085715Y26325865D01*
X38705171Y26168628D01*
X38662154Y26125686D01*
X36038206Y26125686D01*
X35996360Y26167605D01*
X35616091Y26325506D01*
X35204343Y26325865D01*
X34823799Y26168628D01*
X34532395Y25877732D01*
X34374494Y25497463D01*
X34374135Y25085715D01*
X685000Y25085715D01*
X685000Y33556891D01*
X5304657Y33556891D01*
X5606218Y32827057D01*
X6164120Y32268181D01*
X6893427Y31965346D01*
X7683109Y31964657D01*
X8412943Y32266218D01*
X8971819Y32824120D01*
X9274654Y33553427D01*
X9275343Y34343109D01*
X8973782Y35072943D01*
X8415880Y35631819D01*
X7686573Y35934654D01*
X6896891Y35935343D01*
X6167057Y35633782D01*
X5608181Y35075880D01*
X5305346Y34346573D01*
X5304657Y33556891D01*
X685000Y33556891D01*
X685000Y37692598D01*
X9237257Y37692598D01*
X9310142Y37456167D01*
X9838649Y37286851D01*
X10391719Y37332674D01*
X10689858Y37456167D01*
X10762743Y37692598D01*
X10000000Y38455341D01*
X9237257Y37692598D01*
X685000Y37692598D01*
X685000Y38861351D01*
X8586851Y38861351D01*
X8632674Y38308281D01*
X8756167Y38010142D01*
X8992598Y37937257D01*
X9755341Y38700000D01*
X8992598Y39462743D01*
X8756167Y39389858D01*
X8586851Y38861351D01*
X685000Y38861351D01*
X685000Y40923735D01*
X8604758Y40923735D01*
X8816687Y40410828D01*
X9208764Y40018066D01*
X9348887Y39959882D01*
X9310142Y39943833D01*
X9237257Y39707402D01*
X10000000Y38944659D01*
X10762743Y39707402D01*
X10689858Y39943833D01*
X10646483Y39957729D01*
X10789172Y40016687D01*
X11000024Y40227171D01*
X11208764Y40018066D01*
X11372454Y39950096D01*
X11210828Y39883313D01*
X10818066Y39491236D01*
X10663387Y39118728D01*
X10244659Y38700000D01*
X10663788Y38280871D01*
X10816687Y37910828D01*
X11208764Y37518066D01*
X11721300Y37305242D01*
X12276265Y37304758D01*
X12789172Y37516687D01*
X13181934Y37908764D01*
X13394758Y38421300D01*
X13395242Y38976265D01*
X13183313Y39489172D01*
X12791236Y39881934D01*
X12627546Y39949904D01*
X12789172Y40016687D01*
X13181934Y40408764D01*
X13394758Y40921300D01*
X13395049Y41255421D01*
X20014786Y41255421D01*
X20202408Y40801343D01*
X20549515Y40453629D01*
X21003266Y40265215D01*
X21162634Y40265076D01*
X21887201Y39540509D01*
X21765215Y39246734D01*
X21764786Y38755421D01*
X21952408Y38301343D01*
X22065000Y38188554D01*
X22065000Y29561662D01*
X21953629Y29450485D01*
X21765215Y28996734D01*
X21764786Y28505421D01*
X21952408Y28051343D01*
X22299515Y27703629D01*
X22753266Y27515215D01*
X23244579Y27514786D01*
X23698657Y27702408D01*
X23791439Y27795029D01*
X32964821Y27795029D01*
X33122058Y27414485D01*
X33412954Y27123081D01*
X33793223Y26965180D01*
X34204971Y26964821D01*
X34585515Y27122058D01*
X34628532Y27165000D01*
X39250000Y27165000D01*
X39569541Y27228561D01*
X39840434Y27409566D01*
X40340434Y27909566D01*
X40521440Y28180460D01*
X40585000Y28500000D01*
X40585000Y28871108D01*
X40626919Y28912954D01*
X40784820Y29293223D01*
X40785179Y29704971D01*
X40627942Y30085515D01*
X40337046Y30376919D01*
X39956777Y30534820D01*
X39648778Y30535089D01*
X39627942Y30585515D01*
X39337046Y30876919D01*
X38956777Y31034820D01*
X38785027Y31034970D01*
X38785175Y31204971D01*
X38627938Y31585515D01*
X38337042Y31876919D01*
X37956773Y32034820D01*
X37545025Y32035179D01*
X37164481Y31877942D01*
X37121464Y31835000D01*
X35378892Y31835000D01*
X35337046Y31876919D01*
X34956777Y32034820D01*
X34545029Y32035179D01*
X34164485Y31877942D01*
X33873081Y31587046D01*
X33715180Y31206777D01*
X33714821Y30795029D01*
X33748872Y30712618D01*
X33623081Y30587046D01*
X33465180Y30206777D01*
X33464821Y29795029D01*
X33498872Y29712618D01*
X33373081Y29587046D01*
X33215180Y29206777D01*
X33214821Y28795029D01*
X33248872Y28712618D01*
X33123081Y28587046D01*
X32965180Y28206777D01*
X32964821Y27795029D01*
X23791439Y27795029D01*
X24046371Y28049515D01*
X24234785Y28503266D01*
X24235214Y28994579D01*
X24047592Y29448657D01*
X23935000Y29561446D01*
X23935000Y38188338D01*
X24046371Y38299515D01*
X24234785Y38753266D01*
X24235214Y39244579D01*
X24047592Y39698657D01*
X23919736Y39826737D01*
X23863827Y40107809D01*
X23661145Y40411145D01*
X22572290Y41500000D01*
X24137290Y43065000D01*
X36112710Y43065000D01*
X38014923Y41162787D01*
X38014786Y41005421D01*
X38202408Y40551343D01*
X38315000Y40438554D01*
X38315000Y36160000D01*
X35311662Y36160000D01*
X35200485Y36271371D01*
X34746734Y36459785D01*
X34255421Y36460214D01*
X33801343Y36272592D01*
X33453629Y35925485D01*
X33265215Y35471734D01*
X33264786Y34980421D01*
X33452408Y34526343D01*
X33799515Y34178629D01*
X34253266Y33990215D01*
X34744579Y33989786D01*
X35198657Y34177408D01*
X35311446Y34290000D01*
X43387710Y34290000D01*
X47514923Y30162787D01*
X47514786Y30005421D01*
X47702408Y29551343D01*
X48049515Y29203629D01*
X48503266Y29015215D01*
X48994579Y29014786D01*
X49448657Y29202408D01*
X49796371Y29549515D01*
X49984785Y30003266D01*
X49985214Y30494579D01*
X49797592Y30948657D01*
X49450485Y31296371D01*
X48996734Y31484785D01*
X48837366Y31484924D01*
X44436145Y35886145D01*
X44132809Y36088827D01*
X43775000Y36160000D01*
X40185000Y36160000D01*
X40185000Y40438338D01*
X40296371Y40549515D01*
X40484785Y41003266D01*
X40485214Y41494579D01*
X40297592Y41948657D01*
X39950485Y42296371D01*
X39496734Y42484785D01*
X39337366Y42484924D01*
X37161145Y44661145D01*
X36857809Y44863827D01*
X36500000Y44935000D01*
X23750000Y44935000D01*
X23392191Y44863827D01*
X23088855Y44661145D01*
X21162787Y42735077D01*
X21005421Y42735214D01*
X20551343Y42547592D01*
X20203629Y42200485D01*
X20015215Y41746734D01*
X20014786Y41255421D01*
X13395049Y41255421D01*
X13395242Y41476265D01*
X13183313Y41989172D01*
X12791236Y42381934D01*
X12278700Y42594758D01*
X11723735Y42595242D01*
X11210828Y42383313D01*
X10999976Y42172829D01*
X10791236Y42381934D01*
X10278700Y42594758D01*
X9723735Y42595242D01*
X9210828Y42383313D01*
X8818066Y41991236D01*
X8605242Y41478700D01*
X8604758Y40923735D01*
X685000Y40923735D01*
X685000Y45556891D01*
X5304657Y45556891D01*
X5606218Y44827057D01*
X6164120Y44268181D01*
X6893427Y43965346D01*
X7683109Y43964657D01*
X8412943Y44266218D01*
X8971819Y44824120D01*
X9274654Y45553427D01*
X9275343Y46343109D01*
X8973782Y47072943D01*
X8415880Y47631819D01*
X7686573Y47934654D01*
X6896891Y47935343D01*
X6167057Y47633782D01*
X5608181Y47075880D01*
X5305346Y46346573D01*
X5304657Y45556891D01*
X685000Y45556891D01*
X685000Y53123000D01*
X2369506Y53123000D01*
X2029996Y52784082D01*
X2029996Y52784082D01*
G37*
X2029996Y52784082D02*
X1765301Y52146627D01*
X1764699Y51456401D01*
X2028281Y50818485D01*
X2515918Y50329996D01*
X3153373Y50065301D01*
X3843599Y50064699D01*
X4481515Y50328281D01*
X4970004Y50815918D01*
X4977927Y50835000D01*
X41400715Y50835000D01*
X41400715Y47015000D01*
X51599285Y47015000D01*
X51599285Y50835000D01*
X41400715Y50835000D01*
X4977927Y50835000D01*
X5234699Y51453373D01*
X5235301Y52143599D01*
X4971719Y52781515D01*
X4630830Y53123000D01*
X53623000Y53123000D01*
X53623000Y2127000D01*
X4580406Y2127000D01*
X4970004Y2515918D01*
X5234699Y3153373D01*
X5235301Y3843599D01*
X4971719Y4481515D01*
X4484082Y4970004D01*
X3846627Y5234699D01*
X3156401Y5235301D01*
X2518485Y4971719D01*
X2029996Y4484082D01*
X1765301Y3846627D01*
X1764699Y3156401D01*
X2028281Y2518485D01*
X2419083Y2127000D01*
X685000Y2127000D01*
X685000Y8400803D01*
X4295462Y8400803D01*
X4385671Y8149903D01*
X4965100Y7957111D01*
X5574201Y8000733D01*
X5934329Y8149903D01*
X6024538Y8400803D01*
X6835462Y8400803D01*
X6925671Y8149903D01*
X7505100Y7957111D01*
X8114201Y8000733D01*
X8474329Y8149903D01*
X8564538Y8400803D01*
X7700000Y9265341D01*
X6835462Y8400803D01*
X6024538Y8400803D01*
X5160000Y9265341D01*
X4295462Y8400803D01*
X685000Y8400803D01*
X685000Y9704900D01*
X3607111Y9704900D01*
X3650733Y9095799D01*
X3799903Y8735671D01*
X4050803Y8645462D01*
X4915341Y9510000D01*
X4050803Y10374538D01*
X3799903Y10284329D01*
X3607111Y9704900D01*
X685000Y9704900D01*
X685000Y11746009D01*
X3624735Y11746009D01*
X3857932Y11181629D01*
X4289357Y10749449D01*
X4335417Y10730323D01*
X4295462Y10619197D01*
X5160000Y9754659D01*
X6024538Y10619197D01*
X5984735Y10729902D01*
X6028371Y10747932D01*
X6196613Y10915880D01*
X6196838Y10914683D01*
X6335910Y10698559D01*
X6539574Y10559402D01*
X6472755Y10492583D01*
X6590801Y10374537D01*
X6430000Y10316723D01*
X6269197Y10374538D01*
X5404659Y9510000D01*
X6269197Y8645462D01*
X6430000Y8703277D01*
X6590803Y8645462D01*
X7455341Y9510000D01*
X7441199Y9524142D01*
X7685858Y9768801D01*
X7700000Y9754659D01*
X7714142Y9768801D01*
X7958801Y9524142D01*
X7944659Y9510000D01*
X8809197Y8645462D01*
X9060097Y8735671D01*
X9252889Y9315100D01*
X9209267Y9924201D01*
X9160455Y10042044D01*
X13455864Y10042044D01*
X13613101Y9661500D01*
X13903997Y9370096D01*
X14284266Y9212195D01*
X14696014Y9211836D01*
X14999392Y9337189D01*
X15293223Y9215180D01*
X15704971Y9214821D01*
X16085515Y9372058D01*
X16128532Y9415000D01*
X19465144Y9415000D01*
X19464821Y9045029D01*
X19622058Y8664485D01*
X19840179Y8445983D01*
X19746734Y8484785D01*
X19255421Y8485214D01*
X18801343Y8297592D01*
X18453629Y7950485D01*
X18265215Y7496734D01*
X18264786Y7005421D01*
X18452408Y6551343D01*
X18799515Y6203629D01*
X19253266Y6015215D01*
X19744579Y6014786D01*
X20198657Y6202408D01*
X20311446Y6315000D01*
X22972926Y6315000D01*
X22619946Y6079147D01*
X22298039Y5597378D01*
X22185000Y5029093D01*
X22185000Y4970907D01*
X22298039Y4402622D01*
X22619946Y3920853D01*
X23101715Y3598946D01*
X23670000Y3485907D01*
X24238285Y3598946D01*
X24720054Y3920853D01*
X24940000Y4250026D01*
X25159946Y3920853D01*
X25641715Y3598946D01*
X26210000Y3485907D01*
X26778285Y3598946D01*
X27260054Y3920853D01*
X27489865Y4264790D01*
X27582832Y4081859D01*
X28023035Y3705092D01*
X28348407Y3570333D01*
X28577000Y3685082D01*
X28577000Y4827000D01*
X28557000Y4827000D01*
X28557000Y5173000D01*
X28577000Y5173000D01*
X28577000Y5193000D01*
X28923000Y5193000D01*
X28923000Y5173000D01*
X28943000Y5173000D01*
X28943000Y4827000D01*
X28923000Y4827000D01*
X28923000Y3685082D01*
X29151593Y3570333D01*
X29476965Y3705092D01*
X29917168Y4081859D01*
X30010135Y4264790D01*
X30239946Y3920853D01*
X30721715Y3598946D01*
X31290000Y3485907D01*
X31858285Y3598946D01*
X32340054Y3920853D01*
X32367850Y3962452D01*
X32376838Y3914683D01*
X32515910Y3698559D01*
X32728110Y3553569D01*
X32980000Y3502560D01*
X34680000Y3502560D01*
X34915317Y3546838D01*
X35131441Y3685910D01*
X35276431Y3898110D01*
X35327440Y4150000D01*
X35327440Y5850000D01*
X35283162Y6085317D01*
X35144090Y6301441D01*
X35124246Y6315000D01*
X35688338Y6315000D01*
X35799515Y6203629D01*
X36253266Y6015215D01*
X36744579Y6014786D01*
X37198657Y6202408D01*
X37546371Y6549515D01*
X37734785Y7003266D01*
X37735214Y7494579D01*
X37685461Y7614990D01*
X40699990Y7614990D01*
X41019531Y7678551D01*
X41290424Y7859556D01*
X49090434Y15659566D01*
X49094065Y15665000D01*
X49271439Y15930459D01*
X49335000Y16250000D01*
X49335000Y18121108D01*
X49376919Y18162954D01*
X49534820Y18543223D01*
X49535179Y18954971D01*
X49377942Y19335515D01*
X49087046Y19626919D01*
X48706777Y19784820D01*
X48335000Y19785144D01*
X48335000Y19904132D01*
X48645741Y20214873D01*
X48704971Y20214821D01*
X49085515Y20372058D01*
X49376919Y20662954D01*
X49534820Y21043223D01*
X49535179Y21454971D01*
X49377942Y21835515D01*
X49087046Y22126919D01*
X48706777Y22284820D01*
X48295029Y22285179D01*
X47914485Y22127942D01*
X47623081Y21837046D01*
X47465180Y21456777D01*
X47465127Y21395995D01*
X46909566Y20840434D01*
X46728561Y20569541D01*
X46665000Y20250000D01*
X46665000Y16595868D01*
X40154132Y10085000D01*
X33515868Y10085000D01*
X34895741Y11464873D01*
X34954971Y11464821D01*
X35335515Y11622058D01*
X35626919Y11912954D01*
X35784820Y12293223D01*
X35785179Y12704971D01*
X35751128Y12787382D01*
X35876919Y12912954D01*
X36034820Y13293223D01*
X36035144Y13665000D01*
X40621112Y13665000D01*
X40662958Y13623081D01*
X41043227Y13465180D01*
X41454975Y13464821D01*
X41835519Y13622058D01*
X42126923Y13912954D01*
X42284824Y14293223D01*
X42285183Y14704971D01*
X42127946Y15085515D01*
X42001272Y15212410D01*
X42034828Y15293223D01*
X42035187Y15704971D01*
X41877950Y16085515D01*
X41751267Y16212419D01*
X41784820Y16293223D01*
X41785179Y16704971D01*
X41627942Y17085515D01*
X41337046Y17376919D01*
X40956777Y17534820D01*
X40545029Y17535179D01*
X40179892Y17384308D01*
X34783737Y17384308D01*
X34741891Y17426227D01*
X34361622Y17584128D01*
X33949874Y17584487D01*
X33569330Y17427250D01*
X33277926Y17136354D01*
X33120025Y16756085D01*
X33119666Y16344337D01*
X33276903Y15963793D01*
X33567799Y15672389D01*
X33641836Y15641646D01*
X33641705Y15491401D01*
X33798942Y15110857D01*
X34034843Y14874544D01*
X33965180Y14706777D01*
X33964821Y14295029D01*
X34004902Y14198025D01*
X33843881Y14090435D01*
X31838447Y12085000D01*
X14928343Y12085000D01*
X14608803Y12021440D01*
X14337909Y11840434D01*
X13900609Y11403134D01*
X13719604Y11132241D01*
X13671731Y10891567D01*
X13614124Y10834061D01*
X13456223Y10453792D01*
X13455864Y10042044D01*
X9160455Y10042044D01*
X9060097Y10284329D01*
X8809199Y10374537D01*
X8927245Y10492583D01*
X8858240Y10561588D01*
X9051441Y10685910D01*
X9196431Y10898110D01*
X9247440Y11150000D01*
X9247440Y12950000D01*
X9203162Y13185317D01*
X9064090Y13401441D01*
X8851890Y13546431D01*
X8600000Y13597440D01*
X6800000Y13597440D01*
X6564683Y13553162D01*
X6348559Y13414090D01*
X6203569Y13201890D01*
X6199433Y13181466D01*
X6030643Y13350551D01*
X5466670Y13584733D01*
X4856009Y13585265D01*
X4291629Y13352068D01*
X3859449Y12920643D01*
X3625267Y12356670D01*
X3624735Y11746009D01*
X685000Y11746009D01*
X685000Y18045029D01*
X4214821Y18045029D01*
X4372058Y17664485D01*
X4662954Y17373081D01*
X5043223Y17215180D01*
X5454971Y17214821D01*
X5835515Y17372058D01*
X6126919Y17662954D01*
X6284820Y18043223D01*
X6284873Y18104005D01*
X6395869Y18215001D01*
X6714969Y18215001D01*
X6714821Y18045029D01*
X6872058Y17664485D01*
X7162954Y17373081D01*
X7543223Y17215180D01*
X7604005Y17215127D01*
X8659566Y16159566D01*
X8930459Y15978561D01*
X9250000Y15915000D01*
X19871108Y15915000D01*
X19912954Y15873081D01*
X20293223Y15715180D01*
X20601222Y15714911D01*
X20622058Y15664485D01*
X20912954Y15373081D01*
X21293223Y15215180D01*
X21704971Y15214821D01*
X22085515Y15372058D01*
X22376919Y15662954D01*
X22534820Y16043223D01*
X22535179Y16454971D01*
X22377942Y16835515D01*
X22335000Y16878532D01*
X22335000Y17000000D01*
X22271439Y17319541D01*
X22090434Y17590434D01*
X21340434Y18340434D01*
X21166314Y18456777D01*
X21069541Y18521439D01*
X20750000Y18585000D01*
X10095868Y18585000D01*
X9040433Y19640435D01*
X9011801Y19659566D01*
X8769540Y19821440D01*
X8449999Y19885001D01*
X6050001Y19885001D01*
X5730460Y19821440D01*
X5488199Y19659566D01*
X5459567Y19640435D01*
X5104259Y19285127D01*
X5045029Y19285179D01*
X4664485Y19127942D01*
X4373081Y18837046D01*
X4215180Y18456777D01*
X4214821Y18045029D01*
X685000Y18045029D01*
X685000Y25085715D01*
X34374135Y25085715D01*
X34531372Y24705171D01*
X34822268Y24413767D01*
X35202537Y24255866D01*
X35614285Y24255507D01*
X35994829Y24412744D01*
X36037846Y24455686D01*
X38661794Y24455686D01*
X38703640Y24413767D01*
X39083909Y24255866D01*
X39495657Y24255507D01*
X39876201Y24412744D01*
X40167605Y24703640D01*
X40325506Y25083909D01*
X40325865Y25495657D01*
X40168628Y25876201D01*
X39877732Y26167605D01*
X39497463Y26325506D01*
X39085715Y26325865D01*
X38705171Y26168628D01*
X38662154Y26125686D01*
X36038206Y26125686D01*
X35996360Y26167605D01*
X35616091Y26325506D01*
X35204343Y26325865D01*
X34823799Y26168628D01*
X34532395Y25877732D01*
X34374494Y25497463D01*
X34374135Y25085715D01*
X685000Y25085715D01*
X685000Y33556891D01*
X5304657Y33556891D01*
X5606218Y32827057D01*
X6164120Y32268181D01*
X6893427Y31965346D01*
X7683109Y31964657D01*
X8412943Y32266218D01*
X8971819Y32824120D01*
X9274654Y33553427D01*
X9275343Y34343109D01*
X8973782Y35072943D01*
X8415880Y35631819D01*
X7686573Y35934654D01*
X6896891Y35935343D01*
X6167057Y35633782D01*
X5608181Y35075880D01*
X5305346Y34346573D01*
X5304657Y33556891D01*
X685000Y33556891D01*
X685000Y37692598D01*
X9237257Y37692598D01*
X9310142Y37456167D01*
X9838649Y37286851D01*
X10391719Y37332674D01*
X10689858Y37456167D01*
X10762743Y37692598D01*
X10000000Y38455341D01*
X9237257Y37692598D01*
X685000Y37692598D01*
X685000Y38861351D01*
X8586851Y38861351D01*
X8632674Y38308281D01*
X8756167Y38010142D01*
X8992598Y37937257D01*
X9755341Y38700000D01*
X8992598Y39462743D01*
X8756167Y39389858D01*
X8586851Y38861351D01*
X685000Y38861351D01*
X685000Y40923735D01*
X8604758Y40923735D01*
X8816687Y40410828D01*
X9208764Y40018066D01*
X9348887Y39959882D01*
X9310142Y39943833D01*
X9237257Y39707402D01*
X10000000Y38944659D01*
X10762743Y39707402D01*
X10689858Y39943833D01*
X10646483Y39957729D01*
X10789172Y40016687D01*
X11000024Y40227171D01*
X11208764Y40018066D01*
X11372454Y39950096D01*
X11210828Y39883313D01*
X10818066Y39491236D01*
X10663387Y39118728D01*
X10244659Y38700000D01*
X10663788Y38280871D01*
X10816687Y37910828D01*
X11208764Y37518066D01*
X11721300Y37305242D01*
X12276265Y37304758D01*
X12789172Y37516687D01*
X13181934Y37908764D01*
X13394758Y38421300D01*
X13395242Y38976265D01*
X13183313Y39489172D01*
X12791236Y39881934D01*
X12627546Y39949904D01*
X12789172Y40016687D01*
X13181934Y40408764D01*
X13394758Y40921300D01*
X13395049Y41255421D01*
X20014786Y41255421D01*
X20202408Y40801343D01*
X20549515Y40453629D01*
X21003266Y40265215D01*
X21162634Y40265076D01*
X21887201Y39540509D01*
X21765215Y39246734D01*
X21764786Y38755421D01*
X21952408Y38301343D01*
X22065000Y38188554D01*
X22065000Y29561662D01*
X21953629Y29450485D01*
X21765215Y28996734D01*
X21764786Y28505421D01*
X21952408Y28051343D01*
X22299515Y27703629D01*
X22753266Y27515215D01*
X23244579Y27514786D01*
X23698657Y27702408D01*
X23791439Y27795029D01*
X32964821Y27795029D01*
X33122058Y27414485D01*
X33412954Y27123081D01*
X33793223Y26965180D01*
X34204971Y26964821D01*
X34585515Y27122058D01*
X34628532Y27165000D01*
X39250000Y27165000D01*
X39569541Y27228561D01*
X39840434Y27409566D01*
X40340434Y27909566D01*
X40521440Y28180460D01*
X40585000Y28500000D01*
X40585000Y28871108D01*
X40626919Y28912954D01*
X40784820Y29293223D01*
X40785179Y29704971D01*
X40627942Y30085515D01*
X40337046Y30376919D01*
X39956777Y30534820D01*
X39648778Y30535089D01*
X39627942Y30585515D01*
X39337046Y30876919D01*
X38956777Y31034820D01*
X38785027Y31034970D01*
X38785175Y31204971D01*
X38627938Y31585515D01*
X38337042Y31876919D01*
X37956773Y32034820D01*
X37545025Y32035179D01*
X37164481Y31877942D01*
X37121464Y31835000D01*
X35378892Y31835000D01*
X35337046Y31876919D01*
X34956777Y32034820D01*
X34545029Y32035179D01*
X34164485Y31877942D01*
X33873081Y31587046D01*
X33715180Y31206777D01*
X33714821Y30795029D01*
X33748872Y30712618D01*
X33623081Y30587046D01*
X33465180Y30206777D01*
X33464821Y29795029D01*
X33498872Y29712618D01*
X33373081Y29587046D01*
X33215180Y29206777D01*
X33214821Y28795029D01*
X33248872Y28712618D01*
X33123081Y28587046D01*
X32965180Y28206777D01*
X32964821Y27795029D01*
X23791439Y27795029D01*
X24046371Y28049515D01*
X24234785Y28503266D01*
X24235214Y28994579D01*
X24047592Y29448657D01*
X23935000Y29561446D01*
X23935000Y38188338D01*
X24046371Y38299515D01*
X24234785Y38753266D01*
X24235214Y39244579D01*
X24047592Y39698657D01*
X23919736Y39826737D01*
X23863827Y40107809D01*
X23661145Y40411145D01*
X22572290Y41500000D01*
X24137290Y43065000D01*
X36112710Y43065000D01*
X38014923Y41162787D01*
X38014786Y41005421D01*
X38202408Y40551343D01*
X38315000Y40438554D01*
X38315000Y36160000D01*
X35311662Y36160000D01*
X35200485Y36271371D01*
X34746734Y36459785D01*
X34255421Y36460214D01*
X33801343Y36272592D01*
X33453629Y35925485D01*
X33265215Y35471734D01*
X33264786Y34980421D01*
X33452408Y34526343D01*
X33799515Y34178629D01*
X34253266Y33990215D01*
X34744579Y33989786D01*
X35198657Y34177408D01*
X35311446Y34290000D01*
X43387710Y34290000D01*
X47514923Y30162787D01*
X47514786Y30005421D01*
X47702408Y29551343D01*
X48049515Y29203629D01*
X48503266Y29015215D01*
X48994579Y29014786D01*
X49448657Y29202408D01*
X49796371Y29549515D01*
X49984785Y30003266D01*
X49985214Y30494579D01*
X49797592Y30948657D01*
X49450485Y31296371D01*
X48996734Y31484785D01*
X48837366Y31484924D01*
X44436145Y35886145D01*
X44132809Y36088827D01*
X43775000Y36160000D01*
X40185000Y36160000D01*
X40185000Y40438338D01*
X40296371Y40549515D01*
X40484785Y41003266D01*
X40485214Y41494579D01*
X40297592Y41948657D01*
X39950485Y42296371D01*
X39496734Y42484785D01*
X39337366Y42484924D01*
X37161145Y44661145D01*
X36857809Y44863827D01*
X36500000Y44935000D01*
X23750000Y44935000D01*
X23392191Y44863827D01*
X23088855Y44661145D01*
X21162787Y42735077D01*
X21005421Y42735214D01*
X20551343Y42547592D01*
X20203629Y42200485D01*
X20015215Y41746734D01*
X20014786Y41255421D01*
X13395049Y41255421D01*
X13395242Y41476265D01*
X13183313Y41989172D01*
X12791236Y42381934D01*
X12278700Y42594758D01*
X11723735Y42595242D01*
X11210828Y42383313D01*
X10999976Y42172829D01*
X10791236Y42381934D01*
X10278700Y42594758D01*
X9723735Y42595242D01*
X9210828Y42383313D01*
X8818066Y41991236D01*
X8605242Y41478700D01*
X8604758Y40923735D01*
X685000Y40923735D01*
X685000Y45556891D01*
X5304657Y45556891D01*
X5606218Y44827057D01*
X6164120Y44268181D01*
X6893427Y43965346D01*
X7683109Y43964657D01*
X8412943Y44266218D01*
X8971819Y44824120D01*
X9274654Y45553427D01*
X9275343Y46343109D01*
X8973782Y47072943D01*
X8415880Y47631819D01*
X7686573Y47934654D01*
X6896891Y47935343D01*
X6167057Y47633782D01*
X5608181Y47075880D01*
X5305346Y46346573D01*
X5304657Y45556891D01*
X685000Y45556891D01*
X685000Y53123000D01*
X2369506Y53123000D01*
X2029996Y52784082D01*
M02*
