G04 #@! TF.FileFunction,Copper,L1,Top,Signal*
%FSLAX46Y46*%
G04 Gerber Fmt 4.6, Leading zero omitted, Abs format (unit mm)*
G04 Created by KiCad (PCBNEW 4.0.7) date Fri Feb 16 20:15:51 2018*
%MOMM*%
%LPD*%
G01*
G04 APERTURE LIST*
%ADD10C,0.100000*%
%ADD11C,0.300000*%
%ADD12C,1.200000*%
%ADD13C,1.000000*%
%ADD14C,1.520000*%
%ADD15C,2.700000*%
%ADD16R,1.750000X0.450000*%
%ADD17R,1.700000X1.700000*%
%ADD18O,1.700000X1.700000*%
%ADD19R,1.000000X1.250000*%
%ADD20R,2.350000X0.650000*%
%ADD21R,0.700000X2.540000*%
%ADD22R,1.200000X2.850000*%
%ADD23C,1.800000*%
%ADD24R,1.800000X1.800000*%
%ADD25R,0.900000X1.700000*%
%ADD26R,1.600000X1.600000*%
%ADD27O,1.600000X1.600000*%
%ADD28C,1.600000*%
%ADD29C,4.000000*%
%ADD30R,1.200000X1.400000*%
%ADD31R,0.700000X1.300000*%
%ADD32R,1.300000X0.700000*%
%ADD33R,1.950000X2.500000*%
%ADD34R,1.950000X1.500000*%
%ADD35R,1.250000X1.000000*%
%ADD36R,0.900000X0.800000*%
%ADD37R,1.060000X0.650000*%
%ADD38C,0.800000*%
%ADD39C,0.400000*%
%ADD40C,0.600000*%
%ADD41C,0.254000*%
G04 APERTURE END LIST*
D10*
D11*
X46785714Y3821429D02*
X47642857Y3821429D01*
X47214286Y2321429D02*
X47214286Y3821429D01*
X48428571Y3821429D02*
X48714285Y3821429D01*
X48857143Y3750000D01*
X49000000Y3607143D01*
X49071428Y3321429D01*
X49071428Y2821429D01*
X49000000Y2535714D01*
X48857143Y2392857D01*
X48714285Y2321429D01*
X48428571Y2321429D01*
X48285714Y2392857D01*
X48142857Y2535714D01*
X48071428Y2821429D01*
X48071428Y3321429D01*
X48142857Y3607143D01*
X48285714Y3750000D01*
X48428571Y3821429D01*
X49714286Y2321429D02*
X49714286Y3821429D01*
X50285714Y3821429D01*
X50428572Y3750000D01*
X50500000Y3678571D01*
X50571429Y3535714D01*
X50571429Y3321429D01*
X50500000Y3178571D01*
X50428572Y3107143D01*
X50285714Y3035714D01*
X49714286Y3035714D01*
X23000000Y49321429D02*
X23000000Y47821429D01*
X23000000Y49250000D02*
X23142857Y49321429D01*
X23428571Y49321429D01*
X23571428Y49250000D01*
X23642857Y49178571D01*
X23714286Y49035714D01*
X23714286Y48607143D01*
X23642857Y48464286D01*
X23571428Y48392857D01*
X23428571Y48321429D01*
X23142857Y48321429D01*
X23000000Y48392857D01*
X24357143Y48321429D02*
X24357143Y49321429D01*
X24357143Y49821429D02*
X24285714Y49750000D01*
X24357143Y49678571D01*
X24428571Y49750000D01*
X24357143Y49821429D01*
X24357143Y49678571D01*
X25714286Y48392857D02*
X25571429Y48321429D01*
X25285715Y48321429D01*
X25142857Y48392857D01*
X25071429Y48464286D01*
X25000000Y48607143D01*
X25000000Y49035714D01*
X25071429Y49178571D01*
X25142857Y49250000D01*
X25285715Y49321429D01*
X25571429Y49321429D01*
X25714286Y49250000D01*
X27000000Y48321429D02*
X27000000Y49107143D01*
X26928571Y49250000D01*
X26785714Y49321429D01*
X26500000Y49321429D01*
X26357143Y49250000D01*
X27000000Y48392857D02*
X26857143Y48321429D01*
X26500000Y48321429D01*
X26357143Y48392857D01*
X26285714Y48535714D01*
X26285714Y48678571D01*
X26357143Y48821429D01*
X26500000Y48892857D01*
X26857143Y48892857D01*
X27000000Y48964286D01*
X27714286Y49321429D02*
X27714286Y48321429D01*
X27714286Y49178571D02*
X27785714Y49250000D01*
X27928572Y49321429D01*
X28142857Y49321429D01*
X28285714Y49250000D01*
X28357143Y49107143D01*
X28357143Y48321429D01*
X29071429Y48892857D02*
X30214286Y48892857D01*
X31571429Y49321429D02*
X31571429Y48321429D01*
X30928572Y49321429D02*
X30928572Y48535714D01*
X31000000Y48392857D01*
X31142858Y48321429D01*
X31357143Y48321429D01*
X31500000Y48392857D01*
X31571429Y48464286D01*
X32214286Y48392857D02*
X32357143Y48321429D01*
X32642858Y48321429D01*
X32785715Y48392857D01*
X32857143Y48535714D01*
X32857143Y48607143D01*
X32785715Y48750000D01*
X32642858Y48821429D01*
X32428572Y48821429D01*
X32285715Y48892857D01*
X32214286Y49035714D01*
X32214286Y49107143D01*
X32285715Y49250000D01*
X32428572Y49321429D01*
X32642858Y49321429D01*
X32785715Y49250000D01*
X33500001Y48321429D02*
X33500001Y49821429D01*
X33500001Y49250000D02*
X33642858Y49321429D01*
X33928572Y49321429D01*
X34071429Y49250000D01*
X34142858Y49178571D01*
X34214287Y49035714D01*
X34214287Y48607143D01*
X34142858Y48464286D01*
X34071429Y48392857D01*
X33928572Y48321429D01*
X33642858Y48321429D01*
X33500001Y48392857D01*
X34500001Y48178571D02*
X35642858Y48178571D01*
X35857144Y49321429D02*
X36214287Y48321429D01*
X36571429Y49321429D01*
X37928572Y48321429D02*
X37071429Y48321429D01*
X37500001Y48321429D02*
X37500001Y49821429D01*
X37357144Y49607143D01*
X37214286Y49464286D01*
X37071429Y49392857D01*
X38571429Y48464286D02*
X38642857Y48392857D01*
X38571429Y48321429D01*
X38500000Y48392857D01*
X38571429Y48464286D01*
X38571429Y48321429D01*
X39571429Y49821429D02*
X39714286Y49821429D01*
X39857143Y49750000D01*
X39928572Y49678571D01*
X40000001Y49535714D01*
X40071429Y49250000D01*
X40071429Y48892857D01*
X40000001Y48607143D01*
X39928572Y48464286D01*
X39857143Y48392857D01*
X39714286Y48321429D01*
X39571429Y48321429D01*
X39428572Y48392857D01*
X39357143Y48464286D01*
X39285715Y48607143D01*
X39214286Y48892857D01*
X39214286Y49250000D01*
X39285715Y49535714D01*
X39357143Y49678571D01*
X39428572Y49750000D01*
X39571429Y49821429D01*
D12*
X17500000Y8500000D03*
D13*
X10500000Y4000000D03*
D12*
X11000000Y30000000D03*
X16750000Y47250000D03*
X14500000Y45000000D03*
X17250000Y30750000D03*
X15500000Y32750000D03*
X17250000Y23000000D03*
X40000000Y12750000D03*
X38250000Y23000000D03*
X40000000Y18500000D03*
X45750000Y30250000D03*
X46250000Y21500000D03*
X51250000Y25750000D03*
X60000000Y38750000D03*
X52500000Y38750000D03*
X20000000Y3500000D03*
X13750000Y3500000D03*
X7500000Y3500000D03*
X2000000Y11000000D03*
X2000000Y18750000D03*
X2000000Y26250000D03*
X2000000Y33750000D03*
X2000000Y41250000D03*
X2000000Y48750000D03*
X7500000Y51750000D03*
X15000000Y51750000D03*
X22500000Y51750000D03*
X30000000Y51750000D03*
X37500000Y51750000D03*
X45000000Y51750000D03*
X52500000Y51750000D03*
X52500000Y46250000D03*
X50250000Y31500000D03*
X52500000Y34750000D03*
X37500000Y3500000D03*
X45000000Y3500000D03*
X52500000Y3500000D03*
X52500000Y8750000D03*
X51750000Y13500000D03*
X42750000Y7250000D03*
X17500000Y15250000D03*
X38000000Y33250000D03*
X28750000Y18500000D03*
X28750000Y15500000D03*
X28750000Y12750000D03*
X28750000Y21250000D03*
X28750000Y39000000D03*
X28750000Y36000000D03*
X28750000Y33250000D03*
X28750000Y41750000D03*
D14*
X12000000Y41200000D03*
X12000000Y38700000D03*
X10000000Y38700000D03*
X10000000Y41200000D03*
D15*
X7290000Y45950000D03*
X7290000Y33950000D03*
D16*
X32350000Y12775000D03*
X32350000Y13425000D03*
X32350000Y14075000D03*
X32350000Y14725000D03*
X32350000Y15375000D03*
X32350000Y16025000D03*
X32350000Y16675000D03*
X32350000Y17325000D03*
X32350000Y17975000D03*
X32350000Y18625000D03*
X32350000Y19275000D03*
X32350000Y19925000D03*
X32350000Y20575000D03*
X32350000Y21225000D03*
X25150000Y21225000D03*
X25150000Y20575000D03*
X25150000Y19925000D03*
X25150000Y19275000D03*
X25150000Y18625000D03*
X25150000Y17975000D03*
X25150000Y17325000D03*
X25150000Y16675000D03*
X25150000Y16025000D03*
X25150000Y15375000D03*
X25150000Y14725000D03*
X25150000Y14075000D03*
X25150000Y13425000D03*
X25150000Y12775000D03*
D12*
X60000000Y34750000D03*
D17*
X33830000Y5000000D03*
D18*
X31290000Y5000000D03*
X28750000Y5000000D03*
X26210000Y5000000D03*
X23670000Y5000000D03*
D19*
X31250000Y9000000D03*
X29250000Y9000000D03*
D12*
X69000000Y35750000D03*
X75750000Y18750000D03*
X75750000Y26250000D03*
X60000000Y8750000D03*
X60000000Y3500000D03*
X67500000Y3500000D03*
X75000000Y3500000D03*
X82500000Y3500000D03*
X88250000Y18750000D03*
X88250000Y26250000D03*
X88250000Y33750000D03*
X88250000Y41250000D03*
X88250000Y48750000D03*
X82500000Y51750000D03*
X75000000Y51750000D03*
X67500000Y51750000D03*
X60000000Y51750000D03*
D20*
X51700000Y23810000D03*
X60800000Y16190000D03*
X51700000Y21270000D03*
X60800000Y18730000D03*
X51700000Y18730000D03*
X60800000Y21270000D03*
X51700000Y16190000D03*
X60800000Y23810000D03*
D21*
X52460000Y31500000D03*
X55000000Y31500000D03*
X57540000Y31500000D03*
X60080000Y31500000D03*
X60080000Y41700000D03*
X57540000Y41700000D03*
X55000000Y41700000D03*
X52460000Y41700000D03*
D22*
X70000000Y16325000D03*
X72500000Y23675000D03*
X72500000Y16325000D03*
X70000000Y23675000D03*
D23*
X5160000Y9510000D03*
X5160000Y12050000D03*
D24*
X7700000Y12050000D03*
D23*
X7700000Y9510000D03*
D25*
X76450000Y9000000D03*
X73550000Y9000000D03*
X76450000Y12000000D03*
X73550000Y12000000D03*
D26*
X88000000Y9300000D03*
D27*
X80380000Y11840000D03*
X88000000Y11840000D03*
X80380000Y9300000D03*
D26*
X78700000Y26900000D03*
D28*
X78700000Y29670000D03*
X78700000Y32440000D03*
X78700000Y35210000D03*
X78700000Y37980000D03*
X81540000Y28285000D03*
X81540000Y31055000D03*
X81540000Y33825000D03*
X81540000Y36595000D03*
D29*
X80120000Y19940000D03*
X80120000Y44940000D03*
D30*
X36400000Y18600000D03*
X36400000Y16400000D03*
X38100000Y16400000D03*
X38100000Y18600000D03*
D16*
X32350000Y33275000D03*
X32350000Y33925000D03*
X32350000Y34575000D03*
X32350000Y35225000D03*
X32350000Y35875000D03*
X32350000Y36525000D03*
X32350000Y37175000D03*
X32350000Y37825000D03*
X32350000Y38475000D03*
X32350000Y39125000D03*
X32350000Y39775000D03*
X32350000Y40425000D03*
X32350000Y41075000D03*
X32350000Y41725000D03*
X25150000Y41725000D03*
X25150000Y41075000D03*
X25150000Y40425000D03*
X25150000Y39775000D03*
X25150000Y39125000D03*
X25150000Y38475000D03*
X25150000Y37825000D03*
X25150000Y37175000D03*
X25150000Y36525000D03*
X25150000Y35875000D03*
X25150000Y35225000D03*
X25150000Y34575000D03*
X25150000Y33925000D03*
X25150000Y33275000D03*
D31*
X73050000Y40250000D03*
X74950000Y40250000D03*
D32*
X5250000Y17200000D03*
X5250000Y15300000D03*
X7750000Y17200000D03*
X7750000Y15300000D03*
D31*
X36050000Y41250000D03*
X37950000Y41250000D03*
X38200000Y11500000D03*
X36300000Y11500000D03*
D32*
X38250000Y7300000D03*
X38250000Y9200000D03*
D31*
X19200000Y37750000D03*
X17300000Y37750000D03*
X9000000Y27600000D03*
X7100000Y27600000D03*
D33*
X65975000Y38500000D03*
X69025000Y38500000D03*
X48775000Y27250000D03*
X45725000Y27250000D03*
D34*
X19625000Y45000000D03*
X16875000Y45000000D03*
D19*
X36000000Y34750000D03*
X38000000Y34750000D03*
X38250000Y14000000D03*
X36250000Y14000000D03*
X19250000Y32750000D03*
X17250000Y32750000D03*
X36250000Y21000000D03*
X38250000Y21000000D03*
D35*
X40750000Y9250000D03*
X40750000Y7250000D03*
D34*
X19875000Y20750000D03*
X17125000Y20750000D03*
D19*
X17250000Y35250000D03*
X19250000Y35250000D03*
X19500000Y18000000D03*
X17500000Y18000000D03*
X7150000Y29900000D03*
X9150000Y29900000D03*
X55000000Y27250000D03*
X53000000Y27250000D03*
X48250000Y23750000D03*
X46250000Y23750000D03*
X64250000Y25250000D03*
X66250000Y25250000D03*
X66500000Y41750000D03*
X68500000Y41750000D03*
X71250000Y9000000D03*
X69250000Y9000000D03*
X75000000Y38000000D03*
X73000000Y38000000D03*
D36*
X64250000Y22950000D03*
X64250000Y21050000D03*
X66250000Y22000000D03*
X64250000Y18700000D03*
X64250000Y16800000D03*
X66250000Y17750000D03*
D37*
X17150000Y42200000D03*
X17150000Y41250000D03*
X17150000Y40300000D03*
X19350000Y40300000D03*
X19350000Y42200000D03*
X19350000Y41250000D03*
D12*
X60000000Y46250000D03*
D13*
X11250000Y51000000D03*
X78750000Y51250000D03*
D12*
X21750000Y37250000D03*
X15250018Y41500000D03*
X19500000Y7250000D03*
X23000000Y28750000D03*
X36500000Y7250000D03*
X48750000Y30250000D03*
X39250000Y41250000D03*
X34500000Y35225000D03*
X23000000Y39000000D03*
X21250000Y41500000D03*
X66250000Y27250000D03*
X66000000Y20250000D03*
X70250000Y41750000D03*
X73000000Y42000000D03*
X64250000Y15250000D03*
X62250000Y31500000D03*
X71250000Y38500000D03*
X73000000Y36250000D03*
X67500000Y9000000D03*
X60750000Y13500000D03*
X60000000Y28500000D03*
D38*
X40750000Y16500000D03*
X34154845Y16549308D03*
X5250000Y18250000D03*
X21500000Y16250000D03*
X15500000Y10250000D03*
X34750000Y12500000D03*
X14491043Y10247015D03*
X35000000Y13500000D03*
X41000008Y15500000D03*
X34676884Y15696372D03*
X41250004Y14500000D03*
X35000000Y14500000D03*
X34750000Y31000000D03*
X37749996Y31000000D03*
X39290686Y25290686D03*
X35409314Y25290686D03*
X39750000Y29500000D03*
X34000000Y28000000D03*
X38829651Y28961037D03*
X34250000Y29000000D03*
X38750000Y30000000D03*
X34500000Y30000000D03*
X48500000Y21250000D03*
X20500000Y9250000D03*
X48500000Y18750000D03*
X21500000Y8449990D03*
X7750000Y18250000D03*
X20500000Y16750000D03*
D39*
X7150000Y29900000D02*
X7150000Y27650000D01*
X7150000Y27650000D02*
X7100000Y27600000D01*
X7290000Y33950000D02*
X7290000Y30040000D01*
X7290000Y30040000D02*
X7150000Y29900000D01*
X22325000Y37825000D02*
X21750000Y37250000D01*
X25150000Y37825000D02*
X22325000Y37825000D01*
X25150000Y37825000D02*
X27575000Y37825000D01*
X27575000Y37825000D02*
X28750000Y39000000D01*
X38000000Y34750000D02*
X38000000Y33500000D01*
X38000000Y33500000D02*
X37750000Y33250000D01*
X37750000Y33250000D02*
X36750000Y33250000D01*
X25150000Y39775000D02*
X27975000Y39775000D01*
X27975000Y39775000D02*
X28750000Y39000000D01*
X25150000Y18625000D02*
X28625000Y18625000D01*
X28625000Y18625000D02*
X28750000Y18500000D01*
X32350000Y37175000D02*
X29925000Y37175000D01*
X29925000Y37175000D02*
X28750000Y36000000D01*
X25150000Y35225000D02*
X27975000Y35225000D01*
X27975000Y35225000D02*
X28750000Y36000000D01*
X19250000Y35250000D02*
X19250000Y34000000D01*
X19250000Y34000000D02*
X17250000Y34000000D01*
X17250000Y34000000D02*
X17250000Y32750000D01*
X36250000Y14000000D02*
X36250000Y16250000D01*
X36250000Y16250000D02*
X36400000Y16400000D01*
X35488157Y16400000D02*
X36400000Y16400000D01*
D40*
X15250018Y41499982D02*
X15250018Y41500000D01*
X15500000Y41250000D02*
X15250018Y41499982D01*
X17150000Y41250000D02*
X15500000Y41250000D01*
D39*
X33625000Y17325000D02*
X32350000Y17325000D01*
X35488157Y16400000D02*
X34538847Y17349310D01*
X33649310Y17349310D02*
X33625000Y17325000D01*
X34538847Y17349310D02*
X33649310Y17349310D01*
X38100000Y18600000D02*
X38900000Y18600000D01*
X38900000Y18600000D02*
X39300000Y18200000D01*
X39300000Y18200000D02*
X39300000Y13204998D01*
X39300000Y13204998D02*
X38845002Y12750000D01*
X38845002Y12750000D02*
X36475000Y12750000D01*
X36475000Y12750000D02*
X36250000Y12975000D01*
X36250000Y12975000D02*
X36250000Y14000000D01*
X38100000Y18600000D02*
X38100000Y20850000D01*
X38100000Y20850000D02*
X38250000Y21000000D01*
D40*
X19500000Y19025000D02*
X19500000Y18000000D01*
X19875000Y20750000D02*
X19875000Y19400000D01*
X19875000Y19400000D02*
X19500000Y19025000D01*
X19500000Y18000000D02*
X19500000Y7250000D01*
X22400001Y28150001D02*
X23000000Y28750000D01*
X19875000Y25625000D02*
X22400001Y28150001D01*
X19875000Y20750000D02*
X19875000Y25625000D01*
D39*
X25150000Y17975000D02*
X19525000Y17975000D01*
X19525000Y17975000D02*
X19500000Y18000000D01*
D40*
X36800000Y7300000D02*
X36750000Y7250000D01*
X36750000Y7250000D02*
X36500000Y7250000D01*
X38250000Y7300000D02*
X36800000Y7300000D01*
X31250000Y9000000D02*
X31250000Y5040000D01*
X31250000Y5040000D02*
X31290000Y5000000D01*
X48750000Y25475000D02*
X48750000Y27225000D01*
X48750000Y27225000D02*
X48775000Y27250000D01*
X48250000Y23750000D02*
X48250000Y24975000D01*
X48250000Y24975000D02*
X48750000Y25475000D01*
X48750000Y30250000D02*
X48750000Y27275000D01*
X48750000Y27275000D02*
X48775000Y27250000D01*
X34525000Y35225000D02*
X34525000Y35125000D01*
X34525000Y35125000D02*
X34900000Y34750000D01*
X34900000Y34750000D02*
X36000000Y34750000D01*
X34500000Y35225000D02*
X34525000Y35225000D01*
X48775000Y27250000D02*
X50350000Y27250000D01*
X50350000Y27250000D02*
X52100000Y29000000D01*
X52100000Y29000000D02*
X55000000Y29000000D01*
X37950000Y41250000D02*
X39250000Y41250000D01*
X55000000Y31500000D02*
X55000000Y29000000D01*
X55000000Y29000000D02*
X55000000Y27250000D01*
X18250000Y41250000D02*
X18250000Y42750000D01*
X18250000Y42750000D02*
X19500000Y44000000D01*
X19500000Y44000000D02*
X19500000Y44875000D01*
X19500000Y44875000D02*
X19625000Y45000000D01*
D39*
X32350000Y35225000D02*
X34500000Y35225000D01*
D40*
X19200000Y37750000D02*
X19200000Y38050000D01*
X19200000Y38050000D02*
X18250000Y39000000D01*
X18250000Y39000000D02*
X18250000Y41250000D01*
X18250000Y41250000D02*
X19350000Y41250000D01*
D39*
X25150000Y38475000D02*
X23525000Y38475000D01*
X23525000Y38475000D02*
X23000000Y39000000D01*
X25150000Y39125000D02*
X23125000Y39125000D01*
X23125000Y39125000D02*
X23000000Y39000000D01*
D40*
X19350000Y41250000D02*
X21000000Y41250000D01*
X21000000Y41250000D02*
X21250000Y41500000D01*
D39*
X19500000Y20375000D02*
X19875000Y20750000D01*
D40*
X51700000Y23810000D02*
X48310000Y23810000D01*
X48310000Y23810000D02*
X48250000Y23750000D01*
X12000000Y38700000D02*
X15550000Y38700000D01*
X15550000Y38700000D02*
X16500000Y37750000D01*
X16500000Y37750000D02*
X17300000Y37750000D01*
X17300000Y37750000D02*
X17300000Y35300000D01*
X17300000Y35300000D02*
X17250000Y35250000D01*
D39*
X38250000Y9200000D02*
X40700000Y9200000D01*
X40700000Y9200000D02*
X40750000Y9250000D01*
X38200000Y11500000D02*
X38200000Y9250000D01*
X38200000Y9250000D02*
X38250000Y9200000D01*
X36400000Y18600000D02*
X36400000Y20850000D01*
X36400000Y20850000D02*
X36250000Y21000000D01*
X32350000Y18625000D02*
X36375000Y18625000D01*
X36375000Y18625000D02*
X36400000Y18600000D01*
X25150000Y40425000D02*
X22944998Y40425000D01*
X22944998Y40425000D02*
X20500000Y37980002D01*
X20500000Y37980002D02*
X20500000Y33250000D01*
X20500000Y33250000D02*
X20000000Y32750000D01*
X20000000Y32750000D02*
X19250000Y32750000D01*
X38100000Y16400000D02*
X38100000Y14150000D01*
X38100000Y14150000D02*
X38250000Y14000000D01*
D11*
X32350000Y17975000D02*
X35004998Y17975000D01*
X35004998Y17975000D02*
X35479998Y17500000D01*
D39*
X38100000Y16650000D02*
X38100000Y16400000D01*
D11*
X35479998Y17500000D02*
X37250000Y17500000D01*
X37250000Y17500000D02*
X38100000Y16650000D01*
D40*
X65975000Y38500000D02*
X65975000Y35225000D01*
X65975000Y35225000D02*
X64250000Y33500000D01*
X64250000Y33500000D02*
X64250000Y25250000D01*
X66500000Y41750000D02*
X66500000Y39025000D01*
X66500000Y39025000D02*
X65975000Y38500000D01*
X60080000Y41700000D02*
X66450000Y41700000D01*
X66450000Y41700000D02*
X66500000Y41750000D01*
X60800000Y23810000D02*
X62310000Y23810000D01*
X62310000Y23810000D02*
X62750000Y24250000D01*
X62750000Y24250000D02*
X62750000Y24750000D01*
X62750000Y24750000D02*
X63250000Y25250000D01*
X63250000Y25250000D02*
X64250000Y25250000D01*
D39*
X66250000Y25250000D02*
X66250000Y27250000D01*
D40*
X66100000Y20250000D02*
X66000000Y20250000D01*
X64250000Y21050000D02*
X65300000Y21050000D01*
X65300000Y21050000D02*
X66100000Y20250000D01*
D39*
X68500000Y41750000D02*
X70250000Y41750000D01*
X73050000Y40250000D02*
X73000000Y42000000D01*
X73000000Y38000000D02*
X73000000Y36250000D01*
X64250000Y16800000D02*
X64250000Y15250000D01*
X65200000Y21050000D02*
X65750000Y20500000D01*
X64250000Y21050000D02*
X65200000Y21050000D01*
D40*
X60080000Y31500000D02*
X62250000Y31500000D01*
X69025000Y38500000D02*
X71250000Y38500000D01*
X68150000Y9000000D02*
X67500000Y9000000D01*
X69250000Y9000000D02*
X68150000Y9000000D01*
X60800000Y16190000D02*
X60800000Y13550000D01*
X60800000Y13550000D02*
X60750000Y13500000D01*
X60080000Y31500000D02*
X60080000Y28420000D01*
X60080000Y28420000D02*
X60000000Y28500000D01*
X71250000Y9000000D02*
X73550000Y9000000D01*
X73550000Y12000000D02*
X73550000Y9000000D01*
X75000000Y38000000D02*
X78680000Y38000000D01*
X78680000Y38000000D02*
X78700000Y37980000D01*
X75020000Y37980000D02*
X75000000Y38000000D01*
X75010000Y40190000D02*
X74950000Y40250000D01*
X74950000Y40250000D02*
X74950000Y38050000D01*
X74950000Y38050000D02*
X75000000Y38000000D01*
X75060000Y37940000D02*
X75000000Y38000000D01*
X67500000Y20500000D02*
X70000000Y18000000D01*
X70000000Y18000000D02*
X70000000Y16325000D01*
X67050000Y22950000D02*
X67500000Y22500000D01*
X67500000Y22500000D02*
X67500000Y20500000D01*
X64250000Y22950000D02*
X67050000Y22950000D01*
X60800000Y21270000D02*
X62520000Y21270000D01*
X63450000Y22950000D02*
X64250000Y22950000D01*
X63000000Y22500000D02*
X63450000Y22950000D01*
X63000000Y21750000D02*
X63000000Y22500000D01*
X62520000Y21270000D02*
X63000000Y21750000D01*
X64200000Y22950000D02*
X64250000Y22950000D01*
X64250000Y18700000D02*
X67550002Y18700000D01*
X67550002Y18700000D02*
X68500000Y17750002D01*
X68500000Y14500000D02*
X69000000Y14000000D01*
X68500000Y17750002D02*
X68500000Y14500000D01*
X69000000Y14000000D02*
X71950000Y14000000D01*
X71950000Y14000000D02*
X72500000Y14550000D01*
X72500000Y14550000D02*
X72500000Y16325000D01*
X60800000Y18730000D02*
X64220000Y18730000D01*
X64220000Y18730000D02*
X64250000Y18700000D01*
D39*
X15900000Y40300000D02*
X17150000Y40300000D01*
X12000000Y41200000D02*
X12900000Y40300000D01*
X12900000Y40300000D02*
X15900000Y40300000D01*
X10000000Y41200000D02*
X11550000Y42750000D01*
X11550000Y42750000D02*
X15670000Y42750000D01*
X15670000Y42750000D02*
X16220000Y42200000D01*
X16220000Y42200000D02*
X17150000Y42200000D01*
X33830000Y9000000D02*
X33830000Y5000000D01*
X33830000Y9000000D02*
X33830000Y11500000D01*
X33830000Y12420000D02*
X33830000Y11500000D01*
X36300000Y11500000D02*
X33830000Y11500000D01*
X32350000Y12775000D02*
X33475000Y12775000D01*
X33475000Y12775000D02*
X33830000Y12420000D01*
X25150000Y12775000D02*
X24025000Y12775000D01*
X24025000Y12775000D02*
X23250000Y12000000D01*
X23250000Y12000000D02*
X23250000Y10000000D01*
X23250000Y10000000D02*
X26210000Y7040000D01*
X26210000Y7040000D02*
X26210000Y5000000D01*
X25150000Y13425000D02*
X23675000Y13425000D01*
X23675000Y13425000D02*
X22420000Y12170000D01*
X22420000Y12170000D02*
X22420000Y9580000D01*
X22420000Y9580000D02*
X23670000Y8330000D01*
X23670000Y8330000D02*
X23670000Y5000000D01*
X41149999Y16899999D02*
X40750000Y16500000D01*
X42299978Y18049978D02*
X41149999Y16899999D01*
X42299978Y36950022D02*
X42299978Y18049978D01*
X39250000Y40000000D02*
X42299978Y36950022D01*
X36050000Y40950000D02*
X37000000Y40000000D01*
X37000000Y40000000D02*
X39250000Y40000000D01*
X36050000Y41250000D02*
X36050000Y40950000D01*
X34425000Y40425000D02*
X35250000Y41250000D01*
X35250000Y41250000D02*
X36050000Y41250000D01*
X32350000Y40425000D02*
X34425000Y40425000D01*
X33754846Y16149309D02*
X34154845Y16549308D01*
X33630537Y16025000D02*
X33754846Y16149309D01*
X32350000Y16025000D02*
X33630537Y16025000D01*
X5250000Y18250000D02*
X5250000Y17200000D01*
X21925000Y16675000D02*
X21500000Y16250000D01*
X25150000Y16675000D02*
X21925000Y16675000D01*
X25150000Y41075000D02*
X22575000Y41075000D01*
X22575000Y41075000D02*
X21800000Y40300000D01*
X21800000Y40300000D02*
X19350000Y40300000D01*
X25150000Y41725000D02*
X22775000Y41725000D01*
X21750000Y42750000D02*
X20830000Y42750000D01*
X22775000Y41725000D02*
X21750000Y42750000D01*
X20830000Y42750000D02*
X20280000Y42200000D01*
X20280000Y42200000D02*
X19350000Y42200000D01*
X25150000Y36525000D02*
X23875000Y36525000D01*
X23350011Y36000011D02*
X23350011Y31100011D01*
X23875000Y36525000D02*
X23350011Y36000011D01*
X23350011Y31100011D02*
X15250000Y23000000D01*
X15250000Y23000000D02*
X15250000Y10500000D01*
X15250000Y10500000D02*
X15500000Y10250000D01*
X34350001Y12899999D02*
X34750000Y12500000D01*
X33825000Y13425000D02*
X34350001Y12899999D01*
X32350000Y13425000D02*
X33825000Y13425000D01*
X25150000Y37175000D02*
X23675000Y37175000D01*
X22750000Y31500000D02*
X14491043Y23241043D01*
X14491043Y23241043D02*
X14491043Y10812700D01*
X23675000Y37175000D02*
X22750000Y36250000D01*
X22750000Y36250000D02*
X22750000Y31500000D01*
X14491043Y10812700D02*
X14491043Y10247015D01*
X34815996Y13500000D02*
X35000000Y13500000D01*
X32350000Y14075000D02*
X34240996Y14075000D01*
X34240996Y14075000D02*
X34815996Y13500000D01*
X42899989Y17399981D02*
X41400007Y15899999D01*
X42899989Y39501469D02*
X42899989Y17399981D01*
X39651458Y42750000D02*
X42899989Y39501469D01*
X35750000Y42750000D02*
X39651458Y42750000D01*
X34075000Y41075000D02*
X35750000Y42750000D01*
X32350000Y41075000D02*
X34075000Y41075000D01*
X41400007Y15899999D02*
X41000008Y15500000D01*
X34355512Y15375000D02*
X34676884Y15696372D01*
X32350000Y15375000D02*
X34355512Y15375000D01*
X32350000Y41725000D02*
X33625000Y41725000D01*
X43500000Y16749996D02*
X41650003Y14899999D01*
X33625000Y41725000D02*
X35250011Y43350011D01*
X35250011Y43350011D02*
X39899989Y43350011D01*
X39899989Y43350011D02*
X43500000Y39750000D01*
X43500000Y39750000D02*
X43500000Y16749996D01*
X41650003Y14899999D02*
X41250004Y14500000D01*
X34775000Y14725000D02*
X35000000Y14500000D01*
X32350000Y14725000D02*
X34775000Y14725000D01*
X32350000Y33275000D02*
X33225000Y33275000D01*
X33225000Y33275000D02*
X34750000Y31750000D01*
X34750000Y31750000D02*
X34750000Y31000000D01*
X34750000Y31250000D02*
X34750000Y31000000D01*
X32350000Y19275000D02*
X34775000Y19275000D01*
X37749996Y30434315D02*
X37749996Y31000000D01*
X35250000Y22000000D02*
X37749996Y24499996D01*
X34775000Y19275000D02*
X35250000Y19750000D01*
X35250000Y19750000D02*
X35250000Y22000000D01*
X37749996Y24499996D02*
X37749996Y30434315D01*
X32350000Y35875000D02*
X33625000Y35875000D01*
X33625000Y35875000D02*
X34000000Y36250000D01*
X38750000Y32000000D02*
X37250000Y32000000D01*
X37250000Y32000000D02*
X36949995Y31699995D01*
X34000000Y36250000D02*
X38500000Y36250000D01*
X38500000Y36250000D02*
X39250000Y35500000D01*
X39250000Y35500000D02*
X39250000Y32500000D01*
X39250000Y32500000D02*
X38750000Y32000000D01*
X36949995Y31699995D02*
X36949995Y24699995D01*
X36949995Y24699995D02*
X34649990Y22399990D01*
X34649990Y22399990D02*
X34649990Y20399990D01*
X34649990Y20399990D02*
X34175000Y19925000D01*
X34175000Y19925000D02*
X32350000Y19925000D01*
X33625000Y20575000D02*
X32350000Y20575000D01*
X34049980Y20999980D02*
X33625000Y20575000D01*
X36250000Y31994998D02*
X36250000Y25000000D01*
X34049980Y22799980D02*
X34049980Y20999980D01*
X36250000Y25000000D02*
X34049980Y22799980D01*
X33669998Y34575000D02*
X36250000Y31994998D01*
X32350000Y34575000D02*
X33669998Y34575000D01*
X32350000Y39775000D02*
X34725000Y39775000D01*
X39690685Y25690685D02*
X39290686Y25290686D01*
X35399989Y39100011D02*
X39301447Y39100011D01*
X39301447Y39100011D02*
X41699967Y36701491D01*
X41699967Y36701491D02*
X41699967Y27699967D01*
X41699967Y27699967D02*
X39690685Y25690685D01*
X34725000Y39775000D02*
X35399989Y39100011D01*
X33449970Y23199970D02*
X35409314Y25290686D01*
X35500000Y25250000D02*
X35450000Y25250000D01*
X35450000Y25250000D02*
X35409314Y25290686D01*
X32350000Y21225000D02*
X33225000Y21225000D01*
X33225000Y21225000D02*
X33449970Y21449970D01*
X33449970Y21449970D02*
X33449970Y23199970D01*
X25150000Y21225000D02*
X24275000Y21225000D01*
X24275000Y21225000D02*
X23500000Y22000000D01*
X23500000Y22000000D02*
X23500000Y24250000D01*
X23500000Y24250000D02*
X26250000Y27000000D01*
X26250000Y27000000D02*
X34250000Y27000000D01*
X34250000Y27000000D02*
X35550002Y28300002D01*
X35550002Y28300002D02*
X35550002Y31846454D01*
X35550002Y31846454D02*
X33471456Y33925000D01*
X33471456Y33925000D02*
X32350000Y33925000D01*
X25150000Y20575000D02*
X23875000Y20575000D01*
X23875000Y20575000D02*
X22700023Y21749977D01*
X22700023Y21749977D02*
X22700023Y24450023D01*
X22700023Y24450023D02*
X26250000Y28000000D01*
X26250000Y28000000D02*
X33434315Y28000000D01*
X33434315Y28000000D02*
X34000000Y28000000D01*
X40149999Y29899999D02*
X39750000Y29500000D01*
X32350000Y38475000D02*
X33625000Y38475000D01*
X40499945Y36204429D02*
X40499945Y30249945D01*
X38954374Y37750000D02*
X40499945Y36204429D01*
X34350000Y37750000D02*
X38954374Y37750000D01*
X33625000Y38475000D02*
X34350000Y37750000D01*
X40499945Y30249945D02*
X40149999Y29899999D01*
X23575000Y19925000D02*
X22100012Y21399988D01*
X22100012Y24850012D02*
X26250000Y29000000D01*
X22100012Y21399988D02*
X22100012Y24850012D01*
X25150000Y19925000D02*
X23575000Y19925000D01*
X26250000Y29000000D02*
X33684315Y29000000D01*
X33684315Y29000000D02*
X34250000Y29000000D01*
X41099956Y29599956D02*
X40061038Y28561038D01*
X40061038Y28561038D02*
X39229650Y28561038D01*
X34742936Y38500000D02*
X39052916Y38500000D01*
X39052916Y38500000D02*
X41099956Y36452960D01*
X32350000Y39125000D02*
X34117936Y39125000D01*
X39229650Y28561038D02*
X38829651Y28961037D01*
X41099956Y36452960D02*
X41099956Y29599956D01*
X34117936Y39125000D02*
X34742936Y38500000D01*
X21500001Y25348544D02*
X26151457Y30000000D01*
X26151457Y30000000D02*
X30934315Y30000000D01*
X25150000Y19275000D02*
X23225000Y19275000D01*
X23225000Y19275000D02*
X21500000Y21000000D01*
X21500000Y21000000D02*
X21500001Y25348544D01*
X39149999Y30399999D02*
X38750000Y30000000D01*
X39899934Y31149934D02*
X39149999Y30399999D01*
X39899934Y35955898D02*
X39899934Y31149934D01*
X32350000Y36525000D02*
X33426458Y36525000D01*
X33901458Y37000000D02*
X38855832Y37000000D01*
X33426458Y36525000D02*
X33901458Y37000000D01*
X38855832Y37000000D02*
X39899934Y35955898D01*
X31000000Y30000000D02*
X30934315Y30000000D01*
X30934315Y30000000D02*
X34500000Y30000000D01*
X48500000Y21250000D02*
X51680000Y21250000D01*
X51680000Y21250000D02*
X51700000Y21270000D01*
X23526458Y15375000D02*
X20500000Y12348542D01*
X20500000Y9815685D02*
X20500000Y9250000D01*
X25150000Y15375000D02*
X23526458Y15375000D01*
X20500000Y12348542D02*
X20500000Y9815685D01*
X48500000Y18750000D02*
X51680000Y18750000D01*
X51680000Y18750000D02*
X51700000Y18730000D01*
X21500000Y9015675D02*
X21500000Y8449990D01*
X21500000Y12350000D02*
X21500000Y9015675D01*
X23875000Y14725000D02*
X21500000Y12350000D01*
X25150000Y14725000D02*
X23875000Y14725000D01*
X7700000Y12050000D02*
X7700000Y15250000D01*
X7700000Y15250000D02*
X7750000Y15300000D01*
D40*
X76450000Y12000000D02*
X80220000Y12000000D01*
X80220000Y12000000D02*
X80380000Y11840000D01*
X76450000Y9000000D02*
X80080000Y9000000D01*
X80080000Y9000000D02*
X80380000Y9300000D01*
D39*
X5160000Y12050000D02*
X5160000Y15210000D01*
X5160000Y15210000D02*
X5250000Y15300000D01*
D40*
X74920000Y29670000D02*
X72500000Y27250000D01*
X72500000Y27250000D02*
X72500000Y23675000D01*
X78700000Y29670000D02*
X74920000Y29670000D01*
X78700000Y29670000D02*
X83330000Y29670000D01*
X83330000Y29670000D02*
X84750000Y28250000D01*
X84750000Y28250000D02*
X84750000Y11250000D01*
X84750000Y11250000D02*
X86700000Y9300000D01*
X86700000Y9300000D02*
X88000000Y9300000D01*
X81540000Y31055000D02*
X74305000Y31055000D01*
X70000000Y26750000D02*
X70000000Y23675000D01*
X74305000Y31055000D02*
X70000000Y26750000D01*
X88000000Y11840000D02*
X86750000Y11840000D01*
X83695000Y31055000D02*
X81540000Y31055000D01*
X86000000Y28750000D02*
X83695000Y31055000D01*
X86000000Y12590000D02*
X86000000Y28750000D01*
X86750000Y11840000D02*
X86000000Y12590000D01*
D39*
X7750000Y18250000D02*
X7750000Y17200000D01*
X21075000Y17325000D02*
X20500000Y16750000D01*
X25150000Y17325000D02*
X21075000Y17325000D01*
D41*
G36*
X84829996Y52784082D02*
X84565301Y52146627D01*
X84564699Y51456401D01*
X84828281Y50818485D01*
X85315918Y50329996D01*
X85953373Y50065301D01*
X86643599Y50064699D01*
X87281515Y50328281D01*
X87770004Y50815918D01*
X88034699Y51453373D01*
X88035301Y52143599D01*
X87771719Y52781515D01*
X87430830Y53123000D01*
X89115000Y53123000D01*
X89115000Y12746660D01*
X89042811Y12854698D01*
X88577264Y13165767D01*
X88028113Y13275000D01*
X87971887Y13275000D01*
X87422736Y13165767D01*
X87017376Y12894914D01*
X86935000Y12977290D01*
X86935000Y28750000D01*
X86863827Y29107809D01*
X86661145Y29411145D01*
X84356145Y31716145D01*
X84052809Y31918827D01*
X83695000Y31990000D01*
X82634258Y31990000D01*
X82353923Y32270824D01*
X81946150Y32440146D01*
X82351800Y32607757D01*
X82755824Y33011077D01*
X82974750Y33538309D01*
X82975248Y34109187D01*
X82757243Y34636800D01*
X82353923Y35040824D01*
X81946150Y35210146D01*
X82351800Y35377757D01*
X82755824Y35781077D01*
X82974750Y36308309D01*
X82975248Y36879187D01*
X82757243Y37406800D01*
X82353923Y37810824D01*
X81826691Y38029750D01*
X81255813Y38030248D01*
X80728200Y37812243D01*
X80324176Y37408923D01*
X80105250Y36881691D01*
X80104752Y36310813D01*
X80322757Y35783200D01*
X80726077Y35379176D01*
X81133850Y35209854D01*
X80728200Y35042243D01*
X80324176Y34638923D01*
X80105250Y34111691D01*
X80104752Y33540813D01*
X80322757Y33013200D01*
X80726077Y32609176D01*
X81133850Y32439854D01*
X80728200Y32272243D01*
X80445464Y31990000D01*
X80062640Y31990000D01*
X80153093Y32269060D01*
X80107899Y32838146D01*
X79977067Y33154003D01*
X79736505Y33231846D01*
X78944659Y32440000D01*
X78958801Y32425858D01*
X78714142Y32181199D01*
X78700000Y32195341D01*
X78685858Y32181199D01*
X78441199Y32425858D01*
X78455341Y32440000D01*
X77663495Y33231846D01*
X77422933Y33154003D01*
X77246907Y32610940D01*
X77292101Y32041854D01*
X77313580Y31990000D01*
X74305000Y31990000D01*
X73947191Y31918827D01*
X73643855Y31716145D01*
X69338855Y27411145D01*
X69136173Y27107809D01*
X69065000Y26750000D01*
X69065000Y25639018D01*
X68948559Y25564090D01*
X68803569Y25351890D01*
X68752560Y25100000D01*
X68752560Y22250000D01*
X68796838Y22014683D01*
X68935910Y21798559D01*
X69148110Y21653569D01*
X69400000Y21602560D01*
X70600000Y21602560D01*
X70730074Y21627035D01*
X70750000Y21623000D01*
X71750000Y21623000D01*
X71775433Y21627785D01*
X71900000Y21602560D01*
X73100000Y21602560D01*
X73335317Y21646838D01*
X73551441Y21785910D01*
X73696431Y21998110D01*
X73747440Y22250000D01*
X73747440Y25100000D01*
X73703162Y25335317D01*
X73564090Y25551441D01*
X73435000Y25639644D01*
X73435000Y26862710D01*
X75307290Y28735000D01*
X77605742Y28735000D01*
X77886077Y28454176D01*
X78143126Y28347440D01*
X77900000Y28347440D01*
X77664683Y28303162D01*
X77448559Y28164090D01*
X77303569Y27951890D01*
X77252560Y27700000D01*
X77252560Y26100000D01*
X77296838Y25864683D01*
X77435910Y25648559D01*
X77648110Y25503569D01*
X77900000Y25452560D01*
X79500000Y25452560D01*
X79735317Y25496838D01*
X79951441Y25635910D01*
X80096431Y25848110D01*
X80147440Y26100000D01*
X80147440Y27700000D01*
X80103162Y27935317D01*
X79964090Y28151441D01*
X79751890Y28296431D01*
X79500000Y28347440D01*
X79256913Y28347440D01*
X79511800Y28452757D01*
X79794536Y28735000D01*
X80173062Y28735000D01*
X80105250Y28571691D01*
X80104752Y28000813D01*
X80322757Y27473200D01*
X80726077Y27069176D01*
X81253309Y26850250D01*
X81824187Y26849752D01*
X82351800Y27067757D01*
X82755824Y27471077D01*
X82974750Y27998309D01*
X82975248Y28569187D01*
X82906736Y28735000D01*
X82942710Y28735000D01*
X83815000Y27862710D01*
X83815000Y11250000D01*
X83886173Y10892191D01*
X84088855Y10588855D01*
X86038855Y8638855D01*
X86342191Y8436173D01*
X86573217Y8390219D01*
X86596838Y8264683D01*
X86735910Y8048559D01*
X86948110Y7903569D01*
X87200000Y7852560D01*
X88800000Y7852560D01*
X89035317Y7896838D01*
X89115000Y7948113D01*
X89115000Y2127000D01*
X87380406Y2127000D01*
X87770004Y2515918D01*
X88034699Y3153373D01*
X88035301Y3843599D01*
X87771719Y4481515D01*
X87284082Y4970004D01*
X86646627Y5234699D01*
X85956401Y5235301D01*
X85318485Y4971719D01*
X84829996Y4484082D01*
X84565301Y3846627D01*
X84564699Y3156401D01*
X84828281Y2518485D01*
X85219083Y2127000D01*
X58877000Y2127000D01*
X58877000Y8668250D01*
X68115000Y8668250D01*
X68115000Y8248690D01*
X68211673Y8015301D01*
X68390302Y7836673D01*
X68623691Y7740000D01*
X68918250Y7740000D01*
X69077000Y7898750D01*
X69077000Y8827000D01*
X68273750Y8827000D01*
X68115000Y8668250D01*
X58877000Y8668250D01*
X58877000Y9751310D01*
X68115000Y9751310D01*
X68115000Y9331750D01*
X68273750Y9173000D01*
X69077000Y9173000D01*
X69077000Y10101250D01*
X69423000Y10101250D01*
X69423000Y9173000D01*
X69443000Y9173000D01*
X69443000Y8827000D01*
X69423000Y8827000D01*
X69423000Y7898750D01*
X69581750Y7740000D01*
X69876309Y7740000D01*
X70109698Y7836673D01*
X70250936Y7977910D01*
X70285910Y7923559D01*
X70498110Y7778569D01*
X70750000Y7727560D01*
X71750000Y7727560D01*
X71985317Y7771838D01*
X72201441Y7910910D01*
X72306726Y8065000D01*
X72468554Y8065000D01*
X72496838Y7914683D01*
X72635910Y7698559D01*
X72848110Y7553569D01*
X73100000Y7502560D01*
X74000000Y7502560D01*
X74235317Y7546838D01*
X74451441Y7685910D01*
X74596431Y7898110D01*
X74647440Y8150000D01*
X74647440Y9850000D01*
X74603162Y10085317D01*
X74485000Y10268946D01*
X74485000Y10735025D01*
X74596431Y10898110D01*
X74647440Y11150000D01*
X74647440Y12850000D01*
X75352560Y12850000D01*
X75352560Y11150000D01*
X75396838Y10914683D01*
X75535910Y10698559D01*
X75748110Y10553569D01*
X76000000Y10502560D01*
X76900000Y10502560D01*
X77135317Y10546838D01*
X77351441Y10685910D01*
X77496431Y10898110D01*
X77530227Y11065000D01*
X79177028Y11065000D01*
X79337189Y10825302D01*
X79719275Y10570000D01*
X79337189Y10314698D01*
X79083483Y9935000D01*
X77531446Y9935000D01*
X77503162Y10085317D01*
X77364090Y10301441D01*
X77151890Y10446431D01*
X76900000Y10497440D01*
X76000000Y10497440D01*
X75764683Y10453162D01*
X75548559Y10314090D01*
X75403569Y10101890D01*
X75352560Y9850000D01*
X75352560Y8150000D01*
X75396838Y7914683D01*
X75535910Y7698559D01*
X75748110Y7553569D01*
X76000000Y7502560D01*
X76900000Y7502560D01*
X77135317Y7546838D01*
X77351441Y7685910D01*
X77496431Y7898110D01*
X77530227Y8065000D01*
X79666894Y8065000D01*
X79802736Y7974233D01*
X80351887Y7865000D01*
X80408113Y7865000D01*
X80957264Y7974233D01*
X81422811Y8285302D01*
X81733880Y8750849D01*
X81843113Y9300000D01*
X81733880Y9849151D01*
X81422811Y10314698D01*
X81040725Y10570000D01*
X81422811Y10825302D01*
X81733880Y11290849D01*
X81843113Y11840000D01*
X81733880Y12389151D01*
X81422811Y12854698D01*
X80957264Y13165767D01*
X80408113Y13275000D01*
X80351887Y13275000D01*
X79802736Y13165767D01*
X79457369Y12935000D01*
X77531446Y12935000D01*
X77503162Y13085317D01*
X77364090Y13301441D01*
X77151890Y13446431D01*
X76900000Y13497440D01*
X76000000Y13497440D01*
X75764683Y13453162D01*
X75548559Y13314090D01*
X75403569Y13101890D01*
X75352560Y12850000D01*
X74647440Y12850000D01*
X74603162Y13085317D01*
X74464090Y13301441D01*
X74251890Y13446431D01*
X74000000Y13497440D01*
X73100000Y13497440D01*
X72864683Y13453162D01*
X72648559Y13314090D01*
X72503569Y13101890D01*
X72452560Y12850000D01*
X72452560Y11150000D01*
X72496838Y10914683D01*
X72615000Y10731054D01*
X72615000Y10264975D01*
X72503569Y10101890D01*
X72469773Y9935000D01*
X72305105Y9935000D01*
X72214090Y10076441D01*
X72001890Y10221431D01*
X71750000Y10272440D01*
X70750000Y10272440D01*
X70514683Y10228162D01*
X70298559Y10089090D01*
X70252031Y10020994D01*
X70109698Y10163327D01*
X69876309Y10260000D01*
X69581750Y10260000D01*
X69423000Y10101250D01*
X69077000Y10101250D01*
X68918250Y10260000D01*
X68623691Y10260000D01*
X68390302Y10163327D01*
X68211673Y9984699D01*
X68115000Y9751310D01*
X58877000Y9751310D01*
X58877000Y15868750D01*
X58990000Y15868750D01*
X58990000Y15738690D01*
X59086673Y15505301D01*
X59265302Y15326673D01*
X59498691Y15230000D01*
X60468250Y15230000D01*
X60627000Y15388750D01*
X60627000Y16027500D01*
X60973000Y16027500D01*
X60973000Y15388750D01*
X61131750Y15230000D01*
X62101309Y15230000D01*
X62334698Y15326673D01*
X62513327Y15505301D01*
X62610000Y15738690D01*
X62610000Y15868750D01*
X62451250Y16027500D01*
X60973000Y16027500D01*
X60627000Y16027500D01*
X59148750Y16027500D01*
X58990000Y15868750D01*
X58877000Y15868750D01*
X58877000Y16641310D01*
X58990000Y16641310D01*
X58990000Y16511250D01*
X59148750Y16352500D01*
X60627000Y16352500D01*
X60627000Y16991250D01*
X60973000Y16991250D01*
X60973000Y16352500D01*
X62451250Y16352500D01*
X62567000Y16468250D01*
X63165000Y16468250D01*
X63165000Y16273690D01*
X63261673Y16040301D01*
X63440302Y15861673D01*
X63673691Y15765000D01*
X63918250Y15765000D01*
X64077000Y15923750D01*
X64077000Y16627000D01*
X64423000Y16627000D01*
X64423000Y15923750D01*
X64581750Y15765000D01*
X64826309Y15765000D01*
X65059698Y15861673D01*
X65238327Y16040301D01*
X65335000Y16273690D01*
X65335000Y16468250D01*
X65176250Y16627000D01*
X64423000Y16627000D01*
X64077000Y16627000D01*
X63323750Y16627000D01*
X63165000Y16468250D01*
X62567000Y16468250D01*
X62610000Y16511250D01*
X62610000Y16641310D01*
X62513327Y16874699D01*
X62334698Y17053327D01*
X62101309Y17150000D01*
X61131750Y17150000D01*
X60973000Y16991250D01*
X60627000Y16991250D01*
X60468250Y17150000D01*
X59498691Y17150000D01*
X59265302Y17053327D01*
X59086673Y16874699D01*
X58990000Y16641310D01*
X58877000Y16641310D01*
X58877000Y24135000D01*
X58977560Y24135000D01*
X58977560Y23485000D01*
X59021838Y23249683D01*
X59160910Y23033559D01*
X59373110Y22888569D01*
X59625000Y22837560D01*
X61975000Y22837560D01*
X62143875Y22869336D01*
X62136173Y22857809D01*
X62065000Y22500000D01*
X62065000Y22224215D01*
X61975000Y22242440D01*
X59625000Y22242440D01*
X59389683Y22198162D01*
X59173559Y22059090D01*
X59028569Y21846890D01*
X58977560Y21595000D01*
X58977560Y20945000D01*
X59021838Y20709683D01*
X59160910Y20493559D01*
X59373110Y20348569D01*
X59625000Y20297560D01*
X61975000Y20297560D01*
X62173976Y20335000D01*
X62520000Y20335000D01*
X62877809Y20406173D01*
X63165000Y20598067D01*
X63165000Y20523690D01*
X63261673Y20290301D01*
X63440302Y20111673D01*
X63673691Y20015000D01*
X63918250Y20015000D01*
X64077000Y20173750D01*
X64077000Y20877000D01*
X64423000Y20877000D01*
X64423000Y20173750D01*
X64581750Y20015000D01*
X64826309Y20015000D01*
X65059698Y20111673D01*
X65238327Y20290301D01*
X65335000Y20523690D01*
X65335000Y20718250D01*
X65176250Y20877000D01*
X64423000Y20877000D01*
X64077000Y20877000D01*
X64057000Y20877000D01*
X64057000Y21223000D01*
X64077000Y21223000D01*
X64077000Y21243000D01*
X64423000Y21243000D01*
X64423000Y21223000D01*
X65176250Y21223000D01*
X65244251Y21291001D01*
X65335910Y21148559D01*
X65548110Y21003569D01*
X65800000Y20952560D01*
X66565000Y20952560D01*
X66565000Y20500000D01*
X66636173Y20142191D01*
X66838855Y19838855D01*
X67042710Y19635000D01*
X65041797Y19635000D01*
X64951890Y19696431D01*
X64700000Y19747440D01*
X63800000Y19747440D01*
X63564683Y19703162D01*
X63505378Y19665000D01*
X62159884Y19665000D01*
X61975000Y19702440D01*
X59625000Y19702440D01*
X59389683Y19658162D01*
X59173559Y19519090D01*
X59028569Y19306890D01*
X58977560Y19055000D01*
X58977560Y18405000D01*
X59021838Y18169683D01*
X59160910Y17953559D01*
X59373110Y17808569D01*
X59625000Y17757560D01*
X61975000Y17757560D01*
X62173976Y17795000D01*
X63414296Y17795000D01*
X63475750Y17753010D01*
X63440302Y17738327D01*
X63261673Y17559699D01*
X63165000Y17326310D01*
X63165000Y17131750D01*
X63323750Y16973000D01*
X64077000Y16973000D01*
X64077000Y16993000D01*
X64423000Y16993000D01*
X64423000Y16973000D01*
X65176250Y16973000D01*
X65244251Y17041001D01*
X65335910Y16898559D01*
X65548110Y16753569D01*
X65800000Y16702560D01*
X66700000Y16702560D01*
X66935317Y16746838D01*
X67151441Y16885910D01*
X67296431Y17098110D01*
X67347440Y17350000D01*
X67347440Y17580272D01*
X67565000Y17362712D01*
X67565000Y14500000D01*
X67636173Y14142191D01*
X67838855Y13838855D01*
X68338855Y13338855D01*
X68642191Y13136173D01*
X69000000Y13065000D01*
X71950000Y13065000D01*
X72307809Y13136173D01*
X72611145Y13338855D01*
X73161145Y13888855D01*
X73363827Y14192191D01*
X73391883Y14333237D01*
X73551441Y14435910D01*
X73696431Y14648110D01*
X73747440Y14900000D01*
X73747440Y17750000D01*
X73703162Y17985317D01*
X73564090Y18201441D01*
X73351890Y18346431D01*
X73100000Y18397440D01*
X71900000Y18397440D01*
X71769926Y18372965D01*
X71750000Y18377000D01*
X70851004Y18377000D01*
X70661145Y18661145D01*
X69904124Y19418166D01*
X77484543Y19418166D01*
X77884853Y18449342D01*
X78625443Y17707458D01*
X79593567Y17305458D01*
X80641834Y17304543D01*
X81610658Y17704853D01*
X82352542Y18445443D01*
X82754542Y19413567D01*
X82755457Y20461834D01*
X82355147Y21430658D01*
X81614557Y22172542D01*
X80646433Y22574542D01*
X79598166Y22575457D01*
X78629342Y22175147D01*
X77887458Y21434557D01*
X77485458Y20466433D01*
X77484543Y19418166D01*
X69904124Y19418166D01*
X68435000Y20887290D01*
X68435000Y22500000D01*
X68363827Y22857809D01*
X68161145Y23161145D01*
X67711145Y23611145D01*
X67407809Y23813827D01*
X67050000Y23885000D01*
X65041797Y23885000D01*
X64951890Y23946431D01*
X64774969Y23982258D01*
X64985317Y24021838D01*
X65201441Y24160910D01*
X65247969Y24229006D01*
X65390302Y24086673D01*
X65623691Y23990000D01*
X65918250Y23990000D01*
X66077000Y24148750D01*
X66077000Y25077000D01*
X66423000Y25077000D01*
X66423000Y24148750D01*
X66581750Y23990000D01*
X66876309Y23990000D01*
X67109698Y24086673D01*
X67288327Y24265301D01*
X67385000Y24498690D01*
X67385000Y24918250D01*
X67226250Y25077000D01*
X66423000Y25077000D01*
X66077000Y25077000D01*
X66057000Y25077000D01*
X66057000Y25423000D01*
X66077000Y25423000D01*
X66077000Y26351250D01*
X66423000Y26351250D01*
X66423000Y25423000D01*
X67226250Y25423000D01*
X67385000Y25581750D01*
X67385000Y26001310D01*
X67288327Y26234699D01*
X67109698Y26413327D01*
X66876309Y26510000D01*
X66581750Y26510000D01*
X66423000Y26351250D01*
X66077000Y26351250D01*
X65918250Y26510000D01*
X65623691Y26510000D01*
X65390302Y26413327D01*
X65249064Y26272090D01*
X65214090Y26326441D01*
X65185000Y26346317D01*
X65185000Y33112710D01*
X66636145Y34563855D01*
X66838827Y34867191D01*
X66910000Y35225000D01*
X66910000Y36602560D01*
X66950000Y36602560D01*
X67185317Y36646838D01*
X67401441Y36785910D01*
X67496990Y36925750D01*
X67511673Y36890301D01*
X67690302Y36711673D01*
X67923691Y36615000D01*
X68693250Y36615000D01*
X68852000Y36773750D01*
X68852000Y38327000D01*
X69198000Y38327000D01*
X69198000Y36773750D01*
X69356750Y36615000D01*
X70126309Y36615000D01*
X70359698Y36711673D01*
X70538327Y36890301D01*
X70635000Y37123690D01*
X70635000Y37668250D01*
X71865000Y37668250D01*
X71865000Y37248690D01*
X71961673Y37015301D01*
X72140302Y36836673D01*
X72373691Y36740000D01*
X72668250Y36740000D01*
X72827000Y36898750D01*
X72827000Y37827000D01*
X72023750Y37827000D01*
X71865000Y37668250D01*
X70635000Y37668250D01*
X70635000Y38168250D01*
X70476250Y38327000D01*
X69198000Y38327000D01*
X68852000Y38327000D01*
X68832000Y38327000D01*
X68832000Y38673000D01*
X68852000Y38673000D01*
X68852000Y40226250D01*
X69198000Y40226250D01*
X69198000Y38673000D01*
X70476250Y38673000D01*
X70554560Y38751310D01*
X71865000Y38751310D01*
X71865000Y38331750D01*
X72023750Y38173000D01*
X72827000Y38173000D01*
X72827000Y39073750D01*
X72854500Y39101250D01*
X73173000Y39101250D01*
X73173000Y38173000D01*
X73193000Y38173000D01*
X73193000Y37827000D01*
X73173000Y37827000D01*
X73173000Y36898750D01*
X73331750Y36740000D01*
X73626309Y36740000D01*
X73859698Y36836673D01*
X74000936Y36977910D01*
X74035910Y36923559D01*
X74248110Y36778569D01*
X74500000Y36727560D01*
X75500000Y36727560D01*
X75735317Y36771838D01*
X75951441Y36910910D01*
X76056726Y37065000D01*
X77585777Y37065000D01*
X77886077Y36764176D01*
X78293850Y36594854D01*
X77888200Y36427243D01*
X77484176Y36023923D01*
X77265250Y35496691D01*
X77264752Y34925813D01*
X77482757Y34398200D01*
X77886077Y33994176D01*
X78270063Y33834731D01*
X77985997Y33717067D01*
X77908154Y33476505D01*
X78700000Y32684659D01*
X79491846Y33476505D01*
X79414003Y33717067D01*
X79094903Y33820499D01*
X79511800Y33992757D01*
X79915824Y34396077D01*
X80134750Y34923309D01*
X80135248Y35494187D01*
X79917243Y36021800D01*
X79513923Y36425824D01*
X79106150Y36595146D01*
X79511800Y36762757D01*
X79915824Y37166077D01*
X80134750Y37693309D01*
X80135248Y38264187D01*
X79917243Y38791800D01*
X79513923Y39195824D01*
X78986691Y39414750D01*
X78415813Y39415248D01*
X77888200Y39197243D01*
X77625499Y38935000D01*
X76055105Y38935000D01*
X75964090Y39076441D01*
X75885000Y39130481D01*
X75885000Y39331380D01*
X75896431Y39348110D01*
X75947440Y39600000D01*
X75947440Y40900000D01*
X75903162Y41135317D01*
X75764090Y41351441D01*
X75551890Y41496431D01*
X75300000Y41547440D01*
X74600000Y41547440D01*
X74364683Y41503162D01*
X74148559Y41364090D01*
X74003569Y41151890D01*
X73996809Y41118510D01*
X73938327Y41259699D01*
X73759698Y41438327D01*
X73526309Y41535000D01*
X73381750Y41535000D01*
X73223000Y41376250D01*
X73223000Y40423000D01*
X73243000Y40423000D01*
X73243000Y40077000D01*
X73223000Y40077000D01*
X73223000Y39151250D01*
X73173000Y39101250D01*
X72854500Y39101250D01*
X72877000Y39123750D01*
X72877000Y40077000D01*
X72223750Y40077000D01*
X72065000Y39918250D01*
X72065000Y39473690D01*
X72161673Y39240301D01*
X72209843Y39192132D01*
X72140302Y39163327D01*
X71961673Y38984699D01*
X71865000Y38751310D01*
X70554560Y38751310D01*
X70635000Y38831750D01*
X70635000Y39876310D01*
X70538327Y40109699D01*
X70359698Y40288327D01*
X70126309Y40385000D01*
X69356750Y40385000D01*
X69198000Y40226250D01*
X68852000Y40226250D01*
X68693250Y40385000D01*
X67923691Y40385000D01*
X67690302Y40288327D01*
X67511673Y40109699D01*
X67496577Y40073253D01*
X67435000Y40168946D01*
X67435000Y40650331D01*
X67451441Y40660910D01*
X67497969Y40729006D01*
X67640302Y40586673D01*
X67873691Y40490000D01*
X68168250Y40490000D01*
X68327000Y40648750D01*
X68327000Y41577000D01*
X68673000Y41577000D01*
X68673000Y40648750D01*
X68831750Y40490000D01*
X69126309Y40490000D01*
X69359698Y40586673D01*
X69538327Y40765301D01*
X69635000Y40998690D01*
X69635000Y41026310D01*
X72065000Y41026310D01*
X72065000Y40581750D01*
X72223750Y40423000D01*
X72877000Y40423000D01*
X72877000Y41376250D01*
X72718250Y41535000D01*
X72573691Y41535000D01*
X72340302Y41438327D01*
X72161673Y41259699D01*
X72065000Y41026310D01*
X69635000Y41026310D01*
X69635000Y41418250D01*
X69476250Y41577000D01*
X68673000Y41577000D01*
X68327000Y41577000D01*
X68307000Y41577000D01*
X68307000Y41923000D01*
X68327000Y41923000D01*
X68327000Y42851250D01*
X68673000Y42851250D01*
X68673000Y41923000D01*
X69476250Y41923000D01*
X69635000Y42081750D01*
X69635000Y42501310D01*
X69538327Y42734699D01*
X69359698Y42913327D01*
X69126309Y43010000D01*
X68831750Y43010000D01*
X68673000Y42851250D01*
X68327000Y42851250D01*
X68168250Y43010000D01*
X67873691Y43010000D01*
X67640302Y42913327D01*
X67499064Y42772090D01*
X67464090Y42826441D01*
X67251890Y42971431D01*
X67000000Y43022440D01*
X66000000Y43022440D01*
X65764683Y42978162D01*
X65548559Y42839090D01*
X65409110Y42635000D01*
X61077440Y42635000D01*
X61077440Y42970000D01*
X61033162Y43205317D01*
X60894090Y43421441D01*
X60681890Y43566431D01*
X60430000Y43617440D01*
X59730000Y43617440D01*
X59494683Y43573162D01*
X59278559Y43434090D01*
X59133569Y43221890D01*
X59082560Y42970000D01*
X59082560Y40430000D01*
X59126838Y40194683D01*
X59265910Y39978559D01*
X59478110Y39833569D01*
X59730000Y39782560D01*
X60430000Y39782560D01*
X60665317Y39826838D01*
X60881441Y39965910D01*
X61026431Y40178110D01*
X61077440Y40430000D01*
X61077440Y40765000D01*
X65477069Y40765000D01*
X65535910Y40673559D01*
X65565000Y40653683D01*
X65565000Y40397440D01*
X65000000Y40397440D01*
X64764683Y40353162D01*
X64548559Y40214090D01*
X64403569Y40001890D01*
X64352560Y39750000D01*
X64352560Y37250000D01*
X64396838Y37014683D01*
X64535910Y36798559D01*
X64748110Y36653569D01*
X65000000Y36602560D01*
X65040000Y36602560D01*
X65040000Y35612290D01*
X63588855Y34161145D01*
X63386173Y33857809D01*
X63315000Y33500000D01*
X63315000Y26349669D01*
X63298559Y26339090D01*
X63184351Y26171942D01*
X62892191Y26113827D01*
X62588855Y25911145D01*
X62088855Y25411145D01*
X61886173Y25107809D01*
X61821453Y24782440D01*
X59625000Y24782440D01*
X59389683Y24738162D01*
X59173559Y24599090D01*
X59028569Y24386890D01*
X58977560Y24135000D01*
X58877000Y24135000D01*
X58877000Y31168250D01*
X59095000Y31168250D01*
X59095000Y30103690D01*
X59191673Y29870301D01*
X59370302Y29691673D01*
X59603691Y29595000D01*
X59748250Y29595000D01*
X59907000Y29753750D01*
X59907000Y31327000D01*
X60253000Y31327000D01*
X60253000Y29753750D01*
X60411750Y29595000D01*
X60556309Y29595000D01*
X60789698Y29691673D01*
X60968327Y29870301D01*
X61065000Y30103690D01*
X61065000Y31168250D01*
X60906250Y31327000D01*
X60253000Y31327000D01*
X59907000Y31327000D01*
X59253750Y31327000D01*
X59095000Y31168250D01*
X58877000Y31168250D01*
X58877000Y32896310D01*
X59095000Y32896310D01*
X59095000Y31831750D01*
X59253750Y31673000D01*
X59907000Y31673000D01*
X59907000Y33246250D01*
X60253000Y33246250D01*
X60253000Y31673000D01*
X60906250Y31673000D01*
X61065000Y31831750D01*
X61065000Y32896310D01*
X60968327Y33129699D01*
X60789698Y33308327D01*
X60556309Y33405000D01*
X60411750Y33405000D01*
X60253000Y33246250D01*
X59907000Y33246250D01*
X59748250Y33405000D01*
X59603691Y33405000D01*
X59370302Y33308327D01*
X59191673Y33129699D01*
X59095000Y32896310D01*
X58877000Y32896310D01*
X58877000Y44418166D01*
X77484543Y44418166D01*
X77884853Y43449342D01*
X78625443Y42707458D01*
X79593567Y42305458D01*
X80641834Y42304543D01*
X81610658Y42704853D01*
X82352542Y43445443D01*
X82754542Y44413567D01*
X82755457Y45461834D01*
X82355147Y46430658D01*
X81614557Y47172542D01*
X80646433Y47574542D01*
X79598166Y47575457D01*
X78629342Y47175147D01*
X77887458Y46434557D01*
X77485458Y45466433D01*
X77484543Y44418166D01*
X58877000Y44418166D01*
X58877000Y50973339D01*
X77352758Y50973339D01*
X77564990Y50459697D01*
X77957630Y50066371D01*
X78470900Y49853243D01*
X79026661Y49852758D01*
X79540303Y50064990D01*
X79933629Y50457630D01*
X80146757Y50970900D01*
X80147242Y51526661D01*
X79935010Y52040303D01*
X79542370Y52433629D01*
X79029100Y52646757D01*
X78473339Y52647242D01*
X77959697Y52435010D01*
X77566371Y52042370D01*
X77353243Y51529100D01*
X77352758Y50973339D01*
X58877000Y50973339D01*
X58877000Y53123000D01*
X85169506Y53123000D01*
X84829996Y52784082D01*
X84829996Y52784082D01*
G37*
X84829996Y52784082D02*
X84565301Y52146627D01*
X84564699Y51456401D01*
X84828281Y50818485D01*
X85315918Y50329996D01*
X85953373Y50065301D01*
X86643599Y50064699D01*
X87281515Y50328281D01*
X87770004Y50815918D01*
X88034699Y51453373D01*
X88035301Y52143599D01*
X87771719Y52781515D01*
X87430830Y53123000D01*
X89115000Y53123000D01*
X89115000Y12746660D01*
X89042811Y12854698D01*
X88577264Y13165767D01*
X88028113Y13275000D01*
X87971887Y13275000D01*
X87422736Y13165767D01*
X87017376Y12894914D01*
X86935000Y12977290D01*
X86935000Y28750000D01*
X86863827Y29107809D01*
X86661145Y29411145D01*
X84356145Y31716145D01*
X84052809Y31918827D01*
X83695000Y31990000D01*
X82634258Y31990000D01*
X82353923Y32270824D01*
X81946150Y32440146D01*
X82351800Y32607757D01*
X82755824Y33011077D01*
X82974750Y33538309D01*
X82975248Y34109187D01*
X82757243Y34636800D01*
X82353923Y35040824D01*
X81946150Y35210146D01*
X82351800Y35377757D01*
X82755824Y35781077D01*
X82974750Y36308309D01*
X82975248Y36879187D01*
X82757243Y37406800D01*
X82353923Y37810824D01*
X81826691Y38029750D01*
X81255813Y38030248D01*
X80728200Y37812243D01*
X80324176Y37408923D01*
X80105250Y36881691D01*
X80104752Y36310813D01*
X80322757Y35783200D01*
X80726077Y35379176D01*
X81133850Y35209854D01*
X80728200Y35042243D01*
X80324176Y34638923D01*
X80105250Y34111691D01*
X80104752Y33540813D01*
X80322757Y33013200D01*
X80726077Y32609176D01*
X81133850Y32439854D01*
X80728200Y32272243D01*
X80445464Y31990000D01*
X80062640Y31990000D01*
X80153093Y32269060D01*
X80107899Y32838146D01*
X79977067Y33154003D01*
X79736505Y33231846D01*
X78944659Y32440000D01*
X78958801Y32425858D01*
X78714142Y32181199D01*
X78700000Y32195341D01*
X78685858Y32181199D01*
X78441199Y32425858D01*
X78455341Y32440000D01*
X77663495Y33231846D01*
X77422933Y33154003D01*
X77246907Y32610940D01*
X77292101Y32041854D01*
X77313580Y31990000D01*
X74305000Y31990000D01*
X73947191Y31918827D01*
X73643855Y31716145D01*
X69338855Y27411145D01*
X69136173Y27107809D01*
X69065000Y26750000D01*
X69065000Y25639018D01*
X68948559Y25564090D01*
X68803569Y25351890D01*
X68752560Y25100000D01*
X68752560Y22250000D01*
X68796838Y22014683D01*
X68935910Y21798559D01*
X69148110Y21653569D01*
X69400000Y21602560D01*
X70600000Y21602560D01*
X70730074Y21627035D01*
X70750000Y21623000D01*
X71750000Y21623000D01*
X71775433Y21627785D01*
X71900000Y21602560D01*
X73100000Y21602560D01*
X73335317Y21646838D01*
X73551441Y21785910D01*
X73696431Y21998110D01*
X73747440Y22250000D01*
X73747440Y25100000D01*
X73703162Y25335317D01*
X73564090Y25551441D01*
X73435000Y25639644D01*
X73435000Y26862710D01*
X75307290Y28735000D01*
X77605742Y28735000D01*
X77886077Y28454176D01*
X78143126Y28347440D01*
X77900000Y28347440D01*
X77664683Y28303162D01*
X77448559Y28164090D01*
X77303569Y27951890D01*
X77252560Y27700000D01*
X77252560Y26100000D01*
X77296838Y25864683D01*
X77435910Y25648559D01*
X77648110Y25503569D01*
X77900000Y25452560D01*
X79500000Y25452560D01*
X79735317Y25496838D01*
X79951441Y25635910D01*
X80096431Y25848110D01*
X80147440Y26100000D01*
X80147440Y27700000D01*
X80103162Y27935317D01*
X79964090Y28151441D01*
X79751890Y28296431D01*
X79500000Y28347440D01*
X79256913Y28347440D01*
X79511800Y28452757D01*
X79794536Y28735000D01*
X80173062Y28735000D01*
X80105250Y28571691D01*
X80104752Y28000813D01*
X80322757Y27473200D01*
X80726077Y27069176D01*
X81253309Y26850250D01*
X81824187Y26849752D01*
X82351800Y27067757D01*
X82755824Y27471077D01*
X82974750Y27998309D01*
X82975248Y28569187D01*
X82906736Y28735000D01*
X82942710Y28735000D01*
X83815000Y27862710D01*
X83815000Y11250000D01*
X83886173Y10892191D01*
X84088855Y10588855D01*
X86038855Y8638855D01*
X86342191Y8436173D01*
X86573217Y8390219D01*
X86596838Y8264683D01*
X86735910Y8048559D01*
X86948110Y7903569D01*
X87200000Y7852560D01*
X88800000Y7852560D01*
X89035317Y7896838D01*
X89115000Y7948113D01*
X89115000Y2127000D01*
X87380406Y2127000D01*
X87770004Y2515918D01*
X88034699Y3153373D01*
X88035301Y3843599D01*
X87771719Y4481515D01*
X87284082Y4970004D01*
X86646627Y5234699D01*
X85956401Y5235301D01*
X85318485Y4971719D01*
X84829996Y4484082D01*
X84565301Y3846627D01*
X84564699Y3156401D01*
X84828281Y2518485D01*
X85219083Y2127000D01*
X58877000Y2127000D01*
X58877000Y8668250D01*
X68115000Y8668250D01*
X68115000Y8248690D01*
X68211673Y8015301D01*
X68390302Y7836673D01*
X68623691Y7740000D01*
X68918250Y7740000D01*
X69077000Y7898750D01*
X69077000Y8827000D01*
X68273750Y8827000D01*
X68115000Y8668250D01*
X58877000Y8668250D01*
X58877000Y9751310D01*
X68115000Y9751310D01*
X68115000Y9331750D01*
X68273750Y9173000D01*
X69077000Y9173000D01*
X69077000Y10101250D01*
X69423000Y10101250D01*
X69423000Y9173000D01*
X69443000Y9173000D01*
X69443000Y8827000D01*
X69423000Y8827000D01*
X69423000Y7898750D01*
X69581750Y7740000D01*
X69876309Y7740000D01*
X70109698Y7836673D01*
X70250936Y7977910D01*
X70285910Y7923559D01*
X70498110Y7778569D01*
X70750000Y7727560D01*
X71750000Y7727560D01*
X71985317Y7771838D01*
X72201441Y7910910D01*
X72306726Y8065000D01*
X72468554Y8065000D01*
X72496838Y7914683D01*
X72635910Y7698559D01*
X72848110Y7553569D01*
X73100000Y7502560D01*
X74000000Y7502560D01*
X74235317Y7546838D01*
X74451441Y7685910D01*
X74596431Y7898110D01*
X74647440Y8150000D01*
X74647440Y9850000D01*
X74603162Y10085317D01*
X74485000Y10268946D01*
X74485000Y10735025D01*
X74596431Y10898110D01*
X74647440Y11150000D01*
X74647440Y12850000D01*
X75352560Y12850000D01*
X75352560Y11150000D01*
X75396838Y10914683D01*
X75535910Y10698559D01*
X75748110Y10553569D01*
X76000000Y10502560D01*
X76900000Y10502560D01*
X77135317Y10546838D01*
X77351441Y10685910D01*
X77496431Y10898110D01*
X77530227Y11065000D01*
X79177028Y11065000D01*
X79337189Y10825302D01*
X79719275Y10570000D01*
X79337189Y10314698D01*
X79083483Y9935000D01*
X77531446Y9935000D01*
X77503162Y10085317D01*
X77364090Y10301441D01*
X77151890Y10446431D01*
X76900000Y10497440D01*
X76000000Y10497440D01*
X75764683Y10453162D01*
X75548559Y10314090D01*
X75403569Y10101890D01*
X75352560Y9850000D01*
X75352560Y8150000D01*
X75396838Y7914683D01*
X75535910Y7698559D01*
X75748110Y7553569D01*
X76000000Y7502560D01*
X76900000Y7502560D01*
X77135317Y7546838D01*
X77351441Y7685910D01*
X77496431Y7898110D01*
X77530227Y8065000D01*
X79666894Y8065000D01*
X79802736Y7974233D01*
X80351887Y7865000D01*
X80408113Y7865000D01*
X80957264Y7974233D01*
X81422811Y8285302D01*
X81733880Y8750849D01*
X81843113Y9300000D01*
X81733880Y9849151D01*
X81422811Y10314698D01*
X81040725Y10570000D01*
X81422811Y10825302D01*
X81733880Y11290849D01*
X81843113Y11840000D01*
X81733880Y12389151D01*
X81422811Y12854698D01*
X80957264Y13165767D01*
X80408113Y13275000D01*
X80351887Y13275000D01*
X79802736Y13165767D01*
X79457369Y12935000D01*
X77531446Y12935000D01*
X77503162Y13085317D01*
X77364090Y13301441D01*
X77151890Y13446431D01*
X76900000Y13497440D01*
X76000000Y13497440D01*
X75764683Y13453162D01*
X75548559Y13314090D01*
X75403569Y13101890D01*
X75352560Y12850000D01*
X74647440Y12850000D01*
X74603162Y13085317D01*
X74464090Y13301441D01*
X74251890Y13446431D01*
X74000000Y13497440D01*
X73100000Y13497440D01*
X72864683Y13453162D01*
X72648559Y13314090D01*
X72503569Y13101890D01*
X72452560Y12850000D01*
X72452560Y11150000D01*
X72496838Y10914683D01*
X72615000Y10731054D01*
X72615000Y10264975D01*
X72503569Y10101890D01*
X72469773Y9935000D01*
X72305105Y9935000D01*
X72214090Y10076441D01*
X72001890Y10221431D01*
X71750000Y10272440D01*
X70750000Y10272440D01*
X70514683Y10228162D01*
X70298559Y10089090D01*
X70252031Y10020994D01*
X70109698Y10163327D01*
X69876309Y10260000D01*
X69581750Y10260000D01*
X69423000Y10101250D01*
X69077000Y10101250D01*
X68918250Y10260000D01*
X68623691Y10260000D01*
X68390302Y10163327D01*
X68211673Y9984699D01*
X68115000Y9751310D01*
X58877000Y9751310D01*
X58877000Y15868750D01*
X58990000Y15868750D01*
X58990000Y15738690D01*
X59086673Y15505301D01*
X59265302Y15326673D01*
X59498691Y15230000D01*
X60468250Y15230000D01*
X60627000Y15388750D01*
X60627000Y16027500D01*
X60973000Y16027500D01*
X60973000Y15388750D01*
X61131750Y15230000D01*
X62101309Y15230000D01*
X62334698Y15326673D01*
X62513327Y15505301D01*
X62610000Y15738690D01*
X62610000Y15868750D01*
X62451250Y16027500D01*
X60973000Y16027500D01*
X60627000Y16027500D01*
X59148750Y16027500D01*
X58990000Y15868750D01*
X58877000Y15868750D01*
X58877000Y16641310D01*
X58990000Y16641310D01*
X58990000Y16511250D01*
X59148750Y16352500D01*
X60627000Y16352500D01*
X60627000Y16991250D01*
X60973000Y16991250D01*
X60973000Y16352500D01*
X62451250Y16352500D01*
X62567000Y16468250D01*
X63165000Y16468250D01*
X63165000Y16273690D01*
X63261673Y16040301D01*
X63440302Y15861673D01*
X63673691Y15765000D01*
X63918250Y15765000D01*
X64077000Y15923750D01*
X64077000Y16627000D01*
X64423000Y16627000D01*
X64423000Y15923750D01*
X64581750Y15765000D01*
X64826309Y15765000D01*
X65059698Y15861673D01*
X65238327Y16040301D01*
X65335000Y16273690D01*
X65335000Y16468250D01*
X65176250Y16627000D01*
X64423000Y16627000D01*
X64077000Y16627000D01*
X63323750Y16627000D01*
X63165000Y16468250D01*
X62567000Y16468250D01*
X62610000Y16511250D01*
X62610000Y16641310D01*
X62513327Y16874699D01*
X62334698Y17053327D01*
X62101309Y17150000D01*
X61131750Y17150000D01*
X60973000Y16991250D01*
X60627000Y16991250D01*
X60468250Y17150000D01*
X59498691Y17150000D01*
X59265302Y17053327D01*
X59086673Y16874699D01*
X58990000Y16641310D01*
X58877000Y16641310D01*
X58877000Y24135000D01*
X58977560Y24135000D01*
X58977560Y23485000D01*
X59021838Y23249683D01*
X59160910Y23033559D01*
X59373110Y22888569D01*
X59625000Y22837560D01*
X61975000Y22837560D01*
X62143875Y22869336D01*
X62136173Y22857809D01*
X62065000Y22500000D01*
X62065000Y22224215D01*
X61975000Y22242440D01*
X59625000Y22242440D01*
X59389683Y22198162D01*
X59173559Y22059090D01*
X59028569Y21846890D01*
X58977560Y21595000D01*
X58977560Y20945000D01*
X59021838Y20709683D01*
X59160910Y20493559D01*
X59373110Y20348569D01*
X59625000Y20297560D01*
X61975000Y20297560D01*
X62173976Y20335000D01*
X62520000Y20335000D01*
X62877809Y20406173D01*
X63165000Y20598067D01*
X63165000Y20523690D01*
X63261673Y20290301D01*
X63440302Y20111673D01*
X63673691Y20015000D01*
X63918250Y20015000D01*
X64077000Y20173750D01*
X64077000Y20877000D01*
X64423000Y20877000D01*
X64423000Y20173750D01*
X64581750Y20015000D01*
X64826309Y20015000D01*
X65059698Y20111673D01*
X65238327Y20290301D01*
X65335000Y20523690D01*
X65335000Y20718250D01*
X65176250Y20877000D01*
X64423000Y20877000D01*
X64077000Y20877000D01*
X64057000Y20877000D01*
X64057000Y21223000D01*
X64077000Y21223000D01*
X64077000Y21243000D01*
X64423000Y21243000D01*
X64423000Y21223000D01*
X65176250Y21223000D01*
X65244251Y21291001D01*
X65335910Y21148559D01*
X65548110Y21003569D01*
X65800000Y20952560D01*
X66565000Y20952560D01*
X66565000Y20500000D01*
X66636173Y20142191D01*
X66838855Y19838855D01*
X67042710Y19635000D01*
X65041797Y19635000D01*
X64951890Y19696431D01*
X64700000Y19747440D01*
X63800000Y19747440D01*
X63564683Y19703162D01*
X63505378Y19665000D01*
X62159884Y19665000D01*
X61975000Y19702440D01*
X59625000Y19702440D01*
X59389683Y19658162D01*
X59173559Y19519090D01*
X59028569Y19306890D01*
X58977560Y19055000D01*
X58977560Y18405000D01*
X59021838Y18169683D01*
X59160910Y17953559D01*
X59373110Y17808569D01*
X59625000Y17757560D01*
X61975000Y17757560D01*
X62173976Y17795000D01*
X63414296Y17795000D01*
X63475750Y17753010D01*
X63440302Y17738327D01*
X63261673Y17559699D01*
X63165000Y17326310D01*
X63165000Y17131750D01*
X63323750Y16973000D01*
X64077000Y16973000D01*
X64077000Y16993000D01*
X64423000Y16993000D01*
X64423000Y16973000D01*
X65176250Y16973000D01*
X65244251Y17041001D01*
X65335910Y16898559D01*
X65548110Y16753569D01*
X65800000Y16702560D01*
X66700000Y16702560D01*
X66935317Y16746838D01*
X67151441Y16885910D01*
X67296431Y17098110D01*
X67347440Y17350000D01*
X67347440Y17580272D01*
X67565000Y17362712D01*
X67565000Y14500000D01*
X67636173Y14142191D01*
X67838855Y13838855D01*
X68338855Y13338855D01*
X68642191Y13136173D01*
X69000000Y13065000D01*
X71950000Y13065000D01*
X72307809Y13136173D01*
X72611145Y13338855D01*
X73161145Y13888855D01*
X73363827Y14192191D01*
X73391883Y14333237D01*
X73551441Y14435910D01*
X73696431Y14648110D01*
X73747440Y14900000D01*
X73747440Y17750000D01*
X73703162Y17985317D01*
X73564090Y18201441D01*
X73351890Y18346431D01*
X73100000Y18397440D01*
X71900000Y18397440D01*
X71769926Y18372965D01*
X71750000Y18377000D01*
X70851004Y18377000D01*
X70661145Y18661145D01*
X69904124Y19418166D01*
X77484543Y19418166D01*
X77884853Y18449342D01*
X78625443Y17707458D01*
X79593567Y17305458D01*
X80641834Y17304543D01*
X81610658Y17704853D01*
X82352542Y18445443D01*
X82754542Y19413567D01*
X82755457Y20461834D01*
X82355147Y21430658D01*
X81614557Y22172542D01*
X80646433Y22574542D01*
X79598166Y22575457D01*
X78629342Y22175147D01*
X77887458Y21434557D01*
X77485458Y20466433D01*
X77484543Y19418166D01*
X69904124Y19418166D01*
X68435000Y20887290D01*
X68435000Y22500000D01*
X68363827Y22857809D01*
X68161145Y23161145D01*
X67711145Y23611145D01*
X67407809Y23813827D01*
X67050000Y23885000D01*
X65041797Y23885000D01*
X64951890Y23946431D01*
X64774969Y23982258D01*
X64985317Y24021838D01*
X65201441Y24160910D01*
X65247969Y24229006D01*
X65390302Y24086673D01*
X65623691Y23990000D01*
X65918250Y23990000D01*
X66077000Y24148750D01*
X66077000Y25077000D01*
X66423000Y25077000D01*
X66423000Y24148750D01*
X66581750Y23990000D01*
X66876309Y23990000D01*
X67109698Y24086673D01*
X67288327Y24265301D01*
X67385000Y24498690D01*
X67385000Y24918250D01*
X67226250Y25077000D01*
X66423000Y25077000D01*
X66077000Y25077000D01*
X66057000Y25077000D01*
X66057000Y25423000D01*
X66077000Y25423000D01*
X66077000Y26351250D01*
X66423000Y26351250D01*
X66423000Y25423000D01*
X67226250Y25423000D01*
X67385000Y25581750D01*
X67385000Y26001310D01*
X67288327Y26234699D01*
X67109698Y26413327D01*
X66876309Y26510000D01*
X66581750Y26510000D01*
X66423000Y26351250D01*
X66077000Y26351250D01*
X65918250Y26510000D01*
X65623691Y26510000D01*
X65390302Y26413327D01*
X65249064Y26272090D01*
X65214090Y26326441D01*
X65185000Y26346317D01*
X65185000Y33112710D01*
X66636145Y34563855D01*
X66838827Y34867191D01*
X66910000Y35225000D01*
X66910000Y36602560D01*
X66950000Y36602560D01*
X67185317Y36646838D01*
X67401441Y36785910D01*
X67496990Y36925750D01*
X67511673Y36890301D01*
X67690302Y36711673D01*
X67923691Y36615000D01*
X68693250Y36615000D01*
X68852000Y36773750D01*
X68852000Y38327000D01*
X69198000Y38327000D01*
X69198000Y36773750D01*
X69356750Y36615000D01*
X70126309Y36615000D01*
X70359698Y36711673D01*
X70538327Y36890301D01*
X70635000Y37123690D01*
X70635000Y37668250D01*
X71865000Y37668250D01*
X71865000Y37248690D01*
X71961673Y37015301D01*
X72140302Y36836673D01*
X72373691Y36740000D01*
X72668250Y36740000D01*
X72827000Y36898750D01*
X72827000Y37827000D01*
X72023750Y37827000D01*
X71865000Y37668250D01*
X70635000Y37668250D01*
X70635000Y38168250D01*
X70476250Y38327000D01*
X69198000Y38327000D01*
X68852000Y38327000D01*
X68832000Y38327000D01*
X68832000Y38673000D01*
X68852000Y38673000D01*
X68852000Y40226250D01*
X69198000Y40226250D01*
X69198000Y38673000D01*
X70476250Y38673000D01*
X70554560Y38751310D01*
X71865000Y38751310D01*
X71865000Y38331750D01*
X72023750Y38173000D01*
X72827000Y38173000D01*
X72827000Y39073750D01*
X72854500Y39101250D01*
X73173000Y39101250D01*
X73173000Y38173000D01*
X73193000Y38173000D01*
X73193000Y37827000D01*
X73173000Y37827000D01*
X73173000Y36898750D01*
X73331750Y36740000D01*
X73626309Y36740000D01*
X73859698Y36836673D01*
X74000936Y36977910D01*
X74035910Y36923559D01*
X74248110Y36778569D01*
X74500000Y36727560D01*
X75500000Y36727560D01*
X75735317Y36771838D01*
X75951441Y36910910D01*
X76056726Y37065000D01*
X77585777Y37065000D01*
X77886077Y36764176D01*
X78293850Y36594854D01*
X77888200Y36427243D01*
X77484176Y36023923D01*
X77265250Y35496691D01*
X77264752Y34925813D01*
X77482757Y34398200D01*
X77886077Y33994176D01*
X78270063Y33834731D01*
X77985997Y33717067D01*
X77908154Y33476505D01*
X78700000Y32684659D01*
X79491846Y33476505D01*
X79414003Y33717067D01*
X79094903Y33820499D01*
X79511800Y33992757D01*
X79915824Y34396077D01*
X80134750Y34923309D01*
X80135248Y35494187D01*
X79917243Y36021800D01*
X79513923Y36425824D01*
X79106150Y36595146D01*
X79511800Y36762757D01*
X79915824Y37166077D01*
X80134750Y37693309D01*
X80135248Y38264187D01*
X79917243Y38791800D01*
X79513923Y39195824D01*
X78986691Y39414750D01*
X78415813Y39415248D01*
X77888200Y39197243D01*
X77625499Y38935000D01*
X76055105Y38935000D01*
X75964090Y39076441D01*
X75885000Y39130481D01*
X75885000Y39331380D01*
X75896431Y39348110D01*
X75947440Y39600000D01*
X75947440Y40900000D01*
X75903162Y41135317D01*
X75764090Y41351441D01*
X75551890Y41496431D01*
X75300000Y41547440D01*
X74600000Y41547440D01*
X74364683Y41503162D01*
X74148559Y41364090D01*
X74003569Y41151890D01*
X73996809Y41118510D01*
X73938327Y41259699D01*
X73759698Y41438327D01*
X73526309Y41535000D01*
X73381750Y41535000D01*
X73223000Y41376250D01*
X73223000Y40423000D01*
X73243000Y40423000D01*
X73243000Y40077000D01*
X73223000Y40077000D01*
X73223000Y39151250D01*
X73173000Y39101250D01*
X72854500Y39101250D01*
X72877000Y39123750D01*
X72877000Y40077000D01*
X72223750Y40077000D01*
X72065000Y39918250D01*
X72065000Y39473690D01*
X72161673Y39240301D01*
X72209843Y39192132D01*
X72140302Y39163327D01*
X71961673Y38984699D01*
X71865000Y38751310D01*
X70554560Y38751310D01*
X70635000Y38831750D01*
X70635000Y39876310D01*
X70538327Y40109699D01*
X70359698Y40288327D01*
X70126309Y40385000D01*
X69356750Y40385000D01*
X69198000Y40226250D01*
X68852000Y40226250D01*
X68693250Y40385000D01*
X67923691Y40385000D01*
X67690302Y40288327D01*
X67511673Y40109699D01*
X67496577Y40073253D01*
X67435000Y40168946D01*
X67435000Y40650331D01*
X67451441Y40660910D01*
X67497969Y40729006D01*
X67640302Y40586673D01*
X67873691Y40490000D01*
X68168250Y40490000D01*
X68327000Y40648750D01*
X68327000Y41577000D01*
X68673000Y41577000D01*
X68673000Y40648750D01*
X68831750Y40490000D01*
X69126309Y40490000D01*
X69359698Y40586673D01*
X69538327Y40765301D01*
X69635000Y40998690D01*
X69635000Y41026310D01*
X72065000Y41026310D01*
X72065000Y40581750D01*
X72223750Y40423000D01*
X72877000Y40423000D01*
X72877000Y41376250D01*
X72718250Y41535000D01*
X72573691Y41535000D01*
X72340302Y41438327D01*
X72161673Y41259699D01*
X72065000Y41026310D01*
X69635000Y41026310D01*
X69635000Y41418250D01*
X69476250Y41577000D01*
X68673000Y41577000D01*
X68327000Y41577000D01*
X68307000Y41577000D01*
X68307000Y41923000D01*
X68327000Y41923000D01*
X68327000Y42851250D01*
X68673000Y42851250D01*
X68673000Y41923000D01*
X69476250Y41923000D01*
X69635000Y42081750D01*
X69635000Y42501310D01*
X69538327Y42734699D01*
X69359698Y42913327D01*
X69126309Y43010000D01*
X68831750Y43010000D01*
X68673000Y42851250D01*
X68327000Y42851250D01*
X68168250Y43010000D01*
X67873691Y43010000D01*
X67640302Y42913327D01*
X67499064Y42772090D01*
X67464090Y42826441D01*
X67251890Y42971431D01*
X67000000Y43022440D01*
X66000000Y43022440D01*
X65764683Y42978162D01*
X65548559Y42839090D01*
X65409110Y42635000D01*
X61077440Y42635000D01*
X61077440Y42970000D01*
X61033162Y43205317D01*
X60894090Y43421441D01*
X60681890Y43566431D01*
X60430000Y43617440D01*
X59730000Y43617440D01*
X59494683Y43573162D01*
X59278559Y43434090D01*
X59133569Y43221890D01*
X59082560Y42970000D01*
X59082560Y40430000D01*
X59126838Y40194683D01*
X59265910Y39978559D01*
X59478110Y39833569D01*
X59730000Y39782560D01*
X60430000Y39782560D01*
X60665317Y39826838D01*
X60881441Y39965910D01*
X61026431Y40178110D01*
X61077440Y40430000D01*
X61077440Y40765000D01*
X65477069Y40765000D01*
X65535910Y40673559D01*
X65565000Y40653683D01*
X65565000Y40397440D01*
X65000000Y40397440D01*
X64764683Y40353162D01*
X64548559Y40214090D01*
X64403569Y40001890D01*
X64352560Y39750000D01*
X64352560Y37250000D01*
X64396838Y37014683D01*
X64535910Y36798559D01*
X64748110Y36653569D01*
X65000000Y36602560D01*
X65040000Y36602560D01*
X65040000Y35612290D01*
X63588855Y34161145D01*
X63386173Y33857809D01*
X63315000Y33500000D01*
X63315000Y26349669D01*
X63298559Y26339090D01*
X63184351Y26171942D01*
X62892191Y26113827D01*
X62588855Y25911145D01*
X62088855Y25411145D01*
X61886173Y25107809D01*
X61821453Y24782440D01*
X59625000Y24782440D01*
X59389683Y24738162D01*
X59173559Y24599090D01*
X59028569Y24386890D01*
X58977560Y24135000D01*
X58877000Y24135000D01*
X58877000Y31168250D01*
X59095000Y31168250D01*
X59095000Y30103690D01*
X59191673Y29870301D01*
X59370302Y29691673D01*
X59603691Y29595000D01*
X59748250Y29595000D01*
X59907000Y29753750D01*
X59907000Y31327000D01*
X60253000Y31327000D01*
X60253000Y29753750D01*
X60411750Y29595000D01*
X60556309Y29595000D01*
X60789698Y29691673D01*
X60968327Y29870301D01*
X61065000Y30103690D01*
X61065000Y31168250D01*
X60906250Y31327000D01*
X60253000Y31327000D01*
X59907000Y31327000D01*
X59253750Y31327000D01*
X59095000Y31168250D01*
X58877000Y31168250D01*
X58877000Y32896310D01*
X59095000Y32896310D01*
X59095000Y31831750D01*
X59253750Y31673000D01*
X59907000Y31673000D01*
X59907000Y33246250D01*
X60253000Y33246250D01*
X60253000Y31673000D01*
X60906250Y31673000D01*
X61065000Y31831750D01*
X61065000Y32896310D01*
X60968327Y33129699D01*
X60789698Y33308327D01*
X60556309Y33405000D01*
X60411750Y33405000D01*
X60253000Y33246250D01*
X59907000Y33246250D01*
X59748250Y33405000D01*
X59603691Y33405000D01*
X59370302Y33308327D01*
X59191673Y33129699D01*
X59095000Y32896310D01*
X58877000Y32896310D01*
X58877000Y44418166D01*
X77484543Y44418166D01*
X77884853Y43449342D01*
X78625443Y42707458D01*
X79593567Y42305458D01*
X80641834Y42304543D01*
X81610658Y42704853D01*
X82352542Y43445443D01*
X82754542Y44413567D01*
X82755457Y45461834D01*
X82355147Y46430658D01*
X81614557Y47172542D01*
X80646433Y47574542D01*
X79598166Y47575457D01*
X78629342Y47175147D01*
X77887458Y46434557D01*
X77485458Y45466433D01*
X77484543Y44418166D01*
X58877000Y44418166D01*
X58877000Y50973339D01*
X77352758Y50973339D01*
X77564990Y50459697D01*
X77957630Y50066371D01*
X78470900Y49853243D01*
X79026661Y49852758D01*
X79540303Y50064990D01*
X79933629Y50457630D01*
X80146757Y50970900D01*
X80147242Y51526661D01*
X79935010Y52040303D01*
X79542370Y52433629D01*
X79029100Y52646757D01*
X78473339Y52647242D01*
X77959697Y52435010D01*
X77566371Y52042370D01*
X77353243Y51529100D01*
X77352758Y50973339D01*
X58877000Y50973339D01*
X58877000Y53123000D01*
X85169506Y53123000D01*
X84829996Y52784082D01*
G36*
X2029996Y52784082D02*
X1765301Y52146627D01*
X1764699Y51456401D01*
X2028281Y50818485D01*
X2515918Y50329996D01*
X3153373Y50065301D01*
X3843599Y50064699D01*
X4481515Y50328281D01*
X4877263Y50723339D01*
X9852758Y50723339D01*
X10064990Y50209697D01*
X10457630Y49816371D01*
X10970900Y49603243D01*
X11526661Y49602758D01*
X12040303Y49814990D01*
X12433629Y50207630D01*
X12646757Y50720900D01*
X12646856Y50835000D01*
X22007857Y50835000D01*
X22007857Y47015000D01*
X40992143Y47015000D01*
X40992143Y50835000D01*
X22007857Y50835000D01*
X12646856Y50835000D01*
X12647242Y51276661D01*
X12435010Y51790303D01*
X12042370Y52183629D01*
X11529100Y52396757D01*
X10973339Y52397242D01*
X10459697Y52185010D01*
X10066371Y51792370D01*
X9853243Y51279100D01*
X9852758Y50723339D01*
X4877263Y50723339D01*
X4970004Y50815918D01*
X5234699Y51453373D01*
X5235301Y52143599D01*
X4971719Y52781515D01*
X4602124Y53151756D01*
X53623000Y53151756D01*
X53623000Y29935000D01*
X53375126Y29935000D01*
X53445000Y30103690D01*
X53445000Y31168250D01*
X53286250Y31327000D01*
X52633000Y31327000D01*
X52633000Y31307000D01*
X52287000Y31307000D01*
X52287000Y31327000D01*
X51633750Y31327000D01*
X51475000Y31168250D01*
X51475000Y30103690D01*
X51571673Y29870301D01*
X51643854Y29798120D01*
X51438855Y29661145D01*
X50378479Y28600769D01*
X50353162Y28735317D01*
X50214090Y28951441D01*
X50001890Y29096431D01*
X49750000Y29147440D01*
X49685000Y29147440D01*
X49685000Y29438338D01*
X49796371Y29549515D01*
X49984785Y30003266D01*
X49985214Y30494579D01*
X49797592Y30948657D01*
X49450485Y31296371D01*
X48996734Y31484785D01*
X48505421Y31485214D01*
X48051343Y31297592D01*
X47703629Y30950485D01*
X47515215Y30496734D01*
X47514786Y30005421D01*
X47702408Y29551343D01*
X47815000Y29438554D01*
X47815000Y29147440D01*
X47800000Y29147440D01*
X47564683Y29103162D01*
X47348559Y28964090D01*
X47253010Y28824250D01*
X47238327Y28859699D01*
X47059698Y29038327D01*
X46826309Y29135000D01*
X46056750Y29135000D01*
X45898000Y28976250D01*
X45898000Y27423000D01*
X45918000Y27423000D01*
X45918000Y27077000D01*
X45898000Y27077000D01*
X45898000Y25523750D01*
X46056750Y25365000D01*
X46826309Y25365000D01*
X47059698Y25461673D01*
X47238327Y25640301D01*
X47253423Y25676747D01*
X47335910Y25548559D01*
X47469392Y25457355D01*
X47386173Y25332809D01*
X47315000Y24975000D01*
X47315000Y24849669D01*
X47298559Y24839090D01*
X47252031Y24770994D01*
X47109698Y24913327D01*
X46876309Y25010000D01*
X46581750Y25010000D01*
X46423000Y24851250D01*
X46423000Y23923000D01*
X46443000Y23923000D01*
X46443000Y23577000D01*
X46423000Y23577000D01*
X46423000Y22648750D01*
X46581750Y22490000D01*
X46876309Y22490000D01*
X47109698Y22586673D01*
X47250936Y22727910D01*
X47285910Y22673559D01*
X47498110Y22528569D01*
X47750000Y22477560D01*
X48750000Y22477560D01*
X48985317Y22521838D01*
X49201441Y22660910D01*
X49346431Y22873110D01*
X49346814Y22875000D01*
X50340116Y22875000D01*
X50525000Y22837560D01*
X52875000Y22837560D01*
X53110317Y22881838D01*
X53326441Y23020910D01*
X53471431Y23233110D01*
X53522440Y23485000D01*
X53522440Y24135000D01*
X53478162Y24370317D01*
X53339090Y24586441D01*
X53126890Y24731431D01*
X52875000Y24782440D01*
X50525000Y24782440D01*
X50326024Y24745000D01*
X49342290Y24745000D01*
X49411145Y24813855D01*
X49613827Y25117191D01*
X49660645Y25352560D01*
X49750000Y25352560D01*
X49985317Y25396838D01*
X50201441Y25535910D01*
X50346431Y25748110D01*
X50397440Y26000000D01*
X50397440Y26324436D01*
X50707809Y26386173D01*
X51011145Y26588855D01*
X51340540Y26918250D01*
X51865000Y26918250D01*
X51865000Y26498690D01*
X51961673Y26265301D01*
X52140302Y26086673D01*
X52373691Y25990000D01*
X52668250Y25990000D01*
X52827000Y26148750D01*
X52827000Y27077000D01*
X52023750Y27077000D01*
X51865000Y26918250D01*
X51340540Y26918250D01*
X51934520Y27512230D01*
X52023750Y27423000D01*
X52827000Y27423000D01*
X52827000Y27443000D01*
X53173000Y27443000D01*
X53173000Y27423000D01*
X53193000Y27423000D01*
X53193000Y27077000D01*
X53173000Y27077000D01*
X53173000Y26148750D01*
X53331750Y25990000D01*
X53623000Y25990000D01*
X53623000Y2155756D01*
X51492143Y2155756D01*
X51492143Y4835000D01*
X46007857Y4835000D01*
X46007857Y2155756D01*
X4609213Y2155756D01*
X4970004Y2515918D01*
X5234699Y3153373D01*
X5235196Y3723339D01*
X9102758Y3723339D01*
X9314990Y3209697D01*
X9707630Y2816371D01*
X10220900Y2603243D01*
X10776661Y2602758D01*
X11290303Y2814990D01*
X11683629Y3207630D01*
X11896757Y3720900D01*
X11897242Y4276661D01*
X11685010Y4790303D01*
X11292370Y5183629D01*
X10779100Y5396757D01*
X10223339Y5397242D01*
X9709697Y5185010D01*
X9316371Y4792370D01*
X9103243Y4279100D01*
X9102758Y3723339D01*
X5235196Y3723339D01*
X5235301Y3843599D01*
X4971719Y4481515D01*
X4484082Y4970004D01*
X3846627Y5234699D01*
X3156401Y5235301D01*
X2518485Y4971719D01*
X2029996Y4484082D01*
X1765301Y3846627D01*
X1764699Y3156401D01*
X2028281Y2518485D01*
X2390377Y2155756D01*
X685000Y2155756D01*
X685000Y8400803D01*
X4295462Y8400803D01*
X4385671Y8149903D01*
X4965100Y7957111D01*
X5574201Y8000733D01*
X5934329Y8149903D01*
X6024538Y8400803D01*
X6835462Y8400803D01*
X6925671Y8149903D01*
X7505100Y7957111D01*
X8114201Y8000733D01*
X8474329Y8149903D01*
X8564538Y8400803D01*
X7700000Y9265341D01*
X6835462Y8400803D01*
X6024538Y8400803D01*
X5160000Y9265341D01*
X4295462Y8400803D01*
X685000Y8400803D01*
X685000Y9704900D01*
X3607111Y9704900D01*
X3650733Y9095799D01*
X3799903Y8735671D01*
X4050803Y8645462D01*
X4915341Y9510000D01*
X4050803Y10374538D01*
X3799903Y10284329D01*
X3607111Y9704900D01*
X685000Y9704900D01*
X685000Y11746009D01*
X3624735Y11746009D01*
X3857932Y11181629D01*
X4289357Y10749449D01*
X4335417Y10730323D01*
X4295462Y10619197D01*
X5160000Y9754659D01*
X6024538Y10619197D01*
X5984735Y10729902D01*
X6028371Y10747932D01*
X6196613Y10915880D01*
X6196838Y10914683D01*
X6335910Y10698559D01*
X6539574Y10559402D01*
X6472755Y10492583D01*
X6590801Y10374537D01*
X6430000Y10316723D01*
X6269197Y10374538D01*
X5404659Y9510000D01*
X6269197Y8645462D01*
X6430000Y8703277D01*
X6590803Y8645462D01*
X7455341Y9510000D01*
X7441199Y9524142D01*
X7685858Y9768801D01*
X7700000Y9754659D01*
X7714142Y9768801D01*
X7958801Y9524142D01*
X7944659Y9510000D01*
X8809197Y8645462D01*
X9060097Y8735671D01*
X9252889Y9315100D01*
X9209267Y9924201D01*
X9060097Y10284329D01*
X8809199Y10374537D01*
X8927245Y10492583D01*
X8858240Y10561588D01*
X9051441Y10685910D01*
X9196431Y10898110D01*
X9247440Y11150000D01*
X9247440Y12950000D01*
X9203162Y13185317D01*
X9064090Y13401441D01*
X8851890Y13546431D01*
X8600000Y13597440D01*
X8535000Y13597440D01*
X8535000Y14327962D01*
X8635317Y14346838D01*
X8851441Y14485910D01*
X8996431Y14698110D01*
X9047440Y14950000D01*
X9047440Y15650000D01*
X9003162Y15885317D01*
X8864090Y16101441D01*
X8651890Y16246431D01*
X8638803Y16249081D01*
X8851441Y16385910D01*
X8996431Y16598110D01*
X9047440Y16850000D01*
X9047440Y17550000D01*
X9003162Y17785317D01*
X8864090Y18001441D01*
X8784831Y18055596D01*
X8785179Y18454971D01*
X8627942Y18835515D01*
X8337046Y19126919D01*
X7956777Y19284820D01*
X7545029Y19285179D01*
X7164485Y19127942D01*
X6873081Y18837046D01*
X6715180Y18456777D01*
X6714831Y18056735D01*
X6648559Y18014090D01*
X6503569Y17801890D01*
X6500919Y17788803D01*
X6364090Y18001441D01*
X6284831Y18055596D01*
X6285179Y18454971D01*
X6127942Y18835515D01*
X5837046Y19126919D01*
X5456777Y19284820D01*
X5045029Y19285179D01*
X4664485Y19127942D01*
X4373081Y18837046D01*
X4215180Y18456777D01*
X4214831Y18056735D01*
X4148559Y18014090D01*
X4003569Y17801890D01*
X3952560Y17550000D01*
X3952560Y16850000D01*
X3996838Y16614683D01*
X4135910Y16398559D01*
X4348110Y16253569D01*
X4361197Y16250919D01*
X4148559Y16114090D01*
X4003569Y15901890D01*
X3952560Y15650000D01*
X3952560Y14950000D01*
X3996838Y14714683D01*
X4135910Y14498559D01*
X4325000Y14369359D01*
X4325000Y13365857D01*
X4291629Y13352068D01*
X3859449Y12920643D01*
X3625267Y12356670D01*
X3624735Y11746009D01*
X685000Y11746009D01*
X685000Y33556891D01*
X5304657Y33556891D01*
X5606218Y32827057D01*
X6164120Y32268181D01*
X6455000Y32147397D01*
X6455000Y31135748D01*
X6414683Y31128162D01*
X6198559Y30989090D01*
X6053569Y30776890D01*
X6002560Y30525000D01*
X6002560Y29275000D01*
X6046838Y29039683D01*
X6185910Y28823559D01*
X6315000Y28735356D01*
X6315000Y28724669D01*
X6298559Y28714090D01*
X6153569Y28501890D01*
X6102560Y28250000D01*
X6102560Y26950000D01*
X6146838Y26714683D01*
X6285910Y26498559D01*
X6498110Y26353569D01*
X6750000Y26302560D01*
X7450000Y26302560D01*
X7685317Y26346838D01*
X7901441Y26485910D01*
X8046431Y26698110D01*
X8053191Y26731490D01*
X8111673Y26590301D01*
X8290302Y26411673D01*
X8523691Y26315000D01*
X8668250Y26315000D01*
X8827000Y26473750D01*
X8827000Y27427000D01*
X9173000Y27427000D01*
X9173000Y26473750D01*
X9331750Y26315000D01*
X9476309Y26315000D01*
X9709698Y26411673D01*
X9888327Y26590301D01*
X9985000Y26823690D01*
X9985000Y27268250D01*
X9826250Y27427000D01*
X9173000Y27427000D01*
X8827000Y27427000D01*
X8807000Y27427000D01*
X8807000Y27773000D01*
X8827000Y27773000D01*
X8827000Y28648750D01*
X8904500Y28726250D01*
X9173000Y28726250D01*
X9173000Y27773000D01*
X9826250Y27773000D01*
X9985000Y27931750D01*
X9985000Y28376310D01*
X9888327Y28609699D01*
X9834091Y28663934D01*
X10009698Y28736673D01*
X10188327Y28915301D01*
X10285000Y29148690D01*
X10285000Y29568250D01*
X10126250Y29727000D01*
X9323000Y29727000D01*
X9323000Y28876250D01*
X9173000Y28726250D01*
X8904500Y28726250D01*
X8977000Y28798750D01*
X8977000Y29727000D01*
X8957000Y29727000D01*
X8957000Y30073000D01*
X8977000Y30073000D01*
X8977000Y31001250D01*
X9323000Y31001250D01*
X9323000Y30073000D01*
X10126250Y30073000D01*
X10285000Y30231750D01*
X10285000Y30651310D01*
X10188327Y30884699D01*
X10009698Y31063327D01*
X9776309Y31160000D01*
X9481750Y31160000D01*
X9323000Y31001250D01*
X8977000Y31001250D01*
X8818250Y31160000D01*
X8523691Y31160000D01*
X8290302Y31063327D01*
X8149064Y30922090D01*
X8125000Y30959486D01*
X8125000Y32147242D01*
X8412943Y32266218D01*
X8565240Y32418250D01*
X16115000Y32418250D01*
X16115000Y31998690D01*
X16211673Y31765301D01*
X16390302Y31586673D01*
X16623691Y31490000D01*
X16918250Y31490000D01*
X17077000Y31648750D01*
X17077000Y32577000D01*
X16273750Y32577000D01*
X16115000Y32418250D01*
X8565240Y32418250D01*
X8971819Y32824120D01*
X9274654Y33553427D01*
X9275343Y34343109D01*
X8973782Y35072943D01*
X8415880Y35631819D01*
X7686573Y35934654D01*
X6896891Y35935343D01*
X6167057Y35633782D01*
X5608181Y35075880D01*
X5305346Y34346573D01*
X5304657Y33556891D01*
X685000Y33556891D01*
X685000Y37692598D01*
X9237257Y37692598D01*
X9310142Y37456167D01*
X9838649Y37286851D01*
X10391719Y37332674D01*
X10689858Y37456167D01*
X10762743Y37692598D01*
X10000000Y38455341D01*
X9237257Y37692598D01*
X685000Y37692598D01*
X685000Y38861351D01*
X8586851Y38861351D01*
X8632674Y38308281D01*
X8756167Y38010142D01*
X8992598Y37937257D01*
X9755341Y38700000D01*
X8992598Y39462743D01*
X8756167Y39389858D01*
X8586851Y38861351D01*
X685000Y38861351D01*
X685000Y40923735D01*
X8604758Y40923735D01*
X8816687Y40410828D01*
X9208764Y40018066D01*
X9348887Y39959882D01*
X9310142Y39943833D01*
X9237257Y39707402D01*
X10000000Y38944659D01*
X10762743Y39707402D01*
X10689858Y39943833D01*
X10646483Y39957729D01*
X10789172Y40016687D01*
X11000024Y40227171D01*
X11208764Y40018066D01*
X11372454Y39950096D01*
X11210828Y39883313D01*
X10818066Y39491236D01*
X10663387Y39118728D01*
X10244659Y38700000D01*
X10663788Y38280871D01*
X10816687Y37910828D01*
X11208764Y37518066D01*
X11721300Y37305242D01*
X12276265Y37304758D01*
X12789172Y37516687D01*
X13037919Y37765000D01*
X15162710Y37765000D01*
X15838855Y37088855D01*
X16142191Y36886173D01*
X16361019Y36842645D01*
X16365000Y36836458D01*
X16365000Y36381844D01*
X16298559Y36339090D01*
X16153569Y36126890D01*
X16102560Y35875000D01*
X16102560Y34625000D01*
X16146838Y34389683D01*
X16285910Y34173559D01*
X16498110Y34028569D01*
X16612565Y34005391D01*
X16390302Y33913327D01*
X16211673Y33734699D01*
X16115000Y33501310D01*
X16115000Y33081750D01*
X16273750Y32923000D01*
X17077000Y32923000D01*
X17077000Y32943000D01*
X17423000Y32943000D01*
X17423000Y32923000D01*
X17443000Y32923000D01*
X17443000Y32577000D01*
X17423000Y32577000D01*
X17423000Y31648750D01*
X17581750Y31490000D01*
X17876309Y31490000D01*
X18109698Y31586673D01*
X18250936Y31727910D01*
X18285910Y31673559D01*
X18498110Y31528569D01*
X18750000Y31477560D01*
X19750000Y31477560D01*
X19985317Y31521838D01*
X20201441Y31660910D01*
X20346431Y31873110D01*
X20375335Y32015841D01*
X20590434Y32159566D01*
X21090434Y32659566D01*
X21271440Y32930460D01*
X21335000Y33250000D01*
X21335000Y37634134D01*
X21977287Y38276421D01*
X22299515Y37953629D01*
X22753266Y37765215D01*
X23084058Y37764926D01*
X22159566Y36840434D01*
X21978561Y36569541D01*
X21915000Y36250000D01*
X21915000Y31845868D01*
X13900609Y23831477D01*
X13719604Y23560584D01*
X13656043Y23241043D01*
X13656043Y10875907D01*
X13614124Y10834061D01*
X13456223Y10453792D01*
X13455864Y10042044D01*
X13613101Y9661500D01*
X13903997Y9370096D01*
X14284266Y9212195D01*
X14696014Y9211836D01*
X14999392Y9337189D01*
X15293223Y9215180D01*
X15704971Y9214821D01*
X16085515Y9372058D01*
X16376919Y9662954D01*
X16534820Y10043223D01*
X16535179Y10454971D01*
X16377942Y10835515D01*
X16087046Y11126919D01*
X16085000Y11127769D01*
X16085000Y17668250D01*
X16365000Y17668250D01*
X16365000Y17248690D01*
X16461673Y17015301D01*
X16640302Y16836673D01*
X16873691Y16740000D01*
X17168250Y16740000D01*
X17327000Y16898750D01*
X17327000Y17827000D01*
X16523750Y17827000D01*
X16365000Y17668250D01*
X16085000Y17668250D01*
X16085000Y18751310D01*
X16365000Y18751310D01*
X16365000Y18331750D01*
X16523750Y18173000D01*
X17327000Y18173000D01*
X17327000Y19101250D01*
X17168250Y19260000D01*
X16873691Y19260000D01*
X16640302Y19163327D01*
X16461673Y18984699D01*
X16365000Y18751310D01*
X16085000Y18751310D01*
X16085000Y19365000D01*
X16793250Y19365000D01*
X16952000Y19523750D01*
X16952000Y20577000D01*
X16932000Y20577000D01*
X16932000Y20923000D01*
X16952000Y20923000D01*
X16952000Y21976250D01*
X16793250Y22135000D01*
X16085000Y22135000D01*
X16085000Y22654132D01*
X18940000Y25509132D01*
X18940000Y22147440D01*
X18900000Y22147440D01*
X18664683Y22103162D01*
X18500507Y21997518D01*
X18459698Y22038327D01*
X18226309Y22135000D01*
X17456750Y22135000D01*
X17298000Y21976250D01*
X17298000Y20923000D01*
X17318000Y20923000D01*
X17318000Y20577000D01*
X17298000Y20577000D01*
X17298000Y19523750D01*
X17456750Y19365000D01*
X18226309Y19365000D01*
X18459698Y19461673D01*
X18501660Y19503634D01*
X18648110Y19403569D01*
X18649814Y19403224D01*
X18636173Y19382809D01*
X18582033Y19110630D01*
X18548559Y19089090D01*
X18502031Y19020994D01*
X18359698Y19163327D01*
X18126309Y19260000D01*
X17831750Y19260000D01*
X17673000Y19101250D01*
X17673000Y18173000D01*
X17693000Y18173000D01*
X17693000Y17827000D01*
X17673000Y17827000D01*
X17673000Y16898750D01*
X17831750Y16740000D01*
X18126309Y16740000D01*
X18359698Y16836673D01*
X18500936Y16977910D01*
X18535910Y16923559D01*
X18565000Y16903683D01*
X18565000Y8061662D01*
X18453629Y7950485D01*
X18265215Y7496734D01*
X18264786Y7005421D01*
X18452408Y6551343D01*
X18799515Y6203629D01*
X19253266Y6015215D01*
X19744579Y6014786D01*
X20198657Y6202408D01*
X20546371Y6549515D01*
X20734785Y7003266D01*
X20735214Y7494579D01*
X20547592Y7948657D01*
X20435000Y8061446D01*
X20435000Y8215056D01*
X20477216Y8215020D01*
X20622058Y7864475D01*
X20912954Y7573071D01*
X21293223Y7415170D01*
X21704971Y7414811D01*
X22085515Y7572048D01*
X22376919Y7862944D01*
X22534820Y8243213D01*
X22534856Y8284276D01*
X22835000Y7984132D01*
X22835000Y6222841D01*
X22619946Y6079147D01*
X22298039Y5597378D01*
X22185000Y5029093D01*
X22185000Y4970907D01*
X22298039Y4402622D01*
X22619946Y3920853D01*
X23101715Y3598946D01*
X23670000Y3485907D01*
X24238285Y3598946D01*
X24720054Y3920853D01*
X24940000Y4250026D01*
X25159946Y3920853D01*
X25641715Y3598946D01*
X26210000Y3485907D01*
X26778285Y3598946D01*
X27260054Y3920853D01*
X27489865Y4264790D01*
X27582832Y4081859D01*
X28023035Y3705092D01*
X28348407Y3570333D01*
X28577000Y3685082D01*
X28577000Y4827000D01*
X28557000Y4827000D01*
X28557000Y5173000D01*
X28577000Y5173000D01*
X28577000Y6314918D01*
X28348407Y6429667D01*
X28023035Y6294908D01*
X27582832Y5918141D01*
X27489865Y5735210D01*
X27260054Y6079147D01*
X27045000Y6222841D01*
X27045000Y7040000D01*
X26981439Y7359541D01*
X26800434Y7630434D01*
X25762618Y8668250D01*
X28115000Y8668250D01*
X28115000Y8248690D01*
X28211673Y8015301D01*
X28390302Y7836673D01*
X28623691Y7740000D01*
X28918250Y7740000D01*
X29077000Y7898750D01*
X29077000Y8827000D01*
X28273750Y8827000D01*
X28115000Y8668250D01*
X25762618Y8668250D01*
X24679558Y9751310D01*
X28115000Y9751310D01*
X28115000Y9331750D01*
X28273750Y9173000D01*
X29077000Y9173000D01*
X29077000Y10101250D01*
X28918250Y10260000D01*
X28623691Y10260000D01*
X28390302Y10163327D01*
X28211673Y9984699D01*
X28115000Y9751310D01*
X24679558Y9751310D01*
X24085000Y10345868D01*
X24085000Y11654132D01*
X24333429Y11902560D01*
X26025000Y11902560D01*
X26260317Y11946838D01*
X26476441Y12085910D01*
X26621431Y12298110D01*
X26672440Y12550000D01*
X26672440Y13000000D01*
X26652933Y13103671D01*
X26672440Y13200000D01*
X26672440Y13650000D01*
X26652933Y13753671D01*
X26672440Y13850000D01*
X26672440Y14300000D01*
X26652933Y14403671D01*
X26672440Y14500000D01*
X26672440Y14950000D01*
X26652933Y15053671D01*
X26672440Y15150000D01*
X26672440Y15600000D01*
X26652933Y15703671D01*
X26672440Y15800000D01*
X26672440Y16250000D01*
X26652933Y16353671D01*
X26672440Y16450000D01*
X26672440Y16900000D01*
X26652933Y17003671D01*
X26672440Y17100000D01*
X26672440Y17550000D01*
X26652933Y17653671D01*
X26672440Y17750000D01*
X26672440Y18200000D01*
X26659020Y18271323D01*
X26660000Y18273690D01*
X26660000Y18353750D01*
X26639688Y18374062D01*
X26628162Y18435317D01*
X26504671Y18627227D01*
X26621431Y18798110D01*
X26636558Y18872808D01*
X26660000Y18896250D01*
X26660000Y18976310D01*
X26658333Y18980335D01*
X26672440Y19050000D01*
X26672440Y19500000D01*
X26652933Y19603671D01*
X26672440Y19700000D01*
X26672440Y20150000D01*
X26652933Y20253671D01*
X26672440Y20350000D01*
X26672440Y20800000D01*
X26652933Y20903671D01*
X26672440Y21000000D01*
X26672440Y21450000D01*
X26628162Y21685317D01*
X26489090Y21901441D01*
X26276890Y22046431D01*
X26025000Y22097440D01*
X24583429Y22097440D01*
X24335000Y22345868D01*
X24335000Y23904132D01*
X26595868Y26165000D01*
X34250000Y26165000D01*
X34569541Y26228561D01*
X34840434Y26409566D01*
X35415000Y26984132D01*
X35415000Y26325681D01*
X35204343Y26325865D01*
X34823799Y26168628D01*
X34532395Y25877732D01*
X34374494Y25497463D01*
X34374416Y25407497D01*
X32840704Y23770952D01*
X32761655Y23643915D01*
X32678531Y23519511D01*
X32675846Y23506014D01*
X32668577Y23494332D01*
X32644161Y23346722D01*
X32614970Y23199970D01*
X32614970Y22097440D01*
X31475000Y22097440D01*
X31239683Y22053162D01*
X31023559Y21914090D01*
X30878569Y21701890D01*
X30827560Y21450000D01*
X30827560Y21000000D01*
X30847067Y20896329D01*
X30827560Y20800000D01*
X30827560Y20350000D01*
X30847067Y20246329D01*
X30827560Y20150000D01*
X30827560Y19700000D01*
X30847067Y19596329D01*
X30827560Y19500000D01*
X30827560Y19050000D01*
X30847067Y18946329D01*
X30827560Y18850000D01*
X30827560Y18400000D01*
X30847067Y18296329D01*
X30827560Y18200000D01*
X30827560Y17750000D01*
X30840980Y17678677D01*
X30840000Y17676310D01*
X30840000Y17596250D01*
X30860312Y17575938D01*
X30871838Y17514683D01*
X30995329Y17322773D01*
X30878569Y17151890D01*
X30863442Y17077192D01*
X30840000Y17053750D01*
X30840000Y16973690D01*
X30841667Y16969665D01*
X30827560Y16900000D01*
X30827560Y16450000D01*
X30847067Y16346329D01*
X30827560Y16250000D01*
X30827560Y15800000D01*
X30847067Y15696329D01*
X30827560Y15600000D01*
X30827560Y15150000D01*
X30847067Y15046329D01*
X30827560Y14950000D01*
X30827560Y14500000D01*
X30847067Y14396329D01*
X30827560Y14300000D01*
X30827560Y13850000D01*
X30847067Y13746329D01*
X30827560Y13650000D01*
X30827560Y13200000D01*
X30847067Y13096329D01*
X30827560Y13000000D01*
X30827560Y12550000D01*
X30871838Y12314683D01*
X31010910Y12098559D01*
X31223110Y11953569D01*
X31475000Y11902560D01*
X32995000Y11902560D01*
X32995000Y6497440D01*
X32980000Y6497440D01*
X32744683Y6453162D01*
X32528559Y6314090D01*
X32383569Y6101890D01*
X32369914Y6034459D01*
X32340054Y6079147D01*
X32185000Y6182751D01*
X32185000Y7900331D01*
X32201441Y7910910D01*
X32346431Y8123110D01*
X32397440Y8375000D01*
X32397440Y9625000D01*
X32353162Y9860317D01*
X32214090Y10076441D01*
X32001890Y10221431D01*
X31750000Y10272440D01*
X30750000Y10272440D01*
X30514683Y10228162D01*
X30298559Y10089090D01*
X30252031Y10020994D01*
X30109698Y10163327D01*
X29876309Y10260000D01*
X29581750Y10260000D01*
X29423000Y10101250D01*
X29423000Y9173000D01*
X29443000Y9173000D01*
X29443000Y8827000D01*
X29423000Y8827000D01*
X29423000Y7898750D01*
X29581750Y7740000D01*
X29876309Y7740000D01*
X30109698Y7836673D01*
X30250936Y7977910D01*
X30285910Y7923559D01*
X30315000Y7903683D01*
X30315000Y6129296D01*
X30239946Y6079147D01*
X30010135Y5735210D01*
X29917168Y5918141D01*
X29476965Y6294908D01*
X29151593Y6429667D01*
X28923000Y6314918D01*
X28923000Y5173000D01*
X28943000Y5173000D01*
X28943000Y4827000D01*
X28923000Y4827000D01*
X28923000Y3685082D01*
X29151593Y3570333D01*
X29476965Y3705092D01*
X29917168Y4081859D01*
X30010135Y4264790D01*
X30239946Y3920853D01*
X30721715Y3598946D01*
X31290000Y3485907D01*
X31858285Y3598946D01*
X32340054Y3920853D01*
X32367850Y3962452D01*
X32376838Y3914683D01*
X32515910Y3698559D01*
X32728110Y3553569D01*
X32980000Y3502560D01*
X34680000Y3502560D01*
X34915317Y3546838D01*
X35131441Y3685910D01*
X35276431Y3898110D01*
X35327440Y4150000D01*
X35327440Y5850000D01*
X35283162Y6085317D01*
X35144090Y6301441D01*
X34931890Y6446431D01*
X34680000Y6497440D01*
X34665000Y6497440D01*
X34665000Y10665000D01*
X35337370Y10665000D01*
X35346838Y10614683D01*
X35485910Y10398559D01*
X35698110Y10253569D01*
X35950000Y10202560D01*
X36650000Y10202560D01*
X36885317Y10246838D01*
X37101441Y10385910D01*
X37246431Y10598110D01*
X37249081Y10611197D01*
X37365000Y10431054D01*
X37365000Y10153222D01*
X37364683Y10153162D01*
X37148559Y10014090D01*
X37003569Y9801890D01*
X36952560Y9550000D01*
X36952560Y8850000D01*
X36996838Y8614683D01*
X37135910Y8398559D01*
X37348110Y8253569D01*
X37361197Y8250919D01*
X37336458Y8235000D01*
X37261749Y8235000D01*
X37200485Y8296371D01*
X36746734Y8484785D01*
X36255421Y8485214D01*
X35801343Y8297592D01*
X35453629Y7950485D01*
X35265215Y7496734D01*
X35264786Y7005421D01*
X35452408Y6551343D01*
X35799515Y6203629D01*
X36253266Y6015215D01*
X36744579Y6014786D01*
X37198657Y6202408D01*
X37349750Y6353237D01*
X37600000Y6302560D01*
X38900000Y6302560D01*
X39135317Y6346838D01*
X39351441Y6485910D01*
X39490000Y6688698D01*
X39490000Y6623691D01*
X39586673Y6390302D01*
X39765301Y6211673D01*
X39998690Y6115000D01*
X40418250Y6115000D01*
X40577000Y6273750D01*
X40577000Y7077000D01*
X40923000Y7077000D01*
X40923000Y6273750D01*
X41081750Y6115000D01*
X41501310Y6115000D01*
X41734699Y6211673D01*
X41913327Y6390302D01*
X42010000Y6623691D01*
X42010000Y6918250D01*
X41851250Y7077000D01*
X40923000Y7077000D01*
X40577000Y7077000D01*
X40557000Y7077000D01*
X40557000Y7423000D01*
X40577000Y7423000D01*
X40577000Y7443000D01*
X40923000Y7443000D01*
X40923000Y7423000D01*
X41851250Y7423000D01*
X42010000Y7581750D01*
X42010000Y7876309D01*
X41913327Y8109698D01*
X41772090Y8250936D01*
X41826441Y8285910D01*
X41971431Y8498110D01*
X42022440Y8750000D01*
X42022440Y9750000D01*
X41978162Y9985317D01*
X41839090Y10201441D01*
X41626890Y10346431D01*
X41375000Y10397440D01*
X40125000Y10397440D01*
X39889683Y10353162D01*
X39673559Y10214090D01*
X39551192Y10035000D01*
X39314975Y10035000D01*
X39151890Y10146431D01*
X39035000Y10170102D01*
X39035000Y10435025D01*
X39146431Y10598110D01*
X39197440Y10850000D01*
X39197440Y12150000D01*
X39153162Y12385317D01*
X39014090Y12601441D01*
X38812341Y12739290D01*
X38985317Y12771838D01*
X39201441Y12910910D01*
X39346431Y13123110D01*
X39397440Y13375000D01*
X39397440Y14625000D01*
X39353162Y14860317D01*
X39214090Y15076441D01*
X39063510Y15179328D01*
X39151441Y15235910D01*
X39296431Y15448110D01*
X39347440Y15700000D01*
X39347440Y17100000D01*
X39303162Y17335317D01*
X39197518Y17499493D01*
X39238327Y17540302D01*
X39335000Y17773691D01*
X39335000Y18268250D01*
X39176250Y18427000D01*
X38273000Y18427000D01*
X38273000Y18407000D01*
X37927000Y18407000D01*
X37927000Y18427000D01*
X37907000Y18427000D01*
X37907000Y18773000D01*
X37927000Y18773000D01*
X37927000Y19748750D01*
X37954500Y19776250D01*
X38273000Y19776250D01*
X38273000Y18773000D01*
X39176250Y18773000D01*
X39335000Y18931750D01*
X39335000Y19426309D01*
X39238327Y19659698D01*
X39075513Y19822513D01*
X39109698Y19836673D01*
X39288327Y20015301D01*
X39385000Y20248690D01*
X39385000Y20668250D01*
X39226250Y20827000D01*
X38423000Y20827000D01*
X38423000Y19926250D01*
X38273000Y19776250D01*
X37954500Y19776250D01*
X38077000Y19898750D01*
X38077000Y20827000D01*
X38057000Y20827000D01*
X38057000Y21173000D01*
X38077000Y21173000D01*
X38077000Y22101250D01*
X38423000Y22101250D01*
X38423000Y21173000D01*
X39226250Y21173000D01*
X39385000Y21331750D01*
X39385000Y21751310D01*
X39288327Y21984699D01*
X39109698Y22163327D01*
X38876309Y22260000D01*
X38581750Y22260000D01*
X38423000Y22101250D01*
X38077000Y22101250D01*
X37918250Y22260000D01*
X37623691Y22260000D01*
X37390302Y22163327D01*
X37249064Y22022090D01*
X37214090Y22076441D01*
X37001890Y22221431D01*
X36750000Y22272440D01*
X36703308Y22272440D01*
X38340430Y23909562D01*
X38451669Y24076043D01*
X38521435Y24180455D01*
X38584996Y24499996D01*
X38584996Y24532618D01*
X38703640Y24413767D01*
X39083909Y24255866D01*
X39495657Y24255507D01*
X39876201Y24412744D01*
X40167605Y24703640D01*
X40325506Y25083909D01*
X40325559Y25144691D01*
X41464978Y26284110D01*
X41464978Y18395846D01*
X40604259Y17535127D01*
X40545029Y17535179D01*
X40164485Y17377942D01*
X39873081Y17087046D01*
X39715180Y16706777D01*
X39714821Y16295029D01*
X39872058Y15914485D01*
X39998741Y15787581D01*
X39965188Y15706777D01*
X39964829Y15295029D01*
X40122066Y14914485D01*
X40248740Y14787590D01*
X40215184Y14706777D01*
X40214825Y14295029D01*
X40372062Y13914485D01*
X40662958Y13623081D01*
X41043227Y13465180D01*
X41454975Y13464821D01*
X41835519Y13622058D01*
X42126923Y13912954D01*
X42284824Y14293223D01*
X42284877Y14354005D01*
X43799622Y15868750D01*
X49890000Y15868750D01*
X49890000Y15738690D01*
X49986673Y15505301D01*
X50165302Y15326673D01*
X50398691Y15230000D01*
X51368250Y15230000D01*
X51527000Y15388750D01*
X51527000Y16027500D01*
X51873000Y16027500D01*
X51873000Y15388750D01*
X52031750Y15230000D01*
X53001309Y15230000D01*
X53234698Y15326673D01*
X53413327Y15505301D01*
X53510000Y15738690D01*
X53510000Y15868750D01*
X53351250Y16027500D01*
X51873000Y16027500D01*
X51527000Y16027500D01*
X50048750Y16027500D01*
X49890000Y15868750D01*
X43799622Y15868750D01*
X44090434Y16159562D01*
X44119164Y16202560D01*
X44271439Y16430455D01*
X44313380Y16641310D01*
X49890000Y16641310D01*
X49890000Y16511250D01*
X50048750Y16352500D01*
X51527000Y16352500D01*
X51527000Y16991250D01*
X51873000Y16991250D01*
X51873000Y16352500D01*
X53351250Y16352500D01*
X53510000Y16511250D01*
X53510000Y16641310D01*
X53413327Y16874699D01*
X53234698Y17053327D01*
X53001309Y17150000D01*
X52031750Y17150000D01*
X51873000Y16991250D01*
X51527000Y16991250D01*
X51368250Y17150000D01*
X50398691Y17150000D01*
X50165302Y17053327D01*
X49986673Y16874699D01*
X49890000Y16641310D01*
X44313380Y16641310D01*
X44335000Y16749996D01*
X44335000Y18545029D01*
X47464821Y18545029D01*
X47622058Y18164485D01*
X47912954Y17873081D01*
X48293223Y17715180D01*
X48704971Y17714821D01*
X49085515Y17872058D01*
X49128532Y17915000D01*
X50117343Y17915000D01*
X50273110Y17808569D01*
X50525000Y17757560D01*
X52875000Y17757560D01*
X53110317Y17801838D01*
X53326441Y17940910D01*
X53471431Y18153110D01*
X53522440Y18405000D01*
X53522440Y19055000D01*
X53478162Y19290317D01*
X53339090Y19506441D01*
X53126890Y19651431D01*
X52875000Y19702440D01*
X50525000Y19702440D01*
X50289683Y19658162D01*
X50175986Y19585000D01*
X49128892Y19585000D01*
X49087046Y19626919D01*
X48706777Y19784820D01*
X48295029Y19785179D01*
X47914485Y19627942D01*
X47623081Y19337046D01*
X47465180Y18956777D01*
X47464821Y18545029D01*
X44335000Y18545029D01*
X44335000Y21045029D01*
X47464821Y21045029D01*
X47622058Y20664485D01*
X47912954Y20373081D01*
X48293223Y20215180D01*
X48704971Y20214821D01*
X49085515Y20372058D01*
X49128532Y20415000D01*
X50175885Y20415000D01*
X50273110Y20348569D01*
X50525000Y20297560D01*
X52875000Y20297560D01*
X53110317Y20341838D01*
X53326441Y20480910D01*
X53471431Y20693110D01*
X53522440Y20945000D01*
X53522440Y21595000D01*
X53478162Y21830317D01*
X53339090Y22046441D01*
X53126890Y22191431D01*
X52875000Y22242440D01*
X50525000Y22242440D01*
X50289683Y22198162D01*
X50113824Y22085000D01*
X49128892Y22085000D01*
X49087046Y22126919D01*
X48706777Y22284820D01*
X48295029Y22285179D01*
X47914485Y22127942D01*
X47623081Y21837046D01*
X47465180Y21456777D01*
X47464821Y21045029D01*
X44335000Y21045029D01*
X44335000Y23418250D01*
X45115000Y23418250D01*
X45115000Y22998690D01*
X45211673Y22765301D01*
X45390302Y22586673D01*
X45623691Y22490000D01*
X45918250Y22490000D01*
X46077000Y22648750D01*
X46077000Y23577000D01*
X45273750Y23577000D01*
X45115000Y23418250D01*
X44335000Y23418250D01*
X44335000Y24501310D01*
X45115000Y24501310D01*
X45115000Y24081750D01*
X45273750Y23923000D01*
X46077000Y23923000D01*
X46077000Y24851250D01*
X45918250Y25010000D01*
X45623691Y25010000D01*
X45390302Y24913327D01*
X45211673Y24734699D01*
X45115000Y24501310D01*
X44335000Y24501310D01*
X44335000Y25516975D01*
X44390302Y25461673D01*
X44623691Y25365000D01*
X45393250Y25365000D01*
X45552000Y25523750D01*
X45552000Y27077000D01*
X45532000Y27077000D01*
X45532000Y27423000D01*
X45552000Y27423000D01*
X45552000Y28976250D01*
X45393250Y29135000D01*
X44623691Y29135000D01*
X44390302Y29038327D01*
X44335000Y28983025D01*
X44335000Y32896310D01*
X51475000Y32896310D01*
X51475000Y31831750D01*
X51633750Y31673000D01*
X52287000Y31673000D01*
X52287000Y33246250D01*
X52633000Y33246250D01*
X52633000Y31673000D01*
X53286250Y31673000D01*
X53445000Y31831750D01*
X53445000Y32896310D01*
X53348327Y33129699D01*
X53169698Y33308327D01*
X52936309Y33405000D01*
X52791750Y33405000D01*
X52633000Y33246250D01*
X52287000Y33246250D01*
X52128250Y33405000D01*
X51983691Y33405000D01*
X51750302Y33308327D01*
X51571673Y33129699D01*
X51475000Y32896310D01*
X44335000Y32896310D01*
X44335000Y39750000D01*
X44271439Y40069541D01*
X44090434Y40340434D01*
X41460868Y42970000D01*
X51462560Y42970000D01*
X51462560Y40430000D01*
X51506838Y40194683D01*
X51645910Y39978559D01*
X51858110Y39833569D01*
X52110000Y39782560D01*
X52810000Y39782560D01*
X53045317Y39826838D01*
X53261441Y39965910D01*
X53406431Y40178110D01*
X53457440Y40430000D01*
X53457440Y42970000D01*
X53413162Y43205317D01*
X53274090Y43421441D01*
X53061890Y43566431D01*
X52810000Y43617440D01*
X52110000Y43617440D01*
X51874683Y43573162D01*
X51658559Y43434090D01*
X51513569Y43221890D01*
X51462560Y42970000D01*
X41460868Y42970000D01*
X40490423Y43940445D01*
X40404121Y43998110D01*
X40219530Y44121450D01*
X39899989Y44185011D01*
X35250011Y44185011D01*
X34930471Y44121451D01*
X34659577Y43940445D01*
X33301151Y42582019D01*
X33225000Y42597440D01*
X31475000Y42597440D01*
X31239683Y42553162D01*
X31023559Y42414090D01*
X30878569Y42201890D01*
X30827560Y41950000D01*
X30827560Y41500000D01*
X30847067Y41396329D01*
X30827560Y41300000D01*
X30827560Y40850000D01*
X30847067Y40746329D01*
X30827560Y40650000D01*
X30827560Y40200000D01*
X30847067Y40096329D01*
X30827560Y40000000D01*
X30827560Y39550000D01*
X30847067Y39446329D01*
X30827560Y39350000D01*
X30827560Y38900000D01*
X30847067Y38796329D01*
X30827560Y38700000D01*
X30827560Y38250000D01*
X30847067Y38146329D01*
X30827560Y38050000D01*
X30827560Y37600000D01*
X30840980Y37528677D01*
X30840000Y37526310D01*
X30840000Y37446250D01*
X30860312Y37425938D01*
X30871838Y37364683D01*
X30995329Y37172773D01*
X30878569Y37001890D01*
X30863442Y36927192D01*
X30840000Y36903750D01*
X30840000Y36823690D01*
X30841667Y36819665D01*
X30827560Y36750000D01*
X30827560Y36300000D01*
X30847067Y36196329D01*
X30827560Y36100000D01*
X30827560Y35650000D01*
X30847067Y35546329D01*
X30827560Y35450000D01*
X30827560Y35000000D01*
X30847067Y34896329D01*
X30827560Y34800000D01*
X30827560Y34350000D01*
X30847067Y34246329D01*
X30827560Y34150000D01*
X30827560Y33700000D01*
X30847067Y33596329D01*
X30827560Y33500000D01*
X30827560Y33050000D01*
X30871838Y32814683D01*
X31010910Y32598559D01*
X31223110Y32453569D01*
X31475000Y32402560D01*
X32916572Y32402560D01*
X33831713Y31487419D01*
X33715180Y31206777D01*
X33714856Y30835000D01*
X26151457Y30835000D01*
X25831916Y30771439D01*
X25620887Y30630434D01*
X25561023Y30590434D01*
X24156257Y29185668D01*
X24047592Y29448657D01*
X23700485Y29796371D01*
X23366091Y29935223D01*
X23940445Y30509577D01*
X23994472Y30590434D01*
X24121450Y30780470D01*
X24185011Y31100011D01*
X24185011Y32420783D01*
X24275000Y32402560D01*
X26025000Y32402560D01*
X26260317Y32446838D01*
X26476441Y32585910D01*
X26621431Y32798110D01*
X26672440Y33050000D01*
X26672440Y33500000D01*
X26652933Y33603671D01*
X26672440Y33700000D01*
X26672440Y34150000D01*
X26652933Y34253671D01*
X26672440Y34350000D01*
X26672440Y34800000D01*
X26659020Y34871323D01*
X26660000Y34873690D01*
X26660000Y34953750D01*
X26639688Y34974062D01*
X26628162Y35035317D01*
X26504671Y35227227D01*
X26621431Y35398110D01*
X26636558Y35472808D01*
X26660000Y35496250D01*
X26660000Y35576310D01*
X26658333Y35580335D01*
X26672440Y35650000D01*
X26672440Y36100000D01*
X26652933Y36203671D01*
X26672440Y36300000D01*
X26672440Y36750000D01*
X26652933Y36853671D01*
X26672440Y36950000D01*
X26672440Y37400000D01*
X26659020Y37471323D01*
X26660000Y37473690D01*
X26660000Y37553750D01*
X26639688Y37574062D01*
X26628162Y37635317D01*
X26504671Y37827227D01*
X26621431Y37998110D01*
X26636558Y38072808D01*
X26660000Y38096250D01*
X26660000Y38176310D01*
X26658333Y38180335D01*
X26672440Y38250000D01*
X26672440Y38700000D01*
X26652933Y38803671D01*
X26672440Y38900000D01*
X26672440Y39350000D01*
X26659020Y39421323D01*
X26660000Y39423690D01*
X26660000Y39503750D01*
X26639688Y39524062D01*
X26628162Y39585317D01*
X26504671Y39777227D01*
X26621431Y39948110D01*
X26636558Y40022808D01*
X26660000Y40046250D01*
X26660000Y40126310D01*
X26658333Y40130335D01*
X26672440Y40200000D01*
X26672440Y40650000D01*
X26652933Y40753671D01*
X26672440Y40850000D01*
X26672440Y41300000D01*
X26652933Y41403671D01*
X26672440Y41500000D01*
X26672440Y41950000D01*
X26628162Y42185317D01*
X26489090Y42401441D01*
X26276890Y42546431D01*
X26025000Y42597440D01*
X24275000Y42597440D01*
X24076024Y42560000D01*
X23120868Y42560000D01*
X22340434Y43340434D01*
X22326101Y43350011D01*
X22069541Y43521439D01*
X21750000Y43585000D01*
X20830000Y43585000D01*
X20510459Y43521439D01*
X20253899Y43350011D01*
X20239566Y43340434D01*
X20039311Y43140179D01*
X19975409Y43153119D01*
X20161145Y43338855D01*
X20337346Y43602560D01*
X20600000Y43602560D01*
X20835317Y43646838D01*
X21051441Y43785910D01*
X21196431Y43998110D01*
X21247440Y44250000D01*
X21247440Y45750000D01*
X21203162Y45985317D01*
X21064090Y46201441D01*
X20851890Y46346431D01*
X20600000Y46397440D01*
X18650000Y46397440D01*
X18414683Y46353162D01*
X18250507Y46247518D01*
X18209698Y46288327D01*
X17976309Y46385000D01*
X17206750Y46385000D01*
X17048000Y46226250D01*
X17048000Y45173000D01*
X17068000Y45173000D01*
X17068000Y44827000D01*
X17048000Y44827000D01*
X17048000Y43773750D01*
X17206750Y43615000D01*
X17792710Y43615000D01*
X17588855Y43411145D01*
X17429358Y43172440D01*
X16620000Y43172440D01*
X16458766Y43142102D01*
X16260434Y43340434D01*
X16246101Y43350011D01*
X15989541Y43521439D01*
X15670000Y43585000D01*
X11550000Y43585000D01*
X11230459Y43521439D01*
X10973899Y43350011D01*
X10959566Y43340434D01*
X10213946Y42594814D01*
X9723735Y42595242D01*
X9210828Y42383313D01*
X8818066Y41991236D01*
X8605242Y41478700D01*
X8604758Y40923735D01*
X685000Y40923735D01*
X685000Y45556891D01*
X5304657Y45556891D01*
X5606218Y44827057D01*
X6164120Y44268181D01*
X6893427Y43965346D01*
X7683109Y43964657D01*
X8412943Y44266218D01*
X8815676Y44668250D01*
X15265000Y44668250D01*
X15265000Y44123690D01*
X15361673Y43890301D01*
X15540302Y43711673D01*
X15773691Y43615000D01*
X16543250Y43615000D01*
X16702000Y43773750D01*
X16702000Y44827000D01*
X15423750Y44827000D01*
X15265000Y44668250D01*
X8815676Y44668250D01*
X8971819Y44824120D01*
X9274654Y45553427D01*
X9274935Y45876310D01*
X15265000Y45876310D01*
X15265000Y45331750D01*
X15423750Y45173000D01*
X16702000Y45173000D01*
X16702000Y46226250D01*
X16543250Y46385000D01*
X15773691Y46385000D01*
X15540302Y46288327D01*
X15361673Y46109699D01*
X15265000Y45876310D01*
X9274935Y45876310D01*
X9275343Y46343109D01*
X8973782Y47072943D01*
X8415880Y47631819D01*
X7686573Y47934654D01*
X6896891Y47935343D01*
X6167057Y47633782D01*
X5608181Y47075880D01*
X5305346Y46346573D01*
X5304657Y45556891D01*
X685000Y45556891D01*
X685000Y53151756D01*
X2398312Y53151756D01*
X2029996Y52784082D01*
X2029996Y52784082D01*
G37*
X2029996Y52784082D02*
X1765301Y52146627D01*
X1764699Y51456401D01*
X2028281Y50818485D01*
X2515918Y50329996D01*
X3153373Y50065301D01*
X3843599Y50064699D01*
X4481515Y50328281D01*
X4877263Y50723339D01*
X9852758Y50723339D01*
X10064990Y50209697D01*
X10457630Y49816371D01*
X10970900Y49603243D01*
X11526661Y49602758D01*
X12040303Y49814990D01*
X12433629Y50207630D01*
X12646757Y50720900D01*
X12646856Y50835000D01*
X22007857Y50835000D01*
X22007857Y47015000D01*
X40992143Y47015000D01*
X40992143Y50835000D01*
X22007857Y50835000D01*
X12646856Y50835000D01*
X12647242Y51276661D01*
X12435010Y51790303D01*
X12042370Y52183629D01*
X11529100Y52396757D01*
X10973339Y52397242D01*
X10459697Y52185010D01*
X10066371Y51792370D01*
X9853243Y51279100D01*
X9852758Y50723339D01*
X4877263Y50723339D01*
X4970004Y50815918D01*
X5234699Y51453373D01*
X5235301Y52143599D01*
X4971719Y52781515D01*
X4602124Y53151756D01*
X53623000Y53151756D01*
X53623000Y29935000D01*
X53375126Y29935000D01*
X53445000Y30103690D01*
X53445000Y31168250D01*
X53286250Y31327000D01*
X52633000Y31327000D01*
X52633000Y31307000D01*
X52287000Y31307000D01*
X52287000Y31327000D01*
X51633750Y31327000D01*
X51475000Y31168250D01*
X51475000Y30103690D01*
X51571673Y29870301D01*
X51643854Y29798120D01*
X51438855Y29661145D01*
X50378479Y28600769D01*
X50353162Y28735317D01*
X50214090Y28951441D01*
X50001890Y29096431D01*
X49750000Y29147440D01*
X49685000Y29147440D01*
X49685000Y29438338D01*
X49796371Y29549515D01*
X49984785Y30003266D01*
X49985214Y30494579D01*
X49797592Y30948657D01*
X49450485Y31296371D01*
X48996734Y31484785D01*
X48505421Y31485214D01*
X48051343Y31297592D01*
X47703629Y30950485D01*
X47515215Y30496734D01*
X47514786Y30005421D01*
X47702408Y29551343D01*
X47815000Y29438554D01*
X47815000Y29147440D01*
X47800000Y29147440D01*
X47564683Y29103162D01*
X47348559Y28964090D01*
X47253010Y28824250D01*
X47238327Y28859699D01*
X47059698Y29038327D01*
X46826309Y29135000D01*
X46056750Y29135000D01*
X45898000Y28976250D01*
X45898000Y27423000D01*
X45918000Y27423000D01*
X45918000Y27077000D01*
X45898000Y27077000D01*
X45898000Y25523750D01*
X46056750Y25365000D01*
X46826309Y25365000D01*
X47059698Y25461673D01*
X47238327Y25640301D01*
X47253423Y25676747D01*
X47335910Y25548559D01*
X47469392Y25457355D01*
X47386173Y25332809D01*
X47315000Y24975000D01*
X47315000Y24849669D01*
X47298559Y24839090D01*
X47252031Y24770994D01*
X47109698Y24913327D01*
X46876309Y25010000D01*
X46581750Y25010000D01*
X46423000Y24851250D01*
X46423000Y23923000D01*
X46443000Y23923000D01*
X46443000Y23577000D01*
X46423000Y23577000D01*
X46423000Y22648750D01*
X46581750Y22490000D01*
X46876309Y22490000D01*
X47109698Y22586673D01*
X47250936Y22727910D01*
X47285910Y22673559D01*
X47498110Y22528569D01*
X47750000Y22477560D01*
X48750000Y22477560D01*
X48985317Y22521838D01*
X49201441Y22660910D01*
X49346431Y22873110D01*
X49346814Y22875000D01*
X50340116Y22875000D01*
X50525000Y22837560D01*
X52875000Y22837560D01*
X53110317Y22881838D01*
X53326441Y23020910D01*
X53471431Y23233110D01*
X53522440Y23485000D01*
X53522440Y24135000D01*
X53478162Y24370317D01*
X53339090Y24586441D01*
X53126890Y24731431D01*
X52875000Y24782440D01*
X50525000Y24782440D01*
X50326024Y24745000D01*
X49342290Y24745000D01*
X49411145Y24813855D01*
X49613827Y25117191D01*
X49660645Y25352560D01*
X49750000Y25352560D01*
X49985317Y25396838D01*
X50201441Y25535910D01*
X50346431Y25748110D01*
X50397440Y26000000D01*
X50397440Y26324436D01*
X50707809Y26386173D01*
X51011145Y26588855D01*
X51340540Y26918250D01*
X51865000Y26918250D01*
X51865000Y26498690D01*
X51961673Y26265301D01*
X52140302Y26086673D01*
X52373691Y25990000D01*
X52668250Y25990000D01*
X52827000Y26148750D01*
X52827000Y27077000D01*
X52023750Y27077000D01*
X51865000Y26918250D01*
X51340540Y26918250D01*
X51934520Y27512230D01*
X52023750Y27423000D01*
X52827000Y27423000D01*
X52827000Y27443000D01*
X53173000Y27443000D01*
X53173000Y27423000D01*
X53193000Y27423000D01*
X53193000Y27077000D01*
X53173000Y27077000D01*
X53173000Y26148750D01*
X53331750Y25990000D01*
X53623000Y25990000D01*
X53623000Y2155756D01*
X51492143Y2155756D01*
X51492143Y4835000D01*
X46007857Y4835000D01*
X46007857Y2155756D01*
X4609213Y2155756D01*
X4970004Y2515918D01*
X5234699Y3153373D01*
X5235196Y3723339D01*
X9102758Y3723339D01*
X9314990Y3209697D01*
X9707630Y2816371D01*
X10220900Y2603243D01*
X10776661Y2602758D01*
X11290303Y2814990D01*
X11683629Y3207630D01*
X11896757Y3720900D01*
X11897242Y4276661D01*
X11685010Y4790303D01*
X11292370Y5183629D01*
X10779100Y5396757D01*
X10223339Y5397242D01*
X9709697Y5185010D01*
X9316371Y4792370D01*
X9103243Y4279100D01*
X9102758Y3723339D01*
X5235196Y3723339D01*
X5235301Y3843599D01*
X4971719Y4481515D01*
X4484082Y4970004D01*
X3846627Y5234699D01*
X3156401Y5235301D01*
X2518485Y4971719D01*
X2029996Y4484082D01*
X1765301Y3846627D01*
X1764699Y3156401D01*
X2028281Y2518485D01*
X2390377Y2155756D01*
X685000Y2155756D01*
X685000Y8400803D01*
X4295462Y8400803D01*
X4385671Y8149903D01*
X4965100Y7957111D01*
X5574201Y8000733D01*
X5934329Y8149903D01*
X6024538Y8400803D01*
X6835462Y8400803D01*
X6925671Y8149903D01*
X7505100Y7957111D01*
X8114201Y8000733D01*
X8474329Y8149903D01*
X8564538Y8400803D01*
X7700000Y9265341D01*
X6835462Y8400803D01*
X6024538Y8400803D01*
X5160000Y9265341D01*
X4295462Y8400803D01*
X685000Y8400803D01*
X685000Y9704900D01*
X3607111Y9704900D01*
X3650733Y9095799D01*
X3799903Y8735671D01*
X4050803Y8645462D01*
X4915341Y9510000D01*
X4050803Y10374538D01*
X3799903Y10284329D01*
X3607111Y9704900D01*
X685000Y9704900D01*
X685000Y11746009D01*
X3624735Y11746009D01*
X3857932Y11181629D01*
X4289357Y10749449D01*
X4335417Y10730323D01*
X4295462Y10619197D01*
X5160000Y9754659D01*
X6024538Y10619197D01*
X5984735Y10729902D01*
X6028371Y10747932D01*
X6196613Y10915880D01*
X6196838Y10914683D01*
X6335910Y10698559D01*
X6539574Y10559402D01*
X6472755Y10492583D01*
X6590801Y10374537D01*
X6430000Y10316723D01*
X6269197Y10374538D01*
X5404659Y9510000D01*
X6269197Y8645462D01*
X6430000Y8703277D01*
X6590803Y8645462D01*
X7455341Y9510000D01*
X7441199Y9524142D01*
X7685858Y9768801D01*
X7700000Y9754659D01*
X7714142Y9768801D01*
X7958801Y9524142D01*
X7944659Y9510000D01*
X8809197Y8645462D01*
X9060097Y8735671D01*
X9252889Y9315100D01*
X9209267Y9924201D01*
X9060097Y10284329D01*
X8809199Y10374537D01*
X8927245Y10492583D01*
X8858240Y10561588D01*
X9051441Y10685910D01*
X9196431Y10898110D01*
X9247440Y11150000D01*
X9247440Y12950000D01*
X9203162Y13185317D01*
X9064090Y13401441D01*
X8851890Y13546431D01*
X8600000Y13597440D01*
X8535000Y13597440D01*
X8535000Y14327962D01*
X8635317Y14346838D01*
X8851441Y14485910D01*
X8996431Y14698110D01*
X9047440Y14950000D01*
X9047440Y15650000D01*
X9003162Y15885317D01*
X8864090Y16101441D01*
X8651890Y16246431D01*
X8638803Y16249081D01*
X8851441Y16385910D01*
X8996431Y16598110D01*
X9047440Y16850000D01*
X9047440Y17550000D01*
X9003162Y17785317D01*
X8864090Y18001441D01*
X8784831Y18055596D01*
X8785179Y18454971D01*
X8627942Y18835515D01*
X8337046Y19126919D01*
X7956777Y19284820D01*
X7545029Y19285179D01*
X7164485Y19127942D01*
X6873081Y18837046D01*
X6715180Y18456777D01*
X6714831Y18056735D01*
X6648559Y18014090D01*
X6503569Y17801890D01*
X6500919Y17788803D01*
X6364090Y18001441D01*
X6284831Y18055596D01*
X6285179Y18454971D01*
X6127942Y18835515D01*
X5837046Y19126919D01*
X5456777Y19284820D01*
X5045029Y19285179D01*
X4664485Y19127942D01*
X4373081Y18837046D01*
X4215180Y18456777D01*
X4214831Y18056735D01*
X4148559Y18014090D01*
X4003569Y17801890D01*
X3952560Y17550000D01*
X3952560Y16850000D01*
X3996838Y16614683D01*
X4135910Y16398559D01*
X4348110Y16253569D01*
X4361197Y16250919D01*
X4148559Y16114090D01*
X4003569Y15901890D01*
X3952560Y15650000D01*
X3952560Y14950000D01*
X3996838Y14714683D01*
X4135910Y14498559D01*
X4325000Y14369359D01*
X4325000Y13365857D01*
X4291629Y13352068D01*
X3859449Y12920643D01*
X3625267Y12356670D01*
X3624735Y11746009D01*
X685000Y11746009D01*
X685000Y33556891D01*
X5304657Y33556891D01*
X5606218Y32827057D01*
X6164120Y32268181D01*
X6455000Y32147397D01*
X6455000Y31135748D01*
X6414683Y31128162D01*
X6198559Y30989090D01*
X6053569Y30776890D01*
X6002560Y30525000D01*
X6002560Y29275000D01*
X6046838Y29039683D01*
X6185910Y28823559D01*
X6315000Y28735356D01*
X6315000Y28724669D01*
X6298559Y28714090D01*
X6153569Y28501890D01*
X6102560Y28250000D01*
X6102560Y26950000D01*
X6146838Y26714683D01*
X6285910Y26498559D01*
X6498110Y26353569D01*
X6750000Y26302560D01*
X7450000Y26302560D01*
X7685317Y26346838D01*
X7901441Y26485910D01*
X8046431Y26698110D01*
X8053191Y26731490D01*
X8111673Y26590301D01*
X8290302Y26411673D01*
X8523691Y26315000D01*
X8668250Y26315000D01*
X8827000Y26473750D01*
X8827000Y27427000D01*
X9173000Y27427000D01*
X9173000Y26473750D01*
X9331750Y26315000D01*
X9476309Y26315000D01*
X9709698Y26411673D01*
X9888327Y26590301D01*
X9985000Y26823690D01*
X9985000Y27268250D01*
X9826250Y27427000D01*
X9173000Y27427000D01*
X8827000Y27427000D01*
X8807000Y27427000D01*
X8807000Y27773000D01*
X8827000Y27773000D01*
X8827000Y28648750D01*
X8904500Y28726250D01*
X9173000Y28726250D01*
X9173000Y27773000D01*
X9826250Y27773000D01*
X9985000Y27931750D01*
X9985000Y28376310D01*
X9888327Y28609699D01*
X9834091Y28663934D01*
X10009698Y28736673D01*
X10188327Y28915301D01*
X10285000Y29148690D01*
X10285000Y29568250D01*
X10126250Y29727000D01*
X9323000Y29727000D01*
X9323000Y28876250D01*
X9173000Y28726250D01*
X8904500Y28726250D01*
X8977000Y28798750D01*
X8977000Y29727000D01*
X8957000Y29727000D01*
X8957000Y30073000D01*
X8977000Y30073000D01*
X8977000Y31001250D01*
X9323000Y31001250D01*
X9323000Y30073000D01*
X10126250Y30073000D01*
X10285000Y30231750D01*
X10285000Y30651310D01*
X10188327Y30884699D01*
X10009698Y31063327D01*
X9776309Y31160000D01*
X9481750Y31160000D01*
X9323000Y31001250D01*
X8977000Y31001250D01*
X8818250Y31160000D01*
X8523691Y31160000D01*
X8290302Y31063327D01*
X8149064Y30922090D01*
X8125000Y30959486D01*
X8125000Y32147242D01*
X8412943Y32266218D01*
X8565240Y32418250D01*
X16115000Y32418250D01*
X16115000Y31998690D01*
X16211673Y31765301D01*
X16390302Y31586673D01*
X16623691Y31490000D01*
X16918250Y31490000D01*
X17077000Y31648750D01*
X17077000Y32577000D01*
X16273750Y32577000D01*
X16115000Y32418250D01*
X8565240Y32418250D01*
X8971819Y32824120D01*
X9274654Y33553427D01*
X9275343Y34343109D01*
X8973782Y35072943D01*
X8415880Y35631819D01*
X7686573Y35934654D01*
X6896891Y35935343D01*
X6167057Y35633782D01*
X5608181Y35075880D01*
X5305346Y34346573D01*
X5304657Y33556891D01*
X685000Y33556891D01*
X685000Y37692598D01*
X9237257Y37692598D01*
X9310142Y37456167D01*
X9838649Y37286851D01*
X10391719Y37332674D01*
X10689858Y37456167D01*
X10762743Y37692598D01*
X10000000Y38455341D01*
X9237257Y37692598D01*
X685000Y37692598D01*
X685000Y38861351D01*
X8586851Y38861351D01*
X8632674Y38308281D01*
X8756167Y38010142D01*
X8992598Y37937257D01*
X9755341Y38700000D01*
X8992598Y39462743D01*
X8756167Y39389858D01*
X8586851Y38861351D01*
X685000Y38861351D01*
X685000Y40923735D01*
X8604758Y40923735D01*
X8816687Y40410828D01*
X9208764Y40018066D01*
X9348887Y39959882D01*
X9310142Y39943833D01*
X9237257Y39707402D01*
X10000000Y38944659D01*
X10762743Y39707402D01*
X10689858Y39943833D01*
X10646483Y39957729D01*
X10789172Y40016687D01*
X11000024Y40227171D01*
X11208764Y40018066D01*
X11372454Y39950096D01*
X11210828Y39883313D01*
X10818066Y39491236D01*
X10663387Y39118728D01*
X10244659Y38700000D01*
X10663788Y38280871D01*
X10816687Y37910828D01*
X11208764Y37518066D01*
X11721300Y37305242D01*
X12276265Y37304758D01*
X12789172Y37516687D01*
X13037919Y37765000D01*
X15162710Y37765000D01*
X15838855Y37088855D01*
X16142191Y36886173D01*
X16361019Y36842645D01*
X16365000Y36836458D01*
X16365000Y36381844D01*
X16298559Y36339090D01*
X16153569Y36126890D01*
X16102560Y35875000D01*
X16102560Y34625000D01*
X16146838Y34389683D01*
X16285910Y34173559D01*
X16498110Y34028569D01*
X16612565Y34005391D01*
X16390302Y33913327D01*
X16211673Y33734699D01*
X16115000Y33501310D01*
X16115000Y33081750D01*
X16273750Y32923000D01*
X17077000Y32923000D01*
X17077000Y32943000D01*
X17423000Y32943000D01*
X17423000Y32923000D01*
X17443000Y32923000D01*
X17443000Y32577000D01*
X17423000Y32577000D01*
X17423000Y31648750D01*
X17581750Y31490000D01*
X17876309Y31490000D01*
X18109698Y31586673D01*
X18250936Y31727910D01*
X18285910Y31673559D01*
X18498110Y31528569D01*
X18750000Y31477560D01*
X19750000Y31477560D01*
X19985317Y31521838D01*
X20201441Y31660910D01*
X20346431Y31873110D01*
X20375335Y32015841D01*
X20590434Y32159566D01*
X21090434Y32659566D01*
X21271440Y32930460D01*
X21335000Y33250000D01*
X21335000Y37634134D01*
X21977287Y38276421D01*
X22299515Y37953629D01*
X22753266Y37765215D01*
X23084058Y37764926D01*
X22159566Y36840434D01*
X21978561Y36569541D01*
X21915000Y36250000D01*
X21915000Y31845868D01*
X13900609Y23831477D01*
X13719604Y23560584D01*
X13656043Y23241043D01*
X13656043Y10875907D01*
X13614124Y10834061D01*
X13456223Y10453792D01*
X13455864Y10042044D01*
X13613101Y9661500D01*
X13903997Y9370096D01*
X14284266Y9212195D01*
X14696014Y9211836D01*
X14999392Y9337189D01*
X15293223Y9215180D01*
X15704971Y9214821D01*
X16085515Y9372058D01*
X16376919Y9662954D01*
X16534820Y10043223D01*
X16535179Y10454971D01*
X16377942Y10835515D01*
X16087046Y11126919D01*
X16085000Y11127769D01*
X16085000Y17668250D01*
X16365000Y17668250D01*
X16365000Y17248690D01*
X16461673Y17015301D01*
X16640302Y16836673D01*
X16873691Y16740000D01*
X17168250Y16740000D01*
X17327000Y16898750D01*
X17327000Y17827000D01*
X16523750Y17827000D01*
X16365000Y17668250D01*
X16085000Y17668250D01*
X16085000Y18751310D01*
X16365000Y18751310D01*
X16365000Y18331750D01*
X16523750Y18173000D01*
X17327000Y18173000D01*
X17327000Y19101250D01*
X17168250Y19260000D01*
X16873691Y19260000D01*
X16640302Y19163327D01*
X16461673Y18984699D01*
X16365000Y18751310D01*
X16085000Y18751310D01*
X16085000Y19365000D01*
X16793250Y19365000D01*
X16952000Y19523750D01*
X16952000Y20577000D01*
X16932000Y20577000D01*
X16932000Y20923000D01*
X16952000Y20923000D01*
X16952000Y21976250D01*
X16793250Y22135000D01*
X16085000Y22135000D01*
X16085000Y22654132D01*
X18940000Y25509132D01*
X18940000Y22147440D01*
X18900000Y22147440D01*
X18664683Y22103162D01*
X18500507Y21997518D01*
X18459698Y22038327D01*
X18226309Y22135000D01*
X17456750Y22135000D01*
X17298000Y21976250D01*
X17298000Y20923000D01*
X17318000Y20923000D01*
X17318000Y20577000D01*
X17298000Y20577000D01*
X17298000Y19523750D01*
X17456750Y19365000D01*
X18226309Y19365000D01*
X18459698Y19461673D01*
X18501660Y19503634D01*
X18648110Y19403569D01*
X18649814Y19403224D01*
X18636173Y19382809D01*
X18582033Y19110630D01*
X18548559Y19089090D01*
X18502031Y19020994D01*
X18359698Y19163327D01*
X18126309Y19260000D01*
X17831750Y19260000D01*
X17673000Y19101250D01*
X17673000Y18173000D01*
X17693000Y18173000D01*
X17693000Y17827000D01*
X17673000Y17827000D01*
X17673000Y16898750D01*
X17831750Y16740000D01*
X18126309Y16740000D01*
X18359698Y16836673D01*
X18500936Y16977910D01*
X18535910Y16923559D01*
X18565000Y16903683D01*
X18565000Y8061662D01*
X18453629Y7950485D01*
X18265215Y7496734D01*
X18264786Y7005421D01*
X18452408Y6551343D01*
X18799515Y6203629D01*
X19253266Y6015215D01*
X19744579Y6014786D01*
X20198657Y6202408D01*
X20546371Y6549515D01*
X20734785Y7003266D01*
X20735214Y7494579D01*
X20547592Y7948657D01*
X20435000Y8061446D01*
X20435000Y8215056D01*
X20477216Y8215020D01*
X20622058Y7864475D01*
X20912954Y7573071D01*
X21293223Y7415170D01*
X21704971Y7414811D01*
X22085515Y7572048D01*
X22376919Y7862944D01*
X22534820Y8243213D01*
X22534856Y8284276D01*
X22835000Y7984132D01*
X22835000Y6222841D01*
X22619946Y6079147D01*
X22298039Y5597378D01*
X22185000Y5029093D01*
X22185000Y4970907D01*
X22298039Y4402622D01*
X22619946Y3920853D01*
X23101715Y3598946D01*
X23670000Y3485907D01*
X24238285Y3598946D01*
X24720054Y3920853D01*
X24940000Y4250026D01*
X25159946Y3920853D01*
X25641715Y3598946D01*
X26210000Y3485907D01*
X26778285Y3598946D01*
X27260054Y3920853D01*
X27489865Y4264790D01*
X27582832Y4081859D01*
X28023035Y3705092D01*
X28348407Y3570333D01*
X28577000Y3685082D01*
X28577000Y4827000D01*
X28557000Y4827000D01*
X28557000Y5173000D01*
X28577000Y5173000D01*
X28577000Y6314918D01*
X28348407Y6429667D01*
X28023035Y6294908D01*
X27582832Y5918141D01*
X27489865Y5735210D01*
X27260054Y6079147D01*
X27045000Y6222841D01*
X27045000Y7040000D01*
X26981439Y7359541D01*
X26800434Y7630434D01*
X25762618Y8668250D01*
X28115000Y8668250D01*
X28115000Y8248690D01*
X28211673Y8015301D01*
X28390302Y7836673D01*
X28623691Y7740000D01*
X28918250Y7740000D01*
X29077000Y7898750D01*
X29077000Y8827000D01*
X28273750Y8827000D01*
X28115000Y8668250D01*
X25762618Y8668250D01*
X24679558Y9751310D01*
X28115000Y9751310D01*
X28115000Y9331750D01*
X28273750Y9173000D01*
X29077000Y9173000D01*
X29077000Y10101250D01*
X28918250Y10260000D01*
X28623691Y10260000D01*
X28390302Y10163327D01*
X28211673Y9984699D01*
X28115000Y9751310D01*
X24679558Y9751310D01*
X24085000Y10345868D01*
X24085000Y11654132D01*
X24333429Y11902560D01*
X26025000Y11902560D01*
X26260317Y11946838D01*
X26476441Y12085910D01*
X26621431Y12298110D01*
X26672440Y12550000D01*
X26672440Y13000000D01*
X26652933Y13103671D01*
X26672440Y13200000D01*
X26672440Y13650000D01*
X26652933Y13753671D01*
X26672440Y13850000D01*
X26672440Y14300000D01*
X26652933Y14403671D01*
X26672440Y14500000D01*
X26672440Y14950000D01*
X26652933Y15053671D01*
X26672440Y15150000D01*
X26672440Y15600000D01*
X26652933Y15703671D01*
X26672440Y15800000D01*
X26672440Y16250000D01*
X26652933Y16353671D01*
X26672440Y16450000D01*
X26672440Y16900000D01*
X26652933Y17003671D01*
X26672440Y17100000D01*
X26672440Y17550000D01*
X26652933Y17653671D01*
X26672440Y17750000D01*
X26672440Y18200000D01*
X26659020Y18271323D01*
X26660000Y18273690D01*
X26660000Y18353750D01*
X26639688Y18374062D01*
X26628162Y18435317D01*
X26504671Y18627227D01*
X26621431Y18798110D01*
X26636558Y18872808D01*
X26660000Y18896250D01*
X26660000Y18976310D01*
X26658333Y18980335D01*
X26672440Y19050000D01*
X26672440Y19500000D01*
X26652933Y19603671D01*
X26672440Y19700000D01*
X26672440Y20150000D01*
X26652933Y20253671D01*
X26672440Y20350000D01*
X26672440Y20800000D01*
X26652933Y20903671D01*
X26672440Y21000000D01*
X26672440Y21450000D01*
X26628162Y21685317D01*
X26489090Y21901441D01*
X26276890Y22046431D01*
X26025000Y22097440D01*
X24583429Y22097440D01*
X24335000Y22345868D01*
X24335000Y23904132D01*
X26595868Y26165000D01*
X34250000Y26165000D01*
X34569541Y26228561D01*
X34840434Y26409566D01*
X35415000Y26984132D01*
X35415000Y26325681D01*
X35204343Y26325865D01*
X34823799Y26168628D01*
X34532395Y25877732D01*
X34374494Y25497463D01*
X34374416Y25407497D01*
X32840704Y23770952D01*
X32761655Y23643915D01*
X32678531Y23519511D01*
X32675846Y23506014D01*
X32668577Y23494332D01*
X32644161Y23346722D01*
X32614970Y23199970D01*
X32614970Y22097440D01*
X31475000Y22097440D01*
X31239683Y22053162D01*
X31023559Y21914090D01*
X30878569Y21701890D01*
X30827560Y21450000D01*
X30827560Y21000000D01*
X30847067Y20896329D01*
X30827560Y20800000D01*
X30827560Y20350000D01*
X30847067Y20246329D01*
X30827560Y20150000D01*
X30827560Y19700000D01*
X30847067Y19596329D01*
X30827560Y19500000D01*
X30827560Y19050000D01*
X30847067Y18946329D01*
X30827560Y18850000D01*
X30827560Y18400000D01*
X30847067Y18296329D01*
X30827560Y18200000D01*
X30827560Y17750000D01*
X30840980Y17678677D01*
X30840000Y17676310D01*
X30840000Y17596250D01*
X30860312Y17575938D01*
X30871838Y17514683D01*
X30995329Y17322773D01*
X30878569Y17151890D01*
X30863442Y17077192D01*
X30840000Y17053750D01*
X30840000Y16973690D01*
X30841667Y16969665D01*
X30827560Y16900000D01*
X30827560Y16450000D01*
X30847067Y16346329D01*
X30827560Y16250000D01*
X30827560Y15800000D01*
X30847067Y15696329D01*
X30827560Y15600000D01*
X30827560Y15150000D01*
X30847067Y15046329D01*
X30827560Y14950000D01*
X30827560Y14500000D01*
X30847067Y14396329D01*
X30827560Y14300000D01*
X30827560Y13850000D01*
X30847067Y13746329D01*
X30827560Y13650000D01*
X30827560Y13200000D01*
X30847067Y13096329D01*
X30827560Y13000000D01*
X30827560Y12550000D01*
X30871838Y12314683D01*
X31010910Y12098559D01*
X31223110Y11953569D01*
X31475000Y11902560D01*
X32995000Y11902560D01*
X32995000Y6497440D01*
X32980000Y6497440D01*
X32744683Y6453162D01*
X32528559Y6314090D01*
X32383569Y6101890D01*
X32369914Y6034459D01*
X32340054Y6079147D01*
X32185000Y6182751D01*
X32185000Y7900331D01*
X32201441Y7910910D01*
X32346431Y8123110D01*
X32397440Y8375000D01*
X32397440Y9625000D01*
X32353162Y9860317D01*
X32214090Y10076441D01*
X32001890Y10221431D01*
X31750000Y10272440D01*
X30750000Y10272440D01*
X30514683Y10228162D01*
X30298559Y10089090D01*
X30252031Y10020994D01*
X30109698Y10163327D01*
X29876309Y10260000D01*
X29581750Y10260000D01*
X29423000Y10101250D01*
X29423000Y9173000D01*
X29443000Y9173000D01*
X29443000Y8827000D01*
X29423000Y8827000D01*
X29423000Y7898750D01*
X29581750Y7740000D01*
X29876309Y7740000D01*
X30109698Y7836673D01*
X30250936Y7977910D01*
X30285910Y7923559D01*
X30315000Y7903683D01*
X30315000Y6129296D01*
X30239946Y6079147D01*
X30010135Y5735210D01*
X29917168Y5918141D01*
X29476965Y6294908D01*
X29151593Y6429667D01*
X28923000Y6314918D01*
X28923000Y5173000D01*
X28943000Y5173000D01*
X28943000Y4827000D01*
X28923000Y4827000D01*
X28923000Y3685082D01*
X29151593Y3570333D01*
X29476965Y3705092D01*
X29917168Y4081859D01*
X30010135Y4264790D01*
X30239946Y3920853D01*
X30721715Y3598946D01*
X31290000Y3485907D01*
X31858285Y3598946D01*
X32340054Y3920853D01*
X32367850Y3962452D01*
X32376838Y3914683D01*
X32515910Y3698559D01*
X32728110Y3553569D01*
X32980000Y3502560D01*
X34680000Y3502560D01*
X34915317Y3546838D01*
X35131441Y3685910D01*
X35276431Y3898110D01*
X35327440Y4150000D01*
X35327440Y5850000D01*
X35283162Y6085317D01*
X35144090Y6301441D01*
X34931890Y6446431D01*
X34680000Y6497440D01*
X34665000Y6497440D01*
X34665000Y10665000D01*
X35337370Y10665000D01*
X35346838Y10614683D01*
X35485910Y10398559D01*
X35698110Y10253569D01*
X35950000Y10202560D01*
X36650000Y10202560D01*
X36885317Y10246838D01*
X37101441Y10385910D01*
X37246431Y10598110D01*
X37249081Y10611197D01*
X37365000Y10431054D01*
X37365000Y10153222D01*
X37364683Y10153162D01*
X37148559Y10014090D01*
X37003569Y9801890D01*
X36952560Y9550000D01*
X36952560Y8850000D01*
X36996838Y8614683D01*
X37135910Y8398559D01*
X37348110Y8253569D01*
X37361197Y8250919D01*
X37336458Y8235000D01*
X37261749Y8235000D01*
X37200485Y8296371D01*
X36746734Y8484785D01*
X36255421Y8485214D01*
X35801343Y8297592D01*
X35453629Y7950485D01*
X35265215Y7496734D01*
X35264786Y7005421D01*
X35452408Y6551343D01*
X35799515Y6203629D01*
X36253266Y6015215D01*
X36744579Y6014786D01*
X37198657Y6202408D01*
X37349750Y6353237D01*
X37600000Y6302560D01*
X38900000Y6302560D01*
X39135317Y6346838D01*
X39351441Y6485910D01*
X39490000Y6688698D01*
X39490000Y6623691D01*
X39586673Y6390302D01*
X39765301Y6211673D01*
X39998690Y6115000D01*
X40418250Y6115000D01*
X40577000Y6273750D01*
X40577000Y7077000D01*
X40923000Y7077000D01*
X40923000Y6273750D01*
X41081750Y6115000D01*
X41501310Y6115000D01*
X41734699Y6211673D01*
X41913327Y6390302D01*
X42010000Y6623691D01*
X42010000Y6918250D01*
X41851250Y7077000D01*
X40923000Y7077000D01*
X40577000Y7077000D01*
X40557000Y7077000D01*
X40557000Y7423000D01*
X40577000Y7423000D01*
X40577000Y7443000D01*
X40923000Y7443000D01*
X40923000Y7423000D01*
X41851250Y7423000D01*
X42010000Y7581750D01*
X42010000Y7876309D01*
X41913327Y8109698D01*
X41772090Y8250936D01*
X41826441Y8285910D01*
X41971431Y8498110D01*
X42022440Y8750000D01*
X42022440Y9750000D01*
X41978162Y9985317D01*
X41839090Y10201441D01*
X41626890Y10346431D01*
X41375000Y10397440D01*
X40125000Y10397440D01*
X39889683Y10353162D01*
X39673559Y10214090D01*
X39551192Y10035000D01*
X39314975Y10035000D01*
X39151890Y10146431D01*
X39035000Y10170102D01*
X39035000Y10435025D01*
X39146431Y10598110D01*
X39197440Y10850000D01*
X39197440Y12150000D01*
X39153162Y12385317D01*
X39014090Y12601441D01*
X38812341Y12739290D01*
X38985317Y12771838D01*
X39201441Y12910910D01*
X39346431Y13123110D01*
X39397440Y13375000D01*
X39397440Y14625000D01*
X39353162Y14860317D01*
X39214090Y15076441D01*
X39063510Y15179328D01*
X39151441Y15235910D01*
X39296431Y15448110D01*
X39347440Y15700000D01*
X39347440Y17100000D01*
X39303162Y17335317D01*
X39197518Y17499493D01*
X39238327Y17540302D01*
X39335000Y17773691D01*
X39335000Y18268250D01*
X39176250Y18427000D01*
X38273000Y18427000D01*
X38273000Y18407000D01*
X37927000Y18407000D01*
X37927000Y18427000D01*
X37907000Y18427000D01*
X37907000Y18773000D01*
X37927000Y18773000D01*
X37927000Y19748750D01*
X37954500Y19776250D01*
X38273000Y19776250D01*
X38273000Y18773000D01*
X39176250Y18773000D01*
X39335000Y18931750D01*
X39335000Y19426309D01*
X39238327Y19659698D01*
X39075513Y19822513D01*
X39109698Y19836673D01*
X39288327Y20015301D01*
X39385000Y20248690D01*
X39385000Y20668250D01*
X39226250Y20827000D01*
X38423000Y20827000D01*
X38423000Y19926250D01*
X38273000Y19776250D01*
X37954500Y19776250D01*
X38077000Y19898750D01*
X38077000Y20827000D01*
X38057000Y20827000D01*
X38057000Y21173000D01*
X38077000Y21173000D01*
X38077000Y22101250D01*
X38423000Y22101250D01*
X38423000Y21173000D01*
X39226250Y21173000D01*
X39385000Y21331750D01*
X39385000Y21751310D01*
X39288327Y21984699D01*
X39109698Y22163327D01*
X38876309Y22260000D01*
X38581750Y22260000D01*
X38423000Y22101250D01*
X38077000Y22101250D01*
X37918250Y22260000D01*
X37623691Y22260000D01*
X37390302Y22163327D01*
X37249064Y22022090D01*
X37214090Y22076441D01*
X37001890Y22221431D01*
X36750000Y22272440D01*
X36703308Y22272440D01*
X38340430Y23909562D01*
X38451669Y24076043D01*
X38521435Y24180455D01*
X38584996Y24499996D01*
X38584996Y24532618D01*
X38703640Y24413767D01*
X39083909Y24255866D01*
X39495657Y24255507D01*
X39876201Y24412744D01*
X40167605Y24703640D01*
X40325506Y25083909D01*
X40325559Y25144691D01*
X41464978Y26284110D01*
X41464978Y18395846D01*
X40604259Y17535127D01*
X40545029Y17535179D01*
X40164485Y17377942D01*
X39873081Y17087046D01*
X39715180Y16706777D01*
X39714821Y16295029D01*
X39872058Y15914485D01*
X39998741Y15787581D01*
X39965188Y15706777D01*
X39964829Y15295029D01*
X40122066Y14914485D01*
X40248740Y14787590D01*
X40215184Y14706777D01*
X40214825Y14295029D01*
X40372062Y13914485D01*
X40662958Y13623081D01*
X41043227Y13465180D01*
X41454975Y13464821D01*
X41835519Y13622058D01*
X42126923Y13912954D01*
X42284824Y14293223D01*
X42284877Y14354005D01*
X43799622Y15868750D01*
X49890000Y15868750D01*
X49890000Y15738690D01*
X49986673Y15505301D01*
X50165302Y15326673D01*
X50398691Y15230000D01*
X51368250Y15230000D01*
X51527000Y15388750D01*
X51527000Y16027500D01*
X51873000Y16027500D01*
X51873000Y15388750D01*
X52031750Y15230000D01*
X53001309Y15230000D01*
X53234698Y15326673D01*
X53413327Y15505301D01*
X53510000Y15738690D01*
X53510000Y15868750D01*
X53351250Y16027500D01*
X51873000Y16027500D01*
X51527000Y16027500D01*
X50048750Y16027500D01*
X49890000Y15868750D01*
X43799622Y15868750D01*
X44090434Y16159562D01*
X44119164Y16202560D01*
X44271439Y16430455D01*
X44313380Y16641310D01*
X49890000Y16641310D01*
X49890000Y16511250D01*
X50048750Y16352500D01*
X51527000Y16352500D01*
X51527000Y16991250D01*
X51873000Y16991250D01*
X51873000Y16352500D01*
X53351250Y16352500D01*
X53510000Y16511250D01*
X53510000Y16641310D01*
X53413327Y16874699D01*
X53234698Y17053327D01*
X53001309Y17150000D01*
X52031750Y17150000D01*
X51873000Y16991250D01*
X51527000Y16991250D01*
X51368250Y17150000D01*
X50398691Y17150000D01*
X50165302Y17053327D01*
X49986673Y16874699D01*
X49890000Y16641310D01*
X44313380Y16641310D01*
X44335000Y16749996D01*
X44335000Y18545029D01*
X47464821Y18545029D01*
X47622058Y18164485D01*
X47912954Y17873081D01*
X48293223Y17715180D01*
X48704971Y17714821D01*
X49085515Y17872058D01*
X49128532Y17915000D01*
X50117343Y17915000D01*
X50273110Y17808569D01*
X50525000Y17757560D01*
X52875000Y17757560D01*
X53110317Y17801838D01*
X53326441Y17940910D01*
X53471431Y18153110D01*
X53522440Y18405000D01*
X53522440Y19055000D01*
X53478162Y19290317D01*
X53339090Y19506441D01*
X53126890Y19651431D01*
X52875000Y19702440D01*
X50525000Y19702440D01*
X50289683Y19658162D01*
X50175986Y19585000D01*
X49128892Y19585000D01*
X49087046Y19626919D01*
X48706777Y19784820D01*
X48295029Y19785179D01*
X47914485Y19627942D01*
X47623081Y19337046D01*
X47465180Y18956777D01*
X47464821Y18545029D01*
X44335000Y18545029D01*
X44335000Y21045029D01*
X47464821Y21045029D01*
X47622058Y20664485D01*
X47912954Y20373081D01*
X48293223Y20215180D01*
X48704971Y20214821D01*
X49085515Y20372058D01*
X49128532Y20415000D01*
X50175885Y20415000D01*
X50273110Y20348569D01*
X50525000Y20297560D01*
X52875000Y20297560D01*
X53110317Y20341838D01*
X53326441Y20480910D01*
X53471431Y20693110D01*
X53522440Y20945000D01*
X53522440Y21595000D01*
X53478162Y21830317D01*
X53339090Y22046441D01*
X53126890Y22191431D01*
X52875000Y22242440D01*
X50525000Y22242440D01*
X50289683Y22198162D01*
X50113824Y22085000D01*
X49128892Y22085000D01*
X49087046Y22126919D01*
X48706777Y22284820D01*
X48295029Y22285179D01*
X47914485Y22127942D01*
X47623081Y21837046D01*
X47465180Y21456777D01*
X47464821Y21045029D01*
X44335000Y21045029D01*
X44335000Y23418250D01*
X45115000Y23418250D01*
X45115000Y22998690D01*
X45211673Y22765301D01*
X45390302Y22586673D01*
X45623691Y22490000D01*
X45918250Y22490000D01*
X46077000Y22648750D01*
X46077000Y23577000D01*
X45273750Y23577000D01*
X45115000Y23418250D01*
X44335000Y23418250D01*
X44335000Y24501310D01*
X45115000Y24501310D01*
X45115000Y24081750D01*
X45273750Y23923000D01*
X46077000Y23923000D01*
X46077000Y24851250D01*
X45918250Y25010000D01*
X45623691Y25010000D01*
X45390302Y24913327D01*
X45211673Y24734699D01*
X45115000Y24501310D01*
X44335000Y24501310D01*
X44335000Y25516975D01*
X44390302Y25461673D01*
X44623691Y25365000D01*
X45393250Y25365000D01*
X45552000Y25523750D01*
X45552000Y27077000D01*
X45532000Y27077000D01*
X45532000Y27423000D01*
X45552000Y27423000D01*
X45552000Y28976250D01*
X45393250Y29135000D01*
X44623691Y29135000D01*
X44390302Y29038327D01*
X44335000Y28983025D01*
X44335000Y32896310D01*
X51475000Y32896310D01*
X51475000Y31831750D01*
X51633750Y31673000D01*
X52287000Y31673000D01*
X52287000Y33246250D01*
X52633000Y33246250D01*
X52633000Y31673000D01*
X53286250Y31673000D01*
X53445000Y31831750D01*
X53445000Y32896310D01*
X53348327Y33129699D01*
X53169698Y33308327D01*
X52936309Y33405000D01*
X52791750Y33405000D01*
X52633000Y33246250D01*
X52287000Y33246250D01*
X52128250Y33405000D01*
X51983691Y33405000D01*
X51750302Y33308327D01*
X51571673Y33129699D01*
X51475000Y32896310D01*
X44335000Y32896310D01*
X44335000Y39750000D01*
X44271439Y40069541D01*
X44090434Y40340434D01*
X41460868Y42970000D01*
X51462560Y42970000D01*
X51462560Y40430000D01*
X51506838Y40194683D01*
X51645910Y39978559D01*
X51858110Y39833569D01*
X52110000Y39782560D01*
X52810000Y39782560D01*
X53045317Y39826838D01*
X53261441Y39965910D01*
X53406431Y40178110D01*
X53457440Y40430000D01*
X53457440Y42970000D01*
X53413162Y43205317D01*
X53274090Y43421441D01*
X53061890Y43566431D01*
X52810000Y43617440D01*
X52110000Y43617440D01*
X51874683Y43573162D01*
X51658559Y43434090D01*
X51513569Y43221890D01*
X51462560Y42970000D01*
X41460868Y42970000D01*
X40490423Y43940445D01*
X40404121Y43998110D01*
X40219530Y44121450D01*
X39899989Y44185011D01*
X35250011Y44185011D01*
X34930471Y44121451D01*
X34659577Y43940445D01*
X33301151Y42582019D01*
X33225000Y42597440D01*
X31475000Y42597440D01*
X31239683Y42553162D01*
X31023559Y42414090D01*
X30878569Y42201890D01*
X30827560Y41950000D01*
X30827560Y41500000D01*
X30847067Y41396329D01*
X30827560Y41300000D01*
X30827560Y40850000D01*
X30847067Y40746329D01*
X30827560Y40650000D01*
X30827560Y40200000D01*
X30847067Y40096329D01*
X30827560Y40000000D01*
X30827560Y39550000D01*
X30847067Y39446329D01*
X30827560Y39350000D01*
X30827560Y38900000D01*
X30847067Y38796329D01*
X30827560Y38700000D01*
X30827560Y38250000D01*
X30847067Y38146329D01*
X30827560Y38050000D01*
X30827560Y37600000D01*
X30840980Y37528677D01*
X30840000Y37526310D01*
X30840000Y37446250D01*
X30860312Y37425938D01*
X30871838Y37364683D01*
X30995329Y37172773D01*
X30878569Y37001890D01*
X30863442Y36927192D01*
X30840000Y36903750D01*
X30840000Y36823690D01*
X30841667Y36819665D01*
X30827560Y36750000D01*
X30827560Y36300000D01*
X30847067Y36196329D01*
X30827560Y36100000D01*
X30827560Y35650000D01*
X30847067Y35546329D01*
X30827560Y35450000D01*
X30827560Y35000000D01*
X30847067Y34896329D01*
X30827560Y34800000D01*
X30827560Y34350000D01*
X30847067Y34246329D01*
X30827560Y34150000D01*
X30827560Y33700000D01*
X30847067Y33596329D01*
X30827560Y33500000D01*
X30827560Y33050000D01*
X30871838Y32814683D01*
X31010910Y32598559D01*
X31223110Y32453569D01*
X31475000Y32402560D01*
X32916572Y32402560D01*
X33831713Y31487419D01*
X33715180Y31206777D01*
X33714856Y30835000D01*
X26151457Y30835000D01*
X25831916Y30771439D01*
X25620887Y30630434D01*
X25561023Y30590434D01*
X24156257Y29185668D01*
X24047592Y29448657D01*
X23700485Y29796371D01*
X23366091Y29935223D01*
X23940445Y30509577D01*
X23994472Y30590434D01*
X24121450Y30780470D01*
X24185011Y31100011D01*
X24185011Y32420783D01*
X24275000Y32402560D01*
X26025000Y32402560D01*
X26260317Y32446838D01*
X26476441Y32585910D01*
X26621431Y32798110D01*
X26672440Y33050000D01*
X26672440Y33500000D01*
X26652933Y33603671D01*
X26672440Y33700000D01*
X26672440Y34150000D01*
X26652933Y34253671D01*
X26672440Y34350000D01*
X26672440Y34800000D01*
X26659020Y34871323D01*
X26660000Y34873690D01*
X26660000Y34953750D01*
X26639688Y34974062D01*
X26628162Y35035317D01*
X26504671Y35227227D01*
X26621431Y35398110D01*
X26636558Y35472808D01*
X26660000Y35496250D01*
X26660000Y35576310D01*
X26658333Y35580335D01*
X26672440Y35650000D01*
X26672440Y36100000D01*
X26652933Y36203671D01*
X26672440Y36300000D01*
X26672440Y36750000D01*
X26652933Y36853671D01*
X26672440Y36950000D01*
X26672440Y37400000D01*
X26659020Y37471323D01*
X26660000Y37473690D01*
X26660000Y37553750D01*
X26639688Y37574062D01*
X26628162Y37635317D01*
X26504671Y37827227D01*
X26621431Y37998110D01*
X26636558Y38072808D01*
X26660000Y38096250D01*
X26660000Y38176310D01*
X26658333Y38180335D01*
X26672440Y38250000D01*
X26672440Y38700000D01*
X26652933Y38803671D01*
X26672440Y38900000D01*
X26672440Y39350000D01*
X26659020Y39421323D01*
X26660000Y39423690D01*
X26660000Y39503750D01*
X26639688Y39524062D01*
X26628162Y39585317D01*
X26504671Y39777227D01*
X26621431Y39948110D01*
X26636558Y40022808D01*
X26660000Y40046250D01*
X26660000Y40126310D01*
X26658333Y40130335D01*
X26672440Y40200000D01*
X26672440Y40650000D01*
X26652933Y40753671D01*
X26672440Y40850000D01*
X26672440Y41300000D01*
X26652933Y41403671D01*
X26672440Y41500000D01*
X26672440Y41950000D01*
X26628162Y42185317D01*
X26489090Y42401441D01*
X26276890Y42546431D01*
X26025000Y42597440D01*
X24275000Y42597440D01*
X24076024Y42560000D01*
X23120868Y42560000D01*
X22340434Y43340434D01*
X22326101Y43350011D01*
X22069541Y43521439D01*
X21750000Y43585000D01*
X20830000Y43585000D01*
X20510459Y43521439D01*
X20253899Y43350011D01*
X20239566Y43340434D01*
X20039311Y43140179D01*
X19975409Y43153119D01*
X20161145Y43338855D01*
X20337346Y43602560D01*
X20600000Y43602560D01*
X20835317Y43646838D01*
X21051441Y43785910D01*
X21196431Y43998110D01*
X21247440Y44250000D01*
X21247440Y45750000D01*
X21203162Y45985317D01*
X21064090Y46201441D01*
X20851890Y46346431D01*
X20600000Y46397440D01*
X18650000Y46397440D01*
X18414683Y46353162D01*
X18250507Y46247518D01*
X18209698Y46288327D01*
X17976309Y46385000D01*
X17206750Y46385000D01*
X17048000Y46226250D01*
X17048000Y45173000D01*
X17068000Y45173000D01*
X17068000Y44827000D01*
X17048000Y44827000D01*
X17048000Y43773750D01*
X17206750Y43615000D01*
X17792710Y43615000D01*
X17588855Y43411145D01*
X17429358Y43172440D01*
X16620000Y43172440D01*
X16458766Y43142102D01*
X16260434Y43340434D01*
X16246101Y43350011D01*
X15989541Y43521439D01*
X15670000Y43585000D01*
X11550000Y43585000D01*
X11230459Y43521439D01*
X10973899Y43350011D01*
X10959566Y43340434D01*
X10213946Y42594814D01*
X9723735Y42595242D01*
X9210828Y42383313D01*
X8818066Y41991236D01*
X8605242Y41478700D01*
X8604758Y40923735D01*
X685000Y40923735D01*
X685000Y45556891D01*
X5304657Y45556891D01*
X5606218Y44827057D01*
X6164120Y44268181D01*
X6893427Y43965346D01*
X7683109Y43964657D01*
X8412943Y44266218D01*
X8815676Y44668250D01*
X15265000Y44668250D01*
X15265000Y44123690D01*
X15361673Y43890301D01*
X15540302Y43711673D01*
X15773691Y43615000D01*
X16543250Y43615000D01*
X16702000Y43773750D01*
X16702000Y44827000D01*
X15423750Y44827000D01*
X15265000Y44668250D01*
X8815676Y44668250D01*
X8971819Y44824120D01*
X9274654Y45553427D01*
X9274935Y45876310D01*
X15265000Y45876310D01*
X15265000Y45331750D01*
X15423750Y45173000D01*
X16702000Y45173000D01*
X16702000Y46226250D01*
X16543250Y46385000D01*
X15773691Y46385000D01*
X15540302Y46288327D01*
X15361673Y46109699D01*
X15265000Y45876310D01*
X9274935Y45876310D01*
X9275343Y46343109D01*
X8973782Y47072943D01*
X8415880Y47631819D01*
X7686573Y47934654D01*
X6896891Y47935343D01*
X6167057Y47633782D01*
X5608181Y47075880D01*
X5305346Y46346573D01*
X5304657Y45556891D01*
X685000Y45556891D01*
X685000Y53151756D01*
X2398312Y53151756D01*
X2029996Y52784082D01*
G36*
X36573000Y16573000D02*
X36593000Y16573000D01*
X36593000Y16227000D01*
X36573000Y16227000D01*
X36573000Y15251250D01*
X36423000Y15101250D01*
X36423000Y14173000D01*
X36443000Y14173000D01*
X36443000Y13827000D01*
X36423000Y13827000D01*
X36423000Y13807000D01*
X36077000Y13807000D01*
X36077000Y13827000D01*
X36057000Y13827000D01*
X36057000Y14173000D01*
X36077000Y14173000D01*
X36077000Y15073750D01*
X36227000Y15223750D01*
X36227000Y16227000D01*
X36207000Y16227000D01*
X36207000Y16573000D01*
X36227000Y16573000D01*
X36227000Y16593000D01*
X36573000Y16593000D01*
X36573000Y16573000D01*
X36573000Y16573000D01*
G37*
X36573000Y16573000D02*
X36593000Y16573000D01*
X36593000Y16227000D01*
X36573000Y16227000D01*
X36573000Y15251250D01*
X36423000Y15101250D01*
X36423000Y14173000D01*
X36443000Y14173000D01*
X36443000Y13827000D01*
X36423000Y13827000D01*
X36423000Y13807000D01*
X36077000Y13807000D01*
X36077000Y13827000D01*
X36057000Y13827000D01*
X36057000Y14173000D01*
X36077000Y14173000D01*
X36077000Y15073750D01*
X36227000Y15223750D01*
X36227000Y16227000D01*
X36207000Y16227000D01*
X36207000Y16573000D01*
X36227000Y16573000D01*
X36227000Y16593000D01*
X36573000Y16593000D01*
X36573000Y16573000D01*
G36*
X38173000Y34923000D02*
X38193000Y34923000D01*
X38193000Y34577000D01*
X38173000Y34577000D01*
X38173000Y33648750D01*
X38331750Y33490000D01*
X38415000Y33490000D01*
X38415000Y32845868D01*
X38404132Y32835000D01*
X37250000Y32835000D01*
X36930459Y32771439D01*
X36764990Y32660876D01*
X35948306Y33477560D01*
X36500000Y33477560D01*
X36735317Y33521838D01*
X36951441Y33660910D01*
X36997969Y33729006D01*
X37140302Y33586673D01*
X37373691Y33490000D01*
X37668250Y33490000D01*
X37827000Y33648750D01*
X37827000Y34577000D01*
X37807000Y34577000D01*
X37807000Y34923000D01*
X37827000Y34923000D01*
X37827000Y34943000D01*
X38173000Y34943000D01*
X38173000Y34923000D01*
X38173000Y34923000D01*
G37*
X38173000Y34923000D02*
X38193000Y34923000D01*
X38193000Y34577000D01*
X38173000Y34577000D01*
X38173000Y33648750D01*
X38331750Y33490000D01*
X38415000Y33490000D01*
X38415000Y32845868D01*
X38404132Y32835000D01*
X37250000Y32835000D01*
X36930459Y32771439D01*
X36764990Y32660876D01*
X35948306Y33477560D01*
X36500000Y33477560D01*
X36735317Y33521838D01*
X36951441Y33660910D01*
X36997969Y33729006D01*
X37140302Y33586673D01*
X37373691Y33490000D01*
X37668250Y33490000D01*
X37827000Y33648750D01*
X37827000Y34577000D01*
X37807000Y34577000D01*
X37807000Y34923000D01*
X37827000Y34923000D01*
X37827000Y34943000D01*
X38173000Y34943000D01*
X38173000Y34923000D01*
G36*
X19423000Y35423000D02*
X19443000Y35423000D01*
X19443000Y35077000D01*
X19423000Y35077000D01*
X19423000Y35057000D01*
X19077000Y35057000D01*
X19077000Y35077000D01*
X19057000Y35077000D01*
X19057000Y35423000D01*
X19077000Y35423000D01*
X19077000Y35443000D01*
X19423000Y35443000D01*
X19423000Y35423000D01*
X19423000Y35423000D01*
G37*
X19423000Y35423000D02*
X19443000Y35423000D01*
X19443000Y35077000D01*
X19423000Y35077000D01*
X19423000Y35057000D01*
X19077000Y35057000D01*
X19077000Y35077000D01*
X19057000Y35077000D01*
X19057000Y35423000D01*
X19077000Y35423000D01*
X19077000Y35443000D01*
X19423000Y35443000D01*
X19423000Y35423000D01*
G36*
X15629566Y41609566D02*
X15900459Y41428561D01*
X16220000Y41365000D01*
X16241614Y41365000D01*
X16368110Y41278569D01*
X16505120Y41250824D01*
X16384683Y41228162D01*
X16239905Y41135000D01*
X13394944Y41135000D01*
X13395242Y41476265D01*
X13213960Y41915000D01*
X15324132Y41915000D01*
X15629566Y41609566D01*
X15629566Y41609566D01*
G37*
X15629566Y41609566D02*
X15900459Y41428561D01*
X16220000Y41365000D01*
X16241614Y41365000D01*
X16368110Y41278569D01*
X16505120Y41250824D01*
X16384683Y41228162D01*
X16239905Y41135000D01*
X13394944Y41135000D01*
X13395242Y41476265D01*
X13213960Y41915000D01*
X15324132Y41915000D01*
X15629566Y41609566D01*
M02*
